<svg xmlns="http://www.w3.org/2000/svg" width="145" height="145" viewBox="0 0 145 145">
  <g id="_20-Alarm_Clock" data-name="20-Alarm Clock" transform="translate(0)">
    <ellipse id="Elipse_4838" data-name="Elipse 4838" cx="46" cy="45" rx="46" ry="45" transform="translate(26 33.667)" fill="#f2f6fc"/>
    <ellipse id="Elipse_4839" data-name="Elipse 4839" cx="28.5" cy="29.5" rx="28.5" ry="29.5" transform="translate(44 49.667)" fill="#e9edf5"/>
    <path id="Trazado_120536" data-name="Trazado 120536" d="M58.151,53.165,69.479,75.821H60.416L45.35,62.907A56.882,56.882,0,0,0,57.856,52.87Z" transform="translate(57.396 66.913)" fill="#d99668"/>
    <path id="Trazado_120537" data-name="Trazado 120537" d="M19.623,52.87A56.882,56.882,0,0,0,32.129,62.907L17.062,75.821H8L19.328,53.165Z" transform="translate(10.125 66.913)" fill="#d99668"/>
    <path id="Trazado_120538" data-name="Trazado 120538" d="M5.531,4l4.531,4.531a22.6,22.6,0,0,0-4.531,4.531L1,8.531Z" transform="translate(1.266 5.062)" fill="#cdd2e1"/>
    <path id="Trazado_120539" data-name="Trazado 120539" d="M68.062,8.531l-4.531,4.531A22.6,22.6,0,0,0,59,8.531L63.531,4Z" transform="translate(74.672 5.062)" fill="#cdd2e1"/>
    <path id="Trazado_120540" data-name="Trazado 120540" d="M52.187,1a4.545,4.545,0,0,1,4.531,4.531,4.429,4.429,0,0,1-1.337,3.195,4.429,4.429,0,0,1-3.195,1.337H29.531A4.545,4.545,0,0,1,25,5.531a4.429,4.429,0,0,1,1.337-3.195A4.429,4.429,0,0,1,29.531,1Z" transform="translate(31.641 1.266)" fill="#cdd2e1"/>
    <path id="Trazado_120541" data-name="Trazado 120541" d="M39.062,5v9.244c-1.5-.113-3.013-.181-4.531-.181S31.5,14.13,30,14.244V5Z" transform="translate(37.969 6.328)" fill="#7e8596"/>
    <path id="Trazado_120542" data-name="Trazado 120542" d="M18.062,12l6.185,6.185a57.141,57.141,0,0,0-9.062,9.062L9,21.062Z" transform="translate(11.391 15.187)" fill="#7e8596"/>
    <path id="Trazado_120543" data-name="Trazado 120543" d="M63.518,21.062l-6.185,6.185a57.141,57.141,0,0,0-9.062-9.062L54.455,12Z" transform="translate(61.091 15.187)" fill="#7e8596"/>
    <path id="Trazado_120544" data-name="Trazado 120544" d="M39.674,10.638,28.187,22.125l-9.062,9.062L7.638,42.674A22.654,22.654,0,1,1,39.676,10.636Z" transform="translate(1.266 5.062)" fill="#ffc247"/>
    <path id="Trazado_120545" data-name="Trazado 120545" d="M5.531,31.187a22.656,22.656,0,0,1,33.49-19.9l.652-.652A22.654,22.654,0,1,0,7.636,42.676l.655-.655a22.536,22.536,0,0,1-2.76-10.834Z" transform="translate(1.266 5.063)" fill="#f5cd62"/>
    <path id="Trazado_120546" data-name="Trazado 120546" d="M84.6,26.654a22.586,22.586,0,0,1-6.638,16.018L66.479,31.185l-9.062-9.062L45.93,10.636A22.656,22.656,0,0,1,84.6,26.654Z" transform="translate(58.13 5.065)" fill="#ffc247"/>
    <path id="Trazado_120547" data-name="Trazado 120547" d="M80.073,13.061A22.656,22.656,0,0,0,45.93,10.637l.653.653A22.656,22.656,0,0,1,77.313,42.02l.653.652a22.656,22.656,0,0,0,2.107-29.612Z" transform="translate(58.13 5.064)" fill="#f5cd62"/>
    <path id="Trazado_120548" data-name="Trazado 120548" d="M60.375,9.181C61.87,9.068,63.388,9,64.906,9s3.036.068,4.531.181a58.387,58.387,0,0,1,32.33,12.8,57.141,57.141,0,0,1,9.062,9.062,58.818,58.818,0,0,1-3.172,77.348,56.882,56.882,0,0,1-12.506,10.037,58.756,58.756,0,0,1-60.492,0,56.882,56.882,0,0,1-12.506-10.037,58.818,58.818,0,0,1-3.172-77.348,57.141,57.141,0,0,1,9.062-9.062,58.387,58.387,0,0,1,32.33-12.8Zm49.844,58.725a45.312,45.312,0,1,0-45.312,45.312,45.312,45.312,0,0,0,45.312-45.312Z" transform="translate(7.594 11.391)" fill="#65b1fc"/>
    <g id="Grupo_88781" data-name="Grupo 88781" transform="translate(27.188 33.984)">
      <path id="Trazado_120549" data-name="Trazado 120549" d="M31,15h4.531v9.062H31Z" transform="translate(12.047 -15)" fill="#afb4c8"/>
      <path id="Trazado_120550" data-name="Trazado 120550" d="M31,51h4.531v9.062H31Z" transform="translate(12.047 30.562)" fill="#afb4c8"/>
      <path id="Trazado_120551" data-name="Trazado 120551" d="M48,34h9.062v4.531H48Z" transform="translate(33.562 9.047)" fill="#afb4c8"/>
      <path id="Trazado_120552" data-name="Trazado 120552" d="M12,34h9.062v4.531H12Z" transform="translate(-12 9.047)" fill="#afb4c8"/>
      <path id="Trazado_120553" data-name="Trazado 120553" d="M0,0H9.065V4.531H0Z" transform="translate(69.326 18.085) rotate(-45)" fill="#afb4c8"/>
      <path id="Trazado_120554" data-name="Trazado 120554" d="M0,0H9.065V4.531H0Z" transform="translate(11.654 75.745) rotate(-45)" fill="#afb4c8"/>
      <path id="Trazado_120555" data-name="Trazado 120555" d="M0,0H4.531V9.065H0Z" transform="translate(69.322 72.534) rotate(-45)" fill="#afb4c8"/>
      <path id="Trazado_120556" data-name="Trazado 120556" d="M0,0H4.531V9.065H0Z" transform="translate(11.66 14.867) rotate(-45)" fill="#afb4c8"/>
    </g>
    <path id="Trazado_120557" data-name="Trazado 120557" d="M40.328,33.737a6.661,6.661,0,0,1,2.266,5.052,6.8,6.8,0,1,1-2.266-5.052Z" transform="translate(36.703 40.507)" fill="#cdd2e1"/>
    <path id="Trazado_120558" data-name="Trazado 120558" d="M39.062,26.531V46.4A6.756,6.756,0,0,0,30,46.4V26.531a4.531,4.531,0,1,1,9.062,0Z" transform="translate(37.969 27.844)" fill="#d99668"/>
    <path id="Trazado_120559" data-name="Trazado 120559" d="M38.8,35,51.258,47.461a4.806,4.806,0,1,1-6.8,6.8L32,41.8A6.8,6.8,0,0,0,38.8,35Z" transform="translate(40.5 44.297)" fill="#d99668"/>
    <path id="Trazado_120560" data-name="Trazado 120560" d="M62.375,11A54.375,54.375,0,1,0,116.75,65.375,54.375,54.375,0,0,0,62.375,11Zm0,99.687a45.312,45.312,0,1,1,45.312-45.312,45.312,45.312,0,0,1-45.312,45.312Z" transform="translate(10.125 13.922)" fill="#4a98f7"/>
    <path id="Trazado_120561" data-name="Trazado 120561" d="M58.578,14a47.578,47.578,0,1,0,47.578,47.578A47.578,47.578,0,0,0,58.578,14Zm42.931,49.844A42.8,42.8,0,0,1,90.523,90.324l-4.715-4.717L82.6,88.813l4.722,4.71a42.8,42.8,0,0,1-26.481,10.986V97.828H56.312v6.681A42.8,42.8,0,0,1,29.832,93.523l4.717-4.715L31.343,85.6l-4.71,4.722A42.8,42.8,0,0,1,15.647,63.844h6.681V59.312H15.647A42.8,42.8,0,0,1,26.633,32.832l4.715,4.717,3.206-3.206-4.722-4.71A42.8,42.8,0,0,1,56.312,18.647v6.681h4.531V18.647A42.8,42.8,0,0,1,87.324,29.633l-4.717,4.715,3.206,3.206,4.71-4.722a42.8,42.8,0,0,1,10.986,26.481H94.828v4.531Z" transform="translate(13.922 17.719)"/>
    <path id="Trazado_120562" data-name="Trazado 120562" d="M46.019,51.674a8.979,8.979,0,0,0-2.159-4.887V27.8a6.8,6.8,0,1,0-13.594,0v18.99a8.976,8.976,0,0,0,5.752,14.887l11.9,11.9a7.071,7.071,0,1,0,10-10ZM37.063,25.531A2.266,2.266,0,0,1,39.328,27.8V43.978a8.138,8.138,0,0,0-4.531,0V27.8A2.266,2.266,0,0,1,37.063,25.531ZM32.532,52.719a4.531,4.531,0,1,1,4.531,4.531A4.531,4.531,0,0,1,32.532,52.719ZM54.719,70.375a2.544,2.544,0,0,1-3.593,0l-9.742-9.742a9.076,9.076,0,0,0,3.593-3.593l9.742,9.742a2.538,2.538,0,0,1,0,3.593Z" transform="translate(35.437 26.578)"/>
    <path id="Trazado_120563" data-name="Trazado 120563" d="M144.336,15.2a2.266,2.266,0,0,0,0-3.2L139.8,7.461a2.266,2.266,0,0,0-3.2,0l-3.219,3.219A24.842,24.842,0,0,0,102.456,14.1a2.266,2.266,0,0,0,0,3.2l9.887,9.887-3.172,3.172A60.852,60.852,0,0,0,79.3,18.512V13.594h4.531A6.8,6.8,0,1,0,83.828,0H61.172a6.8,6.8,0,1,0,0,13.594H65.7v4.919a60.852,60.852,0,0,0-29.87,11.847l-3.172-3.172L42.548,17.3a2.266,2.266,0,0,0,0-3.2,24.842,24.842,0,0,0-30.93-3.417L8.4,7.461a2.266,2.266,0,0,0-3.2,0L.664,11.992a2.266,2.266,0,0,0,0,3.2l3.219,3.219A24.843,24.843,0,0,0,7.3,49.341a2.266,2.266,0,0,0,3.2,0l9.887-9.887,3.172,3.172a61.036,61.036,0,0,0,3.364,77.423L16.1,141.721A2.266,2.266,0,0,0,18.125,145h9.062a2.265,2.265,0,0,0,1.475-.546l13.85-11.872a60.945,60.945,0,0,0,59.975,0l13.85,11.872a2.266,2.266,0,0,0,1.475.546h9.062a2.266,2.266,0,0,0,2.039-3.278L118.08,120.053a61.036,61.036,0,0,0,3.358-77.423l3.172-3.172,9.887,9.887a2.266,2.266,0,0,0,3.2,0,24.842,24.842,0,0,0,3.417-30.926ZM138.2,12.266l1.328,1.328L138.325,14.8q-.643-.68-1.328-1.328ZM58.906,6.8a2.266,2.266,0,0,1,2.266-2.266H83.828a2.266,2.266,0,0,1,0,4.531H61.172A2.266,2.266,0,0,1,58.906,6.8Zm11.328,6.8h4.531v4.588c-.752-.027-1.507-.057-2.266-.057s-1.513.029-2.266.057Zm-64.765,0L6.8,12.266,8,13.471q-.68.643-1.328,1.328ZM8.988,44.447A20.391,20.391,0,0,1,37.65,15.787Zm14.606-8.2,5.859-5.859,2.852,2.852A61.638,61.638,0,0,0,26.447,39.1Zm2.755,104.218H21.791L30.278,123.5a61.587,61.587,0,0,0,8.177,6.6Zm92.3,0-12.105-10.377a61.588,61.588,0,0,0,8.177-6.6l8.487,16.972ZM72.5,135.937A56.64,56.64,0,1,1,129.14,79.3,56.64,56.64,0,0,1,72.5,135.937ZM118.553,39.1a61.64,61.64,0,0,0-5.859-5.859l2.852-2.852,5.859,5.859Zm17.459,5.345L107.35,15.787a20.391,20.391,0,0,1,28.662,28.66Z" transform="translate(0 0)"/>
  </g>
</svg>
