<svg xmlns="http://www.w3.org/2000/svg" xmlns:xlink="http://www.w3.org/1999/xlink" width="100" height="99" viewBox="0 0 100 99">
  <defs>
    <clipPath id="clip-path">
      <rect id="Rectángulo_35159" data-name="Rectángulo 35159" width="90" height="99" transform="translate(237 4419)" fill="#fff"/>
    </clipPath>
  </defs>
  <g id="_17" data-name="17" transform="translate(-237 -5148)">
    <circle id="Elipse_4817" data-name="Elipse 4817" cx="36" cy="36" r="36" transform="translate(265 5148)" fill="#6b8dff"/>
    <g id="Enmascarar_grupo_110" data-name="Enmascarar grupo 110" transform="translate(0 729)" clip-path="url(#clip-path)">
      <g id="casa-de-campo" transform="translate(237 4423.5)">
        <path id="Trazado_121295" data-name="Trazado 121295" d="M31.274,48.955h16.25v8.631H31.274Z" fill="#7a6d79"/>
        <path id="Trazado_121296" data-name="Trazado 121296" d="M31.274,59.885H7.368V31.729l11.953-6.24,11.953,6.24Z" fill="#918291"/>
        <path id="Trazado_121297" data-name="Trazado 121297" d="M19.321,25.488l-5.7,2.973L26,35.064V59.885h5.273V31.729Z" fill="#7a6d79"/>
        <circle id="Elipse_4857" data-name="Elipse 4857" cx="4.219" cy="4.219" r="4.219" transform="translate(15.102 34.409)" fill="#fff9df"/>
        <path id="Trazado_121298" data-name="Trazado 121298" d="M34.174,30.253l-13.635-7.1a2.636,2.636,0,0,0-2.436,0l-13.635,7.1A2.637,2.637,0,1,0,6.9,34.93l12.417-6.469L31.738,34.93a2.637,2.637,0,1,0,2.436-4.677Z" fill="#fe7d43"/>
        <path id="Trazado_121299" data-name="Trazado 121299" d="M61.592,17.855H17.3a.527.527,0,0,1-.52-.609,4.862,4.862,0,0,1,5.613-4.023,6.483,6.483,0,0,1,8.425-5.1,7.9,7.9,0,0,1,15.732,1.1,8.023,8.023,0,0,1-.06.967,5.774,5.774,0,0,1,8.8,3.4,4.872,4.872,0,0,1,6.828,3.653A.527.527,0,0,1,61.592,17.855Z" fill="#eaf9fa"/>
        <path id="Trazado_121300" data-name="Trazado 121300" d="M62.113,17.246a4.872,4.872,0,0,0-6.828-3.653,5.774,5.774,0,0,0-8.8-3.4,8.021,8.021,0,0,0,.06-.967A7.9,7.9,0,0,0,34.419,2.541a7.909,7.909,0,0,1,5.546,7.548V10.1a.54.54,0,0,0,.768.493,5.779,5.779,0,0,1,7.815,3.336.532.532,0,0,0,.667.326,4.872,4.872,0,0,1,6.269,3.595h6.108a.526.526,0,0,0,.52-.609Z" fill="#dcf5f8"/>
        <path id="Trazado_121301" data-name="Trazado 121301" d="M85.869,88.682H4.131a2.813,2.813,0,1,1,0-5.625H85.869a2.813,2.813,0,0,1,0,5.625Z" fill="#22b37f"/>
        <path id="Trazado_121302" data-name="Trazado 121302" d="M85.869,83.057H80.6a2.813,2.813,0,0,1,0,5.625h5.273a2.813,2.813,0,0,0,0-5.625Z" fill="#09a76d"/>
        <path id="Trazado_121303" data-name="Trazado 121303" d="M47.2,83.057H7.471V60.875l19.863-11.92L47.2,60.875Z" fill="#918291"/>
        <path id="Trazado_121304" data-name="Trazado 121304" d="M27.334,48.955,22.926,51.6l19,11.4V83.057H47.2V60.875Z" fill="#7a6d79"/>
        <path id="Trazado_121305" data-name="Trazado 121305" d="M25.225,83.057H14.678V66.709a.7.7,0,0,1,.7-.7h9.141a.7.7,0,0,1,.7.7Z" fill="#fff9df"/>
        <path id="Trazado_121306" data-name="Trazado 121306" d="M40.164,74.531H31.023a.7.7,0,0,1-.7-.7V66.709a.7.7,0,0,1,.7-.7h9.141a.7.7,0,0,1,.7.7v7.119A.7.7,0,0,1,40.164,74.531Z" fill="#fff9df"/>
        <path id="Trazado_121307" data-name="Trazado 121307" d="M52.046,60.215,28.668,46.5A2.637,2.637,0,0,0,26,46.5L2.622,60.215a2.637,2.637,0,1,0,2.668,4.549L27.334,51.836,49.379,64.764a2.637,2.637,0,1,0,2.667-4.549Z" fill="#fe7d43"/>
        <path id="Trazado_121308" data-name="Trazado 121308" d="M83.657,49.226c0,12.985-6.068,19.442-13.553,19.442S56.551,62.211,56.551,49.226,62.619,21.643,70.1,21.643,83.657,36.24,83.657,49.226Z" fill="#ffd15b"/>
        <path id="Trazado_121309" data-name="Trazado 121309" d="M70.1,21.643a6.229,6.229,0,0,0-2.637.61c6.223,2.888,10.917,15.553,10.917,26.973S73.69,67.013,67.467,68.383a12.237,12.237,0,0,0,2.637.284c7.485,0,13.553-6.456,13.553-19.442S77.589,21.643,70.1,21.643Z" fill="#ffc344"/>
        <path id="Trazado_121310" data-name="Trazado 121310" d="M47.2,74.443h36.46v8.613H47.2Z" fill="#dd7f66"/>
        <g id="Grupo_89200" data-name="Grupo 89200">
          <path id="Trazado_121311" data-name="Trazado 121311" d="M19.322,33.091a5.537,5.537,0,1,0,5.537,5.537A5.543,5.543,0,0,0,19.322,33.091Zm0,8.438a2.9,2.9,0,1,1,2.9-2.9A2.9,2.9,0,0,1,19.322,41.528Z"/>
          <path id="Trazado_121312" data-name="Trazado 121312" d="M17.3,19.173h44.3a1.845,1.845,0,0,0,1.822-2.136,6.2,6.2,0,0,0-7.321-5.082,7.1,7.1,0,0,0-8.291-3.8A9.222,9.222,0,0,0,29.814,6.552a7.805,7.805,0,0,0-8.441,5.289,6.158,6.158,0,0,0-5.9,5.2A1.845,1.845,0,0,0,17.3,19.173Zm4.288-4.7a3.565,3.565,0,0,1,.586.05,1.318,1.318,0,0,0,1.519-1.085A5.164,5.164,0,0,1,30.4,9.38a1.318,1.318,0,0,0,1.719-1.071,6.586,6.586,0,0,1,13.108.915,6.768,6.768,0,0,1-.05.808,1.319,1.319,0,0,0,2.042,1.255,4.456,4.456,0,0,1,6.788,2.625,1.318,1.318,0,0,0,1.826.88,3.558,3.558,0,0,1,4.7,1.744H18.355a3.535,3.535,0,0,1,3.23-2.063Z"/>
          <path id="Trazado_121313" data-name="Trazado 121313" d="M85.869,81.738h-.894V74.443a1.318,1.318,0,0,0-1.318-1.318H71.8V69.879a13.146,13.146,0,0,0,8.934-5.267c2.772-3.659,4.237-8.979,4.237-15.386A48.191,48.191,0,0,0,81.46,31.317a1.318,1.318,0,1,0-2.433,1.017,45.463,45.463,0,0,1,3.312,16.892c0,5.828-1.28,10.6-3.7,13.794a10.436,10.436,0,0,1-6.832,4.2V52.113h1.387a2.436,2.436,0,0,0,1.734-.718L76.521,49.8a1.318,1.318,0,0,0-1.865-1.865l-1.541,1.541H71.8V37.824a1.318,1.318,0,0,0-2.637,0V39.89h-.451L67.1,38.277a1.318,1.318,0,1,0-1.864,1.865l1.65,1.65a2.5,2.5,0,0,0,1.776.736h.5v13.09H66.534a.732.732,0,0,1-.624-.353l-1.764-2.933a1.318,1.318,0,1,0-2.259,1.359l1.764,2.933a3.382,3.382,0,0,0,2.883,1.631h2.634v9.053a10.4,10.4,0,0,1-7.6-4.287c-2.422-3.2-3.7-7.967-3.7-13.794a45.074,45.074,0,0,1,3.847-18.1c2.412-5.185,5.469-8.159,8.388-8.159,2.6,0,4.775,2.3,6.142,4.223A1.318,1.318,0,0,0,78.4,25.659c-2.476-3.49-5.344-5.334-8.292-5.334-8.512,0-14.871,15.258-14.871,28.9,0,6.407,1.465,11.728,4.237,15.386a13.12,13.12,0,0,0,9.7,5.341v3.172H48.516V65.786l.2.115a3.955,3.955,0,1,0,4-6.823l-3.871-2.27V48.955a1.318,1.318,0,0,0-1.318-1.318H46.267V44.165h1.327a1.318,1.318,0,0,0,0-2.637h-15v-5c.12.011.241.019.362.019a3.955,3.955,0,0,0,1.83-7.463l-13.635-7.1a3.957,3.957,0,0,0-3.655,0l-3.329,1.734a1.318,1.318,0,0,0,1.218,2.338l3.329-1.734a1.319,1.319,0,0,1,1.218,0l13.635,7.1a1.319,1.319,0,0,1-.611,2.488,1.3,1.3,0,0,1-.607-.15l-.429-.223-.052-.027L19.931,27.292a1.319,1.319,0,0,0-1.218,0L6.785,33.506l-.066.034-.424.221a1.318,1.318,0,0,1-1.218-2.338L9.927,28.9a1.318,1.318,0,0,0-1.218-2.338l-4.85,2.527A3.955,3.955,0,0,0,6.05,36.529V56.677l-4.094,2.4a3.955,3.955,0,1,0,4,6.823l.2-.115V81.738H4.132a4.131,4.131,0,0,0,0,8.262H54.919a1.318,1.318,0,1,0,0-2.637H4.132a1.494,1.494,0,0,1,0-2.988H85.869a1.494,1.494,0,0,1,0,2.988H61A1.318,1.318,0,0,0,61,90H85.869a4.131,4.131,0,0,0,0-8.262ZM37.7,50.273h8.506v4.988Zm5.93-2.637H39.164V44.165H43.63Zm-7.1-3.472v3.472h-3.25c-.023,0-.045,0-.067,0l-.618-.362V44.165ZM8.687,35.488l10.635-5.54,10.634,5.54V45.731l-.62-.364a3.961,3.961,0,0,0-4,0L8.687,55.131V35.488ZM4.624,63.627A1.318,1.318,0,1,1,3.29,61.353L26.668,47.642a1.319,1.319,0,0,1,1.334,0L51.38,61.353a1.318,1.318,0,0,1,.47,1.8,1.325,1.325,0,0,1-1.14.652,1.3,1.3,0,0,1-.664-.182L28,50.7a1.319,1.319,0,0,0-1.334,0Zm4.166.613L27.335,53.364,45.88,64.24v17.5H26.544V66.709a2.024,2.024,0,0,0-2.021-2.021h-9.14a2.024,2.024,0,0,0-2.021,2.021V81.738H8.79ZM16,81.738V67.324h7.91V81.738Zm32.519,0V75.762H82.339v5.977Z"/>
          <path id="Trazado_121314" data-name="Trazado 121314" d="M31.024,75.85h9.14a2.024,2.024,0,0,0,2.021-2.021V66.709a2.024,2.024,0,0,0-2.021-2.021h-9.14A2.024,2.024,0,0,0,29,66.709v7.119a2.024,2.024,0,0,0,2.021,2.021Zm8.525-2.637H36.912V67.324h2.637Zm-7.91-5.889h2.637v5.889H31.639Z"/>
        </g>
      </g>
    </g>
  </g>
</svg>
