<svg xmlns="http://www.w3.org/2000/svg" xmlns:xlink="http://www.w3.org/1999/xlink" width="100" height="99" viewBox="0 0 100 99">
  <defs>
    <clipPath id="clip-path">
      <rect id="Rectángulo_35161" data-name="Rectángulo 35161" width="90" height="99" transform="translate(237 4832)" fill="#fff"/>
    </clipPath>
  </defs>
  <g id="_19" data-name="19" transform="translate(-237 -5561)">
    <circle id="Elipse_4850" data-name="Elipse 4850" cx="36" cy="36" r="36" transform="translate(265 5561)" fill="#6b8dff"/>
    <g id="Enmascarar_grupo_112" data-name="Enmascarar grupo 112" transform="translate(0 729)" clip-path="url(#clip-path)">
      <g id="humano" transform="translate(235.548 4835.048)">
        <g id="Grupo_89291" data-name="Grupo 89291">
          <g id="Grupo_89247" data-name="Grupo 89247">
            <path id="Trazado_121361" data-name="Trazado 121361" d="M28.887,17.419H14.661a7.26,7.26,0,0,1,14.226,0Z" fill="#656d78"/>
          </g>
          <g id="Grupo_89248" data-name="Grupo 89248">
            <path id="Trazado_121362" data-name="Trazado 121362" d="M53.565,8.71H39.339a7.26,7.26,0,0,1,14.226,0Z" fill="#b27946"/>
          </g>
          <g id="Grupo_89249" data-name="Grupo 89249">
            <path id="Trazado_121363" data-name="Trazado 121363" d="M73.19,11.9a7.269,7.269,0,0,1,5.052,5.516H64.016a7.259,7.259,0,0,1,7.113-5.806A7.444,7.444,0,0,1,73.19,11.9Z" fill="#e6e9ed"/>
          </g>
          <g id="Grupo_89250" data-name="Grupo 89250">
            <path id="Trazado_121364" data-name="Trazado 121364" d="M84.194,14.516a5.8,5.8,0,0,1-5.806,5.806h-.145a7.331,7.331,0,0,0,0-2.9A7.269,7.269,0,0,0,73.19,11.9a5.814,5.814,0,0,1,11,2.613Z" fill="#e6e9ed"/>
          </g>
          <g id="Grupo_89251" data-name="Grupo 89251">
            <path id="Trazado_121365" data-name="Trazado 121365" d="M17.419,27.581a4.349,4.349,0,0,0,4.355,4.355H11.758a7.253,7.253,0,0,1,5.661-5.661Z" fill="#b4dd7f"/>
          </g>
          <g id="Grupo_89252" data-name="Grupo 89252">
            <path id="Trazado_121366" data-name="Trazado 121366" d="M31.892,32.618a15.414,15.414,0,0,0-1.132,3.644,8.746,8.746,0,0,0-7.534-4.326H21.774a4.361,4.361,0,0,0,4.355-4.355V26.274a7.266,7.266,0,0,1,5.763,6.344Z" fill="#b4dd7f"/>
          </g>
          <g id="Grupo_89253" data-name="Grupo 89253">
            <path id="Trazado_121367" data-name="Trazado 121367" d="M81.29,33.387v1.394a9.744,9.744,0,0,0-6.9-2.845H71.129a4.361,4.361,0,0,0,4.355-4.355V26.274A7.259,7.259,0,0,1,81.29,33.387Z" fill="#b4dd7f"/>
          </g>
          <g id="Grupo_89254" data-name="Grupo 89254">
            <path id="Trazado_121368" data-name="Trazado 121368" d="M71.129,31.935h-.363a9.77,9.77,0,0,0-8.506,4.95h-.015a15.709,15.709,0,0,0-1.234-4.268,7.266,7.266,0,0,1,5.763-6.344v1.306a4.349,4.349,0,0,0,4.355,4.355Z" fill="#b4dd7f"/>
          </g>
          <g id="Grupo_89255" data-name="Grupo 89255">
            <path id="Trazado_121369" data-name="Trazado 121369" d="M42.1,18.871a4.349,4.349,0,0,0,4.355,4.355A15.9,15.9,0,0,0,36.29,26.869V24.677A7.259,7.259,0,0,1,42.1,17.565Z" fill="#ff826e"/>
          </g>
          <g id="Grupo_89256" data-name="Grupo 89256">
            <path id="Trazado_121370" data-name="Trazado 121370" d="M56.613,24.677v2.192a15.9,15.9,0,0,0-10.161-3.644,4.361,4.361,0,0,0,4.355-4.355V17.565a7.23,7.23,0,0,1,5.806,7.113Z" fill="#ff826e"/>
          </g>
          <g id="Grupo_89257" data-name="Grupo 89257">
            <path id="Trazado_121371" data-name="Trazado 121371" d="M13.544,65.8l3.4,6.3,3.382,6.285V90H2.9V70.316A9.976,9.976,0,0,1,6.9,62.332a9.82,9.82,0,0,1,3.832-1.756Z" fill="#ff826e"/>
          </g>
          <g id="Grupo_89258" data-name="Grupo 89258">
            <path id="Trazado_121372" data-name="Trazado 121372" d="M26.129,78.387V90H20.323V78.387L23.226,73v3.934a1.456,1.456,0,0,0,1.452,1.452Z" fill="#ff826e"/>
          </g>
          <g id="Grupo_89259" data-name="Grupo 89259">
            <path id="Trazado_121373" data-name="Trazado 121373" d="M18.871,68.226H23.7a15.129,15.129,0,0,0-.479,3.745V73l-2.9,5.385L16.94,72.1Z" fill="#e6e9ed"/>
          </g>
          <g id="Grupo_89260" data-name="Grupo 89260">
            <path id="Trazado_121374" data-name="Trazado 121374" d="M20.323,62.419l4.79,2.4a14.045,14.045,0,0,0-1.394,3.411H18.871l-1.452-4.355Z" fill="#ccd1d9"/>
          </g>
          <g id="Grupo_89261" data-name="Grupo 89261">
            <path id="Trazado_121375" data-name="Trazado 121375" d="M18.871,68.226,16.94,72.1l-3.4-6.3,3.876-1.931Z" fill="#fcd770"/>
          </g>
          <g id="Grupo_89262" data-name="Grupo 89262">
            <path id="Trazado_121376" data-name="Trazado 121376" d="M24.677,59.516,29,60.387a14.216,14.216,0,0,0-3.89,4.427l-4.79-2.4Z" fill="#ffc729"/>
          </g>
          <g id="Grupo_89263" data-name="Grupo 89263">
            <path id="Trazado_121377" data-name="Trazado 121377" d="M20.323,62.419l-2.9,1.452L13.544,65.8l-2.816-5.226a1.07,1.07,0,0,1,.2-.058l5.037-1Z" fill="#ffc729"/>
          </g>
          <g id="Grupo_89264" data-name="Grupo 89264">
            <path id="Trazado_121378" data-name="Trazado 121378" d="M30.484,47.235a10.885,10.885,0,0,1-2.018,2.584l-1.031.987a6.84,6.84,0,0,0,.145-1.452V46.626a5.82,5.82,0,0,0-4.4-5.632l-.958-.232-.015-.015a4.958,4.958,0,0,1-3.3,1.96l-3.353.479a2.917,2.917,0,0,0-2.5,2.874v3.3a6.84,6.84,0,0,0,.145,1.452l-1.031-.987A11.087,11.087,0,0,1,8.71,41.734v-6.9a2.912,2.912,0,0,1,2.9-2.9H23.226a8.746,8.746,0,0,1,7.534,4.326,15.1,15.1,0,0,0-.276,2.932Z" fill="#b27946"/>
          </g>
          <g id="Grupo_89265" data-name="Grupo 89265">
            <path id="Trazado_121379" data-name="Trazado 121379" d="M79.839,46.06a2.917,2.917,0,0,0-2.5-2.874l-3.353-.479a4.958,4.958,0,0,1-3.3-1.96l-.015.015-.958.232a5.82,5.82,0,0,0-4.4,5.632v2.729a6.84,6.84,0,0,0,.145,1.452l-1.031-.987a10.885,10.885,0,0,1-2.018-2.584V39.194a15.158,15.158,0,0,0-.174-2.308h.015a9.77,9.77,0,0,1,8.506-4.95H74.4a9.813,9.813,0,0,1,9.8,9.8,11.087,11.087,0,0,1-3.469,8.085l-1.031.987a6.84,6.84,0,0,0,.145-1.452Z" fill="#b27946"/>
          </g>
          <g id="Grupo_89266" data-name="Grupo 89266">
            <path id="Trazado_121380" data-name="Trazado 121380" d="M84.194,90H72.581V78.387L75.963,72.1l3.4-6.3,2.816-5.226a9.95,9.95,0,0,1,6.765,5.269A10.034,10.034,0,0,1,90,70.316V90Z" fill="#e6e9ed"/>
          </g>
          <g id="Grupo_89267" data-name="Grupo 89267">
            <path id="Trazado_121381" data-name="Trazado 121381" d="M72.581,78.387V90H66.774V78.387h1.452a1.456,1.456,0,0,0,1.452-1.452V73Z" fill="#e6e9ed"/>
          </g>
          <g id="Grupo_89268" data-name="Grupo 89268">
            <path id="Trazado_121382" data-name="Trazado 121382" d="M74.032,68.226,75.963,72.1l-3.382,6.285L69.677,73V71.971a15.129,15.129,0,0,0-.479-3.745Z" fill="#fcd770"/>
          </g>
          <g id="Grupo_89269" data-name="Grupo 89269">
            <path id="Trazado_121383" data-name="Trazado 121383" d="M75.484,63.871l-1.452,4.355H69.184a14.045,14.045,0,0,0-1.394-3.411l4.79-2.4Z" fill="#ffc729"/>
          </g>
          <g id="Grupo_89270" data-name="Grupo 89270">
            <path id="Trazado_121384" data-name="Trazado 121384" d="M79.36,65.8l-3.4,6.3-1.931-3.876,1.452-4.355Z" fill="#ff826e"/>
          </g>
          <g id="Grupo_89271" data-name="Grupo 89271">
            <path id="Trazado_121385" data-name="Trazado 121385" d="M82.176,60.576,79.36,65.8l-3.876-1.931-2.9-1.452,4.355-2.9,5.037,1a1.069,1.069,0,0,1,.2.058Z" fill="#fc6e51"/>
          </g>
          <g id="Grupo_89272" data-name="Grupo 89272">
            <path id="Trazado_121386" data-name="Trazado 121386" d="M72.581,62.419l-4.79,2.4a14.216,14.216,0,0,0-3.89-4.427l4.326-.871Z" fill="#fc6e51"/>
          </g>
          <g id="Grupo_89273" data-name="Grupo 89273">
            <path id="Trazado_121387" data-name="Trazado 121387" d="M34.839,85.645V90h-8.71V78.387H32.24a17.421,17.421,0,0,0,.871,2.932Z" fill="#f0d0b4"/>
          </g>
          <g id="Grupo_89274" data-name="Grupo 89274">
            <path id="Trazado_121388" data-name="Trazado 121388" d="M66.774,78.387V90h-8.71V85.645l1.727-4.326a17.421,17.421,0,0,0,.871-2.932Z" fill="#f0d0b4"/>
          </g>
          <g id="Grupo_89275" data-name="Grupo 89275">
            <path id="Trazado_121389" data-name="Trazado 121389" d="M32.24,78.387H24.677a1.456,1.456,0,0,1-1.452-1.452V71.971a15.13,15.13,0,0,1,.479-3.745h.015a14.045,14.045,0,0,1,1.394-3.411A14.216,14.216,0,0,1,29,60.387a10.151,10.151,0,0,1,1.5-.973,14.591,14.591,0,0,1,5.037-1.785l1.2-.189,4.239,7.882,5.473,10.161V90H34.839V85.645l-1.727-4.326a17.421,17.421,0,0,1-.871-2.932Z" fill="#b4dd7f"/>
          </g>
          <g id="Grupo_89276" data-name="Grupo 89276">
            <path id="Trazado_121390" data-name="Trazado 121390" d="M60.663,78.387a17.421,17.421,0,0,1-.871,2.932l-1.727,4.326V90H46.452V75.484l5.473-10.161,4.239-7.882,1.2.189A14.591,14.591,0,0,1,62.4,59.415a10.151,10.151,0,0,1,1.5.973,14.216,14.216,0,0,1,3.89,4.427,14.045,14.045,0,0,1,1.394,3.411H69.2a15.13,15.13,0,0,1,.479,3.745v4.965a1.456,1.456,0,0,1-1.452,1.452H60.663Z" fill="#b4dd7f"/>
          </g>
          <g id="Grupo_89277" data-name="Grupo 89277">
            <path id="Trazado_121391" data-name="Trazado 121391" d="M51.924,65.323,46.452,75.484,40.979,65.323Z" fill="#ffeaa7"/>
          </g>
          <g id="Grupo_89278" data-name="Grupo 89278">
            <path id="Trazado_121392" data-name="Trazado 121392" d="M46.452,31.935a12.675,12.675,0,0,1-8.042,5.385l-2.119.421v5.806A10.167,10.167,0,0,0,42.1,52.723v.16a4.342,4.342,0,0,1-3.687,4.3l-1.669.261-1.2.189A14.591,14.591,0,0,0,30.5,59.415l-.015-.015V39.194a15.1,15.1,0,0,1,.276-2.932,15.414,15.414,0,0,1,1.132-3.644,15.985,15.985,0,0,1,24.721-5.748A15.11,15.11,0,0,1,57.745,27.9a15.963,15.963,0,0,1,3.266,4.718,15.709,15.709,0,0,1,1.234,4.268,15.157,15.157,0,0,1,.174,2.308V59.4l-.015.015a14.591,14.591,0,0,0-5.037-1.785l-1.2-.189-1.669-.261a4.342,4.342,0,0,1-3.687-4.3v-.044a9.868,9.868,0,0,0,5.806-8.985V37.742l-2.119-.421a12.724,12.724,0,0,1-8.042-5.385Z" fill="#656d78"/>
          </g>
          <g id="Grupo_89279" data-name="Grupo 89279">
            <path id="Trazado_121393" data-name="Trazado 121393" d="M26.129,26.274v1.306a4.355,4.355,0,0,1-8.71,0V26.274a6.84,6.84,0,0,1,1.452-.145h5.806a6.84,6.84,0,0,1,1.452.145Z" fill="#f0d0b4"/>
          </g>
          <g id="Grupo_89280" data-name="Grupo 89280">
            <path id="Trazado_121394" data-name="Trazado 121394" d="M28.887,17.419a6.84,6.84,0,0,1,.145,1.452,7.258,7.258,0,0,1-14.516,0,6.84,6.84,0,0,1,.145-1.452Z" fill="#f0d0b4"/>
          </g>
          <g id="Grupo_89281" data-name="Grupo 89281">
            <path id="Trazado_121395" data-name="Trazado 121395" d="M50.806,17.565v1.306a4.355,4.355,0,0,1-8.71,0V17.565a6.84,6.84,0,0,1,1.452-.145h5.806A6.84,6.84,0,0,1,50.806,17.565Z" fill="#f0d0b4"/>
          </g>
          <g id="Grupo_89282" data-name="Grupo 89282">
            <path id="Trazado_121396" data-name="Trazado 121396" d="M53.565,8.71a6.84,6.84,0,0,1,.145,1.452,7.258,7.258,0,1,1-14.516,0,6.84,6.84,0,0,1,.145-1.452Z" fill="#f0d0b4"/>
          </g>
          <g id="Grupo_89283" data-name="Grupo 89283">
            <path id="Trazado_121397" data-name="Trazado 121397" d="M75.484,26.274v1.306a4.355,4.355,0,0,1-8.71,0V26.274a6.84,6.84,0,0,1,1.452-.145h5.806a6.84,6.84,0,0,1,1.452.145Z" fill="#f0d0b4"/>
          </g>
          <g id="Grupo_89284" data-name="Grupo 89284">
            <path id="Trazado_121398" data-name="Trazado 121398" d="M78.242,20.323a7.259,7.259,0,0,1-14.371-1.452,6.84,6.84,0,0,1,.145-1.452H78.242a7.331,7.331,0,0,1,0,2.9Z" fill="#f0d0b4"/>
          </g>
          <g id="Grupo_89285" data-name="Grupo 89285">
            <path id="Trazado_121399" data-name="Trazado 121399" d="M72.581,56.613a7.121,7.121,0,0,0,3.411-.856l.944,3.76-4.355,2.9-4.355-2.9.944-3.76Z" fill="#f0d0b4"/>
          </g>
          <g id="Grupo_89286" data-name="Grupo 89286">
            <path id="Trazado_121400" data-name="Trazado 121400" d="M70.694,40.747a4.958,4.958,0,0,0,3.3,1.96l3.353.479a2.917,2.917,0,0,1,2.5,2.874v3.3a6.84,6.84,0,0,1-.145,1.452,7.233,7.233,0,0,1-3.7,4.95,7.121,7.121,0,0,1-3.411.856l-3.411-.856a7.051,7.051,0,0,1-1.727-1.263,7.324,7.324,0,0,1-1.974-3.687,6.84,6.84,0,0,1-.145-1.452V46.626a5.82,5.82,0,0,1,4.4-5.632l.958-.232Z" fill="#f0d0b4"/>
          </g>
          <g id="Grupo_89287" data-name="Grupo 89287">
            <path id="Trazado_121401" data-name="Trazado 121401" d="M24.677,59.516l-4.355,2.9-4.355-2.9.944-3.76a7.121,7.121,0,0,0,3.411.856l3.411-.856Z" fill="#f0d0b4"/>
          </g>
          <g id="Grupo_89288" data-name="Grupo 89288">
            <path id="Trazado_121402" data-name="Trazado 121402" d="M23.182,40.994a5.82,5.82,0,0,1,4.4,5.632v2.729a6.84,6.84,0,0,1-.145,1.452,7.324,7.324,0,0,1-1.974,3.687,7.051,7.051,0,0,1-1.727,1.263l-3.411.856a7.121,7.121,0,0,1-3.411-.856,7.233,7.233,0,0,1-3.7-4.95,6.84,6.84,0,0,1-.145-1.452v-3.3a2.917,2.917,0,0,1,2.5-2.874l3.353-.479a4.958,4.958,0,0,0,3.3-1.96l.015.015Z" fill="#f0d0b4"/>
          </g>
          <g id="Grupo_89289" data-name="Grupo 89289">
            <path id="Trazado_121403" data-name="Trazado 121403" d="M56.163,57.44l-4.239,7.882H40.979L36.74,57.44l1.669-.261a4.342,4.342,0,0,0,3.687-4.3v-.16a10.126,10.126,0,0,0,4.4.987h.261a9.7,9.7,0,0,0,4.05-.871v.044a4.342,4.342,0,0,0,3.687,4.3Z" fill="#f0d0b4"/>
          </g>
          <g id="Grupo_89290" data-name="Grupo 89290">
            <path id="Trazado_121404" data-name="Trazado 121404" d="M56.613,37.742v6.111a9.868,9.868,0,0,1-5.806,8.985,9.7,9.7,0,0,1-4.05.871H46.5a10.179,10.179,0,0,1-10.2-10.161V37.742l2.119-.421a12.675,12.675,0,0,0,8.042-5.385,12.724,12.724,0,0,0,8.042,5.385Z" fill="#f0d0b4"/>
          </g>
        </g>
        <g id="Grupo_89292" data-name="Grupo 89292">
          <path id="Trazado_121405" data-name="Trazado 121405" d="M86.878,61.165a11.529,11.529,0,0,0-4.62-2.066l-4.137-.827-.463-1.855a8.725,8.725,0,0,0,3.336-4.844l.737-.7a12.611,12.611,0,0,0,3.915-9.134,11.194,11.194,0,0,0-2.9-7.518v-.832a8.714,8.714,0,0,0-5.682-8.155,8.724,8.724,0,0,0,2.307-3.556A7.242,7.242,0,1,0,72.5,10.28a8.692,8.692,0,0,0-7.3,14.949,8.657,8.657,0,0,0-4.551,3.9,17.579,17.579,0,0,0-2.58-2.883V24.677a8.714,8.714,0,0,0-5.682-8.155,8.71,8.71,0,1,0-11.863,0,8.714,8.714,0,0,0-5.682,8.155v1.569a17.569,17.569,0,0,0-2.58,2.881,8.667,8.667,0,0,0-4.552-3.9,8.709,8.709,0,1,0-11.864,0,8.729,8.729,0,0,0-5.2,5.37,4.357,4.357,0,0,0-3.388,4.239v6.9a12.616,12.616,0,0,0,3.914,9.132l.739.7a8.73,8.73,0,0,0,3.336,4.844l-.463,1.855-4.137.827A11.439,11.439,0,0,0,1.452,70.315V91.452h90V70.315a11.5,11.5,0,0,0-4.574-9.15ZM28.735,51.574l.3-.285v7.287c-.131.084-.266.163-.393.251l-2.777-.555L25.4,56.418a8.73,8.73,0,0,0,3.336-4.844Zm-3.752,9.483.915.183a15.588,15.588,0,0,0-1.328,1.68l-1.359-.679Zm-5.065,5.716-.723-2.167,1.128-.565,2.832,1.415q-.285.645-.514,1.315H19.918Zm-3.346-.856.732,2.2-.415.83-1.351-2.51Zm3.2,3.76H21.95a16.349,16.349,0,0,0-.176,2.292v.659l-1.452,2.7-1.751-3.253Zm2.006,9.075.3-.557a2.9,2.9,0,0,0,2.6,1.643v8.71h-2.9Zm5.806,1.086H31.1a17.985,17.985,0,0,0,.655,2.013l1.629,4.072v2.625H27.581Zm6.873.935a14.921,14.921,0,0,1-.3-10.253l.613-1.836-2.752-.919L31.4,69.6a17.831,17.831,0,0,0-.913,5.634q0,.856.081,1.7H24.677V71.97A13,13,0,0,1,35.756,59.056l.186-.029L45,75.85v12.7H36.29V85.366Zm12-46.466a13.982,13.982,0,0,0,7.75,4.433l.96.192v4.92a8.416,8.416,0,0,1-8.4,8.406H46.5a8.745,8.745,0,0,1-8.759-8.713V38.932l.96-.192a13.982,13.982,0,0,0,7.75-4.433ZM43.245,54.692a11.706,11.706,0,0,0,3.256.469h.255a11.293,11.293,0,0,0,2.922-.4,5.746,5.746,0,0,0,4.253,3.765l-2.876,5.34H41.847l-2.876-5.34a5.739,5.739,0,0,0,4.274-3.838Zm3.207,17.73L43.41,66.774h6.082ZM47.9,75.851l9.06-16.823.186.029A12.994,12.994,0,0,1,68.226,71.97v4.966H62.34q.078-.845.08-1.7A17.792,17.792,0,0,0,61.5,69.6l-.613-1.836-2.752.919.611,1.835a14.912,14.912,0,0,1-.3,10.254l-1.836,4.593v3.182H47.9ZM63.871,51.29l.3.283A8.73,8.73,0,0,0,67.5,56.417l-.463,1.855-2.777.555c-.128-.089-.263-.167-.393-.251Zm9.115,15.484H70.262q-.229-.673-.514-1.315l2.832-1.417,1.128.565Zm-4.651-3.855a15.956,15.956,0,0,0-1.328-1.68l.915-.183,1.774,1.182ZM59.516,85.924l1.629-4.072a17.6,17.6,0,0,0,.655-2.013h3.523v8.71H59.516Zm8.71-6.085a2.9,2.9,0,0,0,2.6-1.643l.3.557v9.8h-2.9Zm4.355-4.515-1.452-2.7V71.97a16.132,16.132,0,0,0-.177-2.292h2.182l1.2,2.4Zm3.435-6.378-.415-.83.732-2.2,1.035.518ZM79.969,61.6l-1.225,2.275-3.276-1.639,1.774-1.182Zm-4.69-2.728-2.7,1.8-2.7-1.8.289-1.157a8.542,8.542,0,0,0,4.819,0Zm3.108-9.521a5.806,5.806,0,1,1-11.613,0V46.63a4.348,4.348,0,0,1,3.3-4.224l.119-.03a6.436,6.436,0,0,0,3.59,1.774l3.358.48a1.457,1.457,0,0,1,1.247,1.436Zm3.857-4.546a9.7,9.7,0,0,1-.954,2.021v-.764a4.374,4.374,0,0,0-3.738-4.31l-3.358-.48a3.586,3.586,0,0,1-3.066-3.533h-2.9a6.412,6.412,0,0,0,.351,2.093,7.247,7.247,0,0,0-4.706,6.795V39.194a17.389,17.389,0,0,0-.118-1.954,8.365,8.365,0,0,1,7.016-3.853h3.623a8.359,8.359,0,0,1,8.35,8.35,9.676,9.676,0,0,1-.5,3.072ZM74.032,27.581a2.9,2.9,0,1,1-5.806,0Zm5.545,4.179a11.157,11.157,0,0,0-3.525-1.14,5.741,5.741,0,0,0,.8-2.275A5.792,5.792,0,0,1,79.577,31.76Zm-8.448-7.082a5.812,5.812,0,0,1-5.806-5.806H76.935A5.812,5.812,0,0,1,71.129,24.677Zm7.258-14.516a4.334,4.334,0,0,1,1.437,8.43,8.707,8.707,0,0,0-4.381-7.275A4.332,4.332,0,0,1,78.387,10.161Zm-7.258,2.9a5.788,5.788,0,0,1,5,2.9h-10A5.783,5.783,0,0,1,71.129,13.065ZM65.4,28.33a5.75,5.75,0,0,0,1.285,2.941,11.333,11.333,0,0,0-3.729,2.388c-.136-.406-.276-.81-.441-1.2A5.765,5.765,0,0,1,65.4,28.33ZM55.1,24.1A17.313,17.313,0,0,0,51.026,22.4a5.738,5.738,0,0,0,1.154-2.768A5.778,5.778,0,0,1,55.1,24.1ZM43.548,18.871h5.806a2.9,2.9,0,1,1-5.806,0Zm2.9-2.9a5.812,5.812,0,0,1-5.806-5.806H52.258A5.812,5.812,0,0,1,46.452,15.968Zm0-11.613a5.788,5.788,0,0,1,5,2.9h-10A5.783,5.783,0,0,1,46.452,4.355Zm-5.73,15.281A5.738,5.738,0,0,0,41.876,22.4,17.313,17.313,0,0,0,37.8,24.1a5.782,5.782,0,0,1,2.922-4.459Zm5.73,5.041A14.533,14.533,0,0,1,60.968,39.194V57.1a16.18,16.18,0,0,0-3.378-.915l-2.87-.441a2.88,2.88,0,0,1-2.347-2.093,11.308,11.308,0,0,0,5.69-9.8v-7.3l-3.294-.659A11.086,11.086,0,0,1,47.9,31.459V27.581H45v3.879a11.094,11.094,0,0,1-6.868,4.433l-3.292.659v6.994a11.6,11.6,0,0,0,5.727,9.98,2.881,2.881,0,0,1-2.382,2.221l-2.87.441a16.18,16.18,0,0,0-3.378.915V39.194A14.533,14.533,0,0,1,46.452,24.677ZM30.39,32.457c-.1.244-.181.5-.274.746a10.213,10.213,0,0,0-3.694-2.177,5.741,5.741,0,0,0,1.083-2.7,5.756,5.756,0,0,1,2.886,4.128ZM18.871,27.581h5.806a2.9,2.9,0,1,1-5.806,0Zm2.9-2.9a5.812,5.812,0,0,1-5.806-5.806H27.581A5.812,5.812,0,0,1,21.774,24.677Zm0-11.613a5.788,5.788,0,0,1,5,2.9h-10A5.783,5.783,0,0,1,21.774,13.065ZM16.043,28.324a5.735,5.735,0,0,0,.733,2.16H13.853A5.826,5.826,0,0,1,16.043,28.324ZM10.659,44.807a9.66,9.66,0,0,1-.5-3.07v-6.9a1.453,1.453,0,0,1,1.452-1.452H23.226a7.282,7.282,0,0,1,6.018,3.228,17.548,17.548,0,0,0-.212,2.578V46.63a7.246,7.246,0,0,0-4.706-6.8,6.412,6.412,0,0,0,.351-2.093h-2.9a3.588,3.588,0,0,1-3.064,3.535l-3.358.48a4.373,4.373,0,0,0-3.739,4.308v.764a9.716,9.716,0,0,1-.954-2.022Zm3.857,1.259a1.459,1.459,0,0,1,1.245-1.437l3.358-.48a6.45,6.45,0,0,0,3.59-1.774l.12.03a4.351,4.351,0,0,1,3.3,4.226v2.725a5.806,5.806,0,1,1-11.613,0Zm5.806,12a8.641,8.641,0,0,0,2.41-.347l.289,1.157-2.7,1.8-2.7-1.8.289-1.157A8.641,8.641,0,0,0,20.323,58.065Zm-4.66,2.993,1.774,1.182L14.16,63.878,12.934,61.6ZM4.355,70.315a8.471,8.471,0,0,1,5.654-8.02l8.862,16.46v9.794h-8.71V72.581h-2.9V88.548h-2.9ZM88.548,88.548h-2.9V72.581h-2.9V88.548h-8.71V78.754L82.894,62.3a8.466,8.466,0,0,1,5.654,8.019Z"/>
          <path id="Trazado_121406" data-name="Trazado 121406" d="M46.452,49.355a6.114,6.114,0,0,0,5.5-3.4l.152-.306-2.6-1.3-.152.308a3.246,3.246,0,0,1-5.806,0l-.152-.306-2.6,1.3.152.3A6.114,6.114,0,0,0,46.452,49.355Z"/>
        </g>
      </g>
    </g>
  </g>
</svg>
