<svg xmlns="http://www.w3.org/2000/svg" width="502.85" height="420.243" viewBox="0 0 502.85 420.243">
  <g id="Grupo_93371" data-name="Grupo 93371" transform="translate(-940.691 -141.307)">
    <g id="Grupo_81064" data-name="Grupo 81064" transform="translate(963.739 8.786) rotate(32)">
      <g id="Grupo_81059" data-name="Grupo 81059" transform="translate(119.183 107.796)">
        <g id="Grupo_81053" data-name="Grupo 81053" transform="translate(1.599 1.599)" style="mix-blend-mode: overlay;isolation: isolate">
          <path id="Trazado_114995" data-name="Trazado 114995" d="M157.094,131.323l5.527,22.544-40.067,13.726Z" transform="translate(-121.881 -121.914)" fill="#3c384f"/>
          <path id="Trazado_114996" data-name="Trazado 114996" d="M122.229,167.941a.674.674,0,0,1-.488-1.139l34.539-36.271a.674.674,0,0,1,1.143.3l5.528,22.544a.674.674,0,0,1-.436.8L122.447,167.9A.666.666,0,0,1,122.229,167.941Zm34.178-35.587-31.789,33.382L161.494,153.1Z" transform="translate(-121.555 -121.588)" fill="#3c384f"/>
          <path id="Trazado_114997" data-name="Trazado 114997" d="M161.243,136.349l-38.688,32.882,53.6-21.956Z" transform="translate(-121.881 -123.552)" fill="#3c384f"/>
          <path id="Trazado_114998" data-name="Trazado 114998" d="M122.229,169.579a.674.674,0,0,1-.437-1.188l38.688-32.882a.675.675,0,0,1,.835-.03l14.915,10.926a.674.674,0,0,1-.143,1.168l-53.6,21.956A.669.669,0,0,1,122.229,169.579Zm38.719-32.7-35.056,29.794,48.571-19.894Z" transform="translate(-121.555 -123.226)" fill="#3c384f"/>
          <path id="Trazado_114999" data-name="Trazado 114999" d="M157.094,127.1l-34.539,36.27,22.734-45Z" transform="translate(-121.881 -117.692)" fill="#3c384f"/>
          <path id="Trazado_115000" data-name="Trazado 115000" d="M122.228,163.719a.674.674,0,0,1-.6-.978l22.734-45a.675.675,0,0,1,1-.238l11.805,8.734a.674.674,0,0,1,.087,1.006L122.717,163.51A.673.673,0,0,1,122.228,163.719ZM145.2,119.057l-20.315,40.216,30.864-32.411Z" transform="translate(-121.555 -117.366)" fill="#3c384f"/>
          <path id="Trazado_115001" data-name="Trazado 115001" d="M149.335,131.49q-2.838,5.875-5.987,11.591c-.419.76.745,1.441,1.164.68q3.148-5.714,5.987-11.59C150.875,131.393,149.713,130.709,149.335,131.49Z" transform="translate(-128.628 -121.856)" fill="#3c384f"/>
          <path id="Trazado_115002" data-name="Trazado 115002" d="M149.5,145.27a.686.686,0,0,0-.31-.4.679.679,0,0,0-.519-.068.665.665,0,0,0-.4.31l-.687,1.437a.721.721,0,0,0-.068.519.686.686,0,0,0,.31.4.679.679,0,0,0,.519.068.663.663,0,0,0,.4-.31l.687-1.437A.721.721,0,0,0,149.5,145.27Z" transform="translate(-130.006 -126.297)" fill="#3c384f"/>
          <path id="Trazado_115003" data-name="Trazado 115003" d="M180.418,152.878q-6.571,2.839-13.082,5.813c-.788.36-.1,1.522.68,1.164q6.511-2.974,13.082-5.813C181.893,153.7,181.207,152.537,180.418,152.878Z" transform="translate(-136.36 -128.919)" fill="#3c384f"/>
        </g>
        <g id="Grupo_81058" data-name="Grupo 81058">
          <g id="Grupo_81057" data-name="Grupo 81057">
            <g id="Grupo_81054" data-name="Grupo 81054" transform="translate(0 8.735)">
              <path id="Trazado_115004" data-name="Trazado 115004" d="M154.723,128.951,160.25,151.5l-40.067,13.727Z" transform="translate(-119.509 -128.277)" fill="#fff"/>
              <path id="Trazado_115005" data-name="Trazado 115005" d="M119.857,165.57a.675.675,0,0,1-.488-1.139l34.54-36.27a.674.674,0,0,1,1.143.3l5.528,22.544a.674.674,0,0,1-.436.8l-40.067,13.727A.685.685,0,0,1,119.857,165.57Zm34.178-35.588-31.789,33.383,36.877-12.634Z" transform="translate(-119.183 -127.952)"/>
            </g>
            <g id="Grupo_81055" data-name="Grupo 81055" transform="translate(0 12.123)">
              <path id="Trazado_115006" data-name="Trazado 115006" d="M158.872,133.978,120.183,166.86l53.6-21.956Z" transform="translate(-119.509 -133.304)" fill="#fff"/>
              <path id="Trazado_115007" data-name="Trazado 115007" d="M119.858,167.208a.674.674,0,0,1-.437-1.188l38.688-32.883a.675.675,0,0,1,.835-.03l14.915,10.925a.674.674,0,0,1-.143,1.168l-53.6,21.957A.666.666,0,0,1,119.858,167.208Zm38.718-32.7L123.521,164.3l48.571-19.9Z" transform="translate(-119.183 -132.978)"/>
            </g>
            <g id="Grupo_81056" data-name="Grupo 81056">
              <path id="Trazado_115008" data-name="Trazado 115008" d="M154.723,124.729,120.183,161l22.734-45Z" transform="translate(-119.509 -115.32)" fill="#fff"/>
              <path id="Trazado_115009" data-name="Trazado 115009" d="M119.857,161.348a.674.674,0,0,1-.6-.978l22.734-45a.673.673,0,0,1,1-.238l11.806,8.734a.675.675,0,0,1,.087,1.007l-34.539,36.27A.674.674,0,0,1,119.857,161.348Zm22.975-44.662L122.518,156.9l30.864-32.411Z" transform="translate(-119.183 -114.994)"/>
            </g>
            <path id="Trazado_115010" data-name="Trazado 115010" d="M146.963,129.119q-2.838,5.874-5.987,11.591c-.419.76.745,1.441,1.164.68q3.148-5.714,5.987-11.59C148.5,129.022,147.341,128.337,146.963,129.119Z" transform="translate(-126.256 -119.485)"/>
            <path id="Trazado_115011" data-name="Trazado 115011" d="M147.126,142.9a.688.688,0,0,0-.31-.4.681.681,0,0,0-.52-.068.663.663,0,0,0-.4.309q-.344.719-.687,1.437a.721.721,0,0,0-.068.519.688.688,0,0,0,.309.4.681.681,0,0,0,.52.068.666.666,0,0,0,.4-.31l.688-1.437A.726.726,0,0,0,147.126,142.9Z" transform="translate(-127.635 -123.926)"/>
            <path id="Trazado_115012" data-name="Trazado 115012" d="M178.047,150.507q-6.571,2.838-13.082,5.813c-.789.36-.1,1.522.68,1.164q6.511-2.973,13.082-5.813C179.521,151.327,178.836,150.166,178.047,150.507Z" transform="translate(-133.989 -126.547)"/>
          </g>
        </g>
      </g>
      <g id="Grupo_81063" data-name="Grupo 81063" transform="translate(158.486 92.907)">
        <g id="Grupo_81060" data-name="Grupo 81060" transform="translate(0)">
          <path id="Trazado_115013" data-name="Trazado 115013" d="M178.159,117.755a.675.675,0,0,1-.507-1.118,68.181,68.181,0,0,1,5.735-5.812.674.674,0,1,1,.9,1,66.776,66.776,0,0,0-5.621,5.7A.674.674,0,0,1,178.159,117.755Zm10.905-10.009a.674.674,0,0,1-.4-1.217c1.455-1.072,2.971-2.1,4.505-3.055a.674.674,0,1,1,.713,1.145c-1.5.937-2.992,1.945-4.419,3A.672.672,0,0,1,189.064,107.747Zm77.471-2.975a.668.668,0,0,1-.357-.1q-.613-.383-1.232-.754a.674.674,0,0,1,.692-1.157q.632.378,1.257.77a.674.674,0,0,1-.359,1.245Zm-65.912-3.924a.674.674,0,0,1-.289-1.283c2.047-.969,4.161-1.847,6.283-2.61a.674.674,0,1,1,.456,1.268c-2.082.75-4.156,1.611-6.163,2.56A.666.666,0,0,1,200.624,100.848Zm58.718,0a.675.675,0,0,1-.286-.064,68.662,68.662,0,0,0-7.435-2.97.674.674,0,0,1,.427-1.279,70.007,70.007,0,0,1,7.581,3.029.675.675,0,0,1-.287,1.285Zm-47.354-4.209a.674.674,0,0,1-.177-1.324,67.987,67.987,0,0,1,7.991-1.68.674.674,0,0,1,.2,1.334,66.747,66.747,0,0,0-7.833,1.646A.651.651,0,0,1,211.987,96.637Zm34.671-.3a.649.649,0,0,1-.164-.02c-2.152-.537-4.355-.976-6.545-1.3a.674.674,0,1,1,.2-1.333c2.233.334,4.477.781,6.672,1.329a.674.674,0,0,1-.162,1.328Zm-20.053-2.013a.674.674,0,0,1-.03-1.348c1.8-.083,3.633-.1,5.444-.036a.674.674,0,1,1-.044,1.348c-1.776-.058-3.571-.046-5.338.036Z" transform="translate(-177.486 -92.907)"/>
        </g>
      </g>
    </g>
    <g id="Grupo_88079" data-name="Grupo 88079" transform="translate(-119.94 121.473)">
      <path id="Trazado_120188" data-name="Trazado 120188" d="M1122.819,166.167a10.515,10.515,0,0,1-8.337-4.165.347.347,0,0,0-.462-.08,8.644,8.644,0,0,1-4.669,1.285,12.375,12.375,0,0,1-6.521-1.965,10.447,10.447,0,0,1-4.283-5.016,9.917,9.917,0,0,1,1.255-9.1,9.431,9.431,0,0,1,7.656-4.189c.245,0,.493.01.739.031h.029a.347.347,0,0,0,.34-.416,7.823,7.823,0,0,1,1.815-6.549,9.469,9.469,0,0,1,7.073-3.541,7.427,7.427,0,0,1,5.521,2.5.347.347,0,0,0,.254.111h.026a.347.347,0,0,0,.261-.151,10.485,10.485,0,0,1,8.551-4.549,9.228,9.228,0,0,1,7.662,3.961c3.322,4.623,3.151,10.528-.407,14.041a.347.347,0,0,0,.015.508,6.873,6.873,0,0,1,1.943,7.841,7.113,7.113,0,0,1-6.48,4.761,7.32,7.32,0,0,1-2.928-.64.347.347,0,0,0-.443.151,9.834,9.834,0,0,1-3.672,3.9A10.266,10.266,0,0,1,1122.819,166.167Z" transform="translate(-2.52 -2.487)" fill="#fff"/>
      <path id="Trazado_120189" data-name="Trazado 120189" d="M1137.048,146.138c3.742-3.7,3.812-9.8.445-14.491-4.322-6.016-12.921-5.081-16.783.6-6.128-6.578-16.5.477-15,7.9-7.029-.588-12.508,7-10.005,13.723,2.161,5.806,10.669,9.262,15.986,5.867a10.748,10.748,0,0,0,13.717,2.989,10.179,10.179,0,0,0,3.811-4.038C1137.05,162.091,1143.289,151.625,1137.048,146.138Zm-7.195,11.184c1.148-2.908,1.066-6.18-1.462-8.126-3.913-3.012-10.021-.994-8.47,4.575,1.1,3.94,6.474,2.1,5.642-1.767-.2-.951-1.659-.548-1.454.4q.2,2.892-2.29,1.644A3.2,3.2,0,0,1,1121.9,150c1.121-1.34,3.444-.808,4.737-.188,3.856,1.851,2.194,6.461.511,9.171-3.409,5.489-11.414,4.155-14.64-.671a.815.815,0,0,0-.147-.163.6.6,0,0,0-.885-.107c-4.434,3.39-10.7.71-13.655-3.393-4.114-5.714,1.81-14.093,8.393-12.935a9.484,9.484,0,0,0,1.987,2.861c3.636,3.663,10.377.709,9.443-4.516-.784-4.387-6.641-3.28-6.989.732-.084.969,1.425.961,1.508,0,.24-2.771,3.21-2.58,4.026-.331,1.194,3.287-3.515,4.821-5.82,3.807-3.258-1.433-4.033-5.961-2.641-8.884,2.328-4.891,9.2-5.839,12.428-1.483a.8.8,0,0,0,.267.231.823.823,0,0,0,1.144-.4,8.772,8.772,0,0,1,15-.79c3.495,4.865,2.236,11.83-3.542,14.066-.9.347-.507,1.806.4,1.454a10.973,10.973,0,0,0,2.465-1.33C1141.246,151.407,1136.163,160.083,1129.854,157.322Z"/>
    </g>
    <g id="Grupo_88080" data-name="Grupo 88080" transform="translate(545.392 -715.004) rotate(34)">
      <path id="Trazado_120190" data-name="Trazado 120190" d="M1284.952,492.873l-.082,0-.06,0-.06,0-.082,0a.608.608,0,0,1-.378-.1.89.89,0,0,0-.22-.122c-7.422-2.813-13.862-10.522-11.324-18.071a6.855,6.855,0,0,1,6.122-4.655,6.255,6.255,0,0,1,5.239,2.659.883.883,0,0,0,.7.347h.007a.882.882,0,0,0,.7-.359,5.666,5.666,0,0,1,4.556-2.686,5.116,5.116,0,0,1,.573.033,7.034,7.034,0,0,1,6.229,4.661c2.533,7.551-3.907,15.26-11.326,18.071a.892.892,0,0,0-.22.122.609.609,0,0,1-.379.1Z" transform="translate(-1.989 -1.952)" fill="#fff"/>
      <path id="Trazado_120191" data-name="Trazado 120191" d="M1295.724,472.342a7.924,7.924,0,0,0-6.966-5.256c-2.564-.293-4.538,1.106-5.939,3.006a7.165,7.165,0,0,0-5.933-3.006,7.727,7.727,0,0,0-6.966,5.256c-2.83,8.42,4.437,16.369,11.848,19.177a2.128,2.128,0,0,0,2.107,0C1291.285,488.711,1298.548,480.762,1295.724,472.342Zm-12.883,15.495c-4.843-1.839-9.167-6.024-9.685-11.387-.544-5.637,5.6-7.411,7.71-2.054a1.754,1.754,0,0,0,1.678,1.515,2.108,2.108,0,0,0,.285.03,2.082,2.082,0,0,0,.247-.026,1.756,1.756,0,0,0,1.7-1.522c2.175-5.573,7.83-3.428,7.712,2.056C1292.372,481.716,1287.43,486.066,1282.842,487.837Z"/>
    </g>
    <g id="Grupo_88493" data-name="Grupo 88493" transform="translate(3286.487 -636.513)">
      <path id="Trazado_120439" data-name="Trazado 120439" d="M-1899.983,1092.052c-2.177-2.579-4.764-5.415-7.942-6.423a19.772,19.772,0,0,0-5.818-.755,24.912,24.912,0,0,0-6.923.91,21.145,21.145,0,0,0-9.041,5.213,18.628,18.628,0,0,0-5.555,15.489,16.883,16.883,0,0,0,8.371,12.587,29.034,29.034,0,0,0,4.266,2.088.614.614,0,0,0,.076.03,24.5,24.5,0,0,0,8.753,1.735h0a15.963,15.963,0,0,0,13.272-6.414,26.8,26.8,0,0,0,1.91-2.905.112.112,0,0,0,.007-.012,21.181,21.181,0,0,0,2.85-9.3A17.332,17.332,0,0,0-1899.983,1092.052Z" fill="#fff"/>
      <g id="Grupo_88492" data-name="Grupo 88492" transform="translate(-1935.398 1084.874)">
        <g id="Grupo_88491" data-name="Grupo 88491" transform="translate(0)">
          <path id="Trazado_120440" data-name="Trazado 120440" d="M-1899.983,1092.052a17.332,17.332,0,0,1,4.228,12.239,21.177,21.177,0,0,1-2.851,9.3.07.07,0,0,1-.007.012,26.819,26.819,0,0,1-1.91,2.905,15.963,15.963,0,0,1-13.272,6.414h0a24.5,24.5,0,0,1-8.753-1.735.6.6,0,0,1-.076-.03,29.025,29.025,0,0,1-4.266-2.088,16.882,16.882,0,0,1-8.371-12.587,18.628,18.628,0,0,1,5.555-15.489,21.144,21.144,0,0,1,9.041-5.213,24.911,24.911,0,0,1,6.923-.91,19.772,19.772,0,0,1,5.818.755C-1904.747,1086.637-1902.16,1089.473-1899.983,1092.052Zm.686,20.062a19.166,19.166,0,0,0,2.241-7.851c-.3-.238-.6-.474-.914-.7a.664.664,0,0,1-.248.319.665.665,0,0,1-.682.043,15.846,15.846,0,0,1-3.864-3.269,22.574,22.574,0,0,0-2.183-2.1c-.427,1.208-.985,2.4-1.526,3.549-.23.492-.465,1-.688,1.5.136.28.281.583.447.932a6.459,6.459,0,0,1,.252.649,1.834,1.834,0,0,0,.526.944,1.758,1.758,0,0,0,.571.177,3,3,0,0,1,1.134.42,19.782,19.782,0,0,1,4.019,4.223c.175.225.348.445.517.659Q-1899.5,1111.866-1899.3,1112.114Zm1.205-10.245c.351.232.7.474,1.038.723a16.158,16.158,0,0,0-3.941-9.687c-2.056-2.438-4.489-5.113-7.33-6.015a18.76,18.76,0,0,0-5.418-.692,23.6,23.6,0,0,0-6.535.853,19.611,19.611,0,0,0-8.492,4.883,17.311,17.311,0,0,0-5.178,14.388,15.374,15.374,0,0,0,2.273,6.379c.393-.515.781-1.045,1.141-1.583a10.33,10.33,0,0,0,.722-1.452,6.687,6.687,0,0,1,1.524-2.476.663.663,0,0,1,.874.015,5.759,5.759,0,0,1,1.328,2.2,6.147,6.147,0,0,0,.69,1.372c1.586-.669,2.355.415,2.985,1.3.017.022.031.043.048.066a16.555,16.555,0,0,1,.725-2.779.661.661,0,0,1,.621-.434h0a7.617,7.617,0,0,1,3.332,1.245l.02.01c1.548-1.836,2.167-4.673,2.717-7.194q.079-.36.156-.705c.026-.126.056-.255.084-.384l.1-.425a35.274,35.274,0,0,0,1.117-7.13.662.662,0,0,1,.5-.64.664.664,0,0,1,.743.329q.683,1.269,1.379,2.531c.57,1.04,1.157,2.115,1.727,3.18.455.849.856,1.612,1.222,2.331.084-.179.169-.361.251-.538a30.623,30.623,0,0,0,1.738-4.233.669.669,0,0,1,.4-.432.665.665,0,0,1,.586.056,17.256,17.256,0,0,1,3.142,2.8,19.872,19.872,0,0,0,2.71,2.51.657.657,0,0,1,.324-.412A.662.662,0,0,1-1898.092,1101.869Zm-1.9,11.49c-.242-.3-.49-.607-.742-.925-.169-.214-.343-.437-.521-.665a18.848,18.848,0,0,0-3.721-3.945,1.863,1.863,0,0,0-.659-.215,2.765,2.765,0,0,1-1.046-.383,2.921,2.921,0,0,1-1.03-1.6c-.066-.187-.128-.364-.2-.52-.218-.46-.4-.839-.574-1.19-.4-.808-.824-1.645-1.319-2.586-.127.194-.249.386-.359.578-.03.05-.106.235-.162.371-.409.973-.743,1.675-1.336,1.819a.991.991,0,0,1-.243.031,1.6,1.6,0,0,1-1.068-.586,2.079,2.079,0,0,0-.179-.167c-.162-.117-.308-.227-.447-.333-.018.079-.035.159-.053.238-.6,2.731-1.338,6.13-3.405,8.21a.663.663,0,0,1-.785.118c-.152-.083-.316-.174-.487-.27a9.721,9.721,0,0,0-2.235-1.018,19.513,19.513,0,0,0-.722,3.589c-.1.864-.164,1.761-.189,2.667-.007.225-.011.447-.018.67-.023.937-.05,1.9-.149,2.874a25.108,25.108,0,0,0,3.956,1.1,21.038,21.038,0,0,0,3.892.377,14.761,14.761,0,0,0,12.214-5.886A26.7,26.7,0,0,0-1899.994,1113.359Zm-11.316-12.12c.237-.406.5-.809.8-1.227-.5-.939-1.021-1.882-1.523-2.8l-.3-.551c-.21,1.667-.593,3.377-.949,4.954.273.214.558.435.9.685a2.842,2.842,0,0,1,.339.3l.069.068a9.782,9.782,0,0,0,.421-.907A4.911,4.911,0,0,1-1911.31,1101.239Zm-11.321,12.782-.154-.205q-.188-.256-.372-.5c-.119-.161-.23-.316-.334-.463-.717-1.01-.846-1.192-1.713-.685a.662.662,0,0,1-.761-.068,5.3,5.3,0,0,1-1.347-2.188,7.853,7.853,0,0,0-.556-1.185,10.85,10.85,0,0,0-.73,1.471,11.2,11.2,0,0,1-.833,1.654c-.457.687-.957,1.353-1.445,1.988a16.509,16.509,0,0,0,4.663,4.1,27.661,27.661,0,0,0,3.291,1.672c.065-.785.086-1.574.106-2.4.007-.224.011-.449.02-.674C-1922.775,1115.688-1922.717,1114.842-1922.631,1114.021Z" transform="translate(1935.398 -1084.874)"/>
          <path id="Trazado_120441" data-name="Trazado 120441" d="M-1775.257,1177.993a.663.663,0,0,1,.419.838l-.245.732a.663.663,0,0,1-.628.454.666.666,0,0,1-.21-.035.663.663,0,0,1-.419-.838l.245-.733A.662.662,0,0,1-1775.257,1177.993Z" transform="translate(1811.192 -1157.578)"/>
          <path id="Trazado_120442" data-name="Trazado 120442" d="M-1819.243,1196.026a.661.661,0,0,1-.061.934c-.306.268-.566.48-.795.667a2.273,2.273,0,0,0-1.18,2.083,6.791,6.791,0,0,1-.329,1.344,5.074,5.074,0,0,0-.28,1.185.662.662,0,0,1-.66.624h-.04a.662.662,0,0,1-.621-.7,6.09,6.09,0,0,1,.339-1.51,5.873,5.873,0,0,0,.275-1.088,3.482,3.482,0,0,1,1.658-2.961c.22-.18.47-.384.76-.639A.661.661,0,0,1-1819.243,1196.026Z" transform="translate(1847.774 -1171.513)"/>
          <path id="Trazado_120443" data-name="Trazado 120443" d="M-1847.642,1214.621a.662.662,0,0,1,.348.869.661.661,0,0,1-.608.4.667.667,0,0,1-.261-.055l-.854-.366a.662.662,0,0,1-.347-.869.66.66,0,0,1,.869-.348Z" transform="translate(1868.244 -1185.885)"/>
          <path id="Trazado_120444" data-name="Trazado 120444" d="M-1897.55,1128.009a3.317,3.317,0,0,1-.351,3.466,3.239,3.239,0,0,1-2.587,1.157,3.053,3.053,0,0,1-2.984-1.857,2.648,2.648,0,0,1,.261-2.228,4.213,4.213,0,0,1,2.6-2,3.339,3.339,0,0,1,.632-.063A2.659,2.659,0,0,1-1897.55,1128.009Zm-1.4,2.66a2.016,2.016,0,0,0,.214-2.076,1.341,1.341,0,0,0-1.238-.783,2.021,2.021,0,0,0-.376.038,2.89,2.89,0,0,0-1.707,1.347,1.381,1.381,0,0,0-.172,1.124,1.388,1.388,0,0,0,.732.768,2.384,2.384,0,0,0,1.01.22A1.949,1.949,0,0,0-1898.95,1130.669Z" transform="translate(1910.572 -1117.375)"/>
          <path id="Trazado_120445" data-name="Trazado 120445" d="M-1897.167,1215.386a.662.662,0,0,1,.3.889l-.366.732a.663.663,0,0,1-.593.366.658.658,0,0,1-.3-.07.663.663,0,0,1-.3-.889l.366-.732A.662.662,0,0,1-1897.167,1215.386Z" transform="translate(1906.573 -1186.756)"/>
        </g>
      </g>
    </g>
    <g id="Grupo_83567" data-name="Grupo 83567" transform="translate(1585.756 -682.971) rotate(25)">
      <path id="Trazado_117335" data-name="Trazado 117335" d="M179.732,904.712a.17.17,0,0,1-.086-.025c-.013-.015-.166-.123-.181-.137q-3.4-3.449-6.808-6.881a2.823,2.823,0,0,0-2.064-.87,7.342,7.342,0,0,0-2.5.623,13.289,13.289,0,0,1-1.6.52c-.848.2-1.718.417-2.6.642a38.912,38.912,0,0,1-9.244,1.581h0q-.283,0-.564-.01c-8.242-.29-9.762-6.135-11.686-13.534l-.166-.638c-.343-1.316-.817-2.8-1.319-4.365-1.959-6.122-4.4-13.74-1.4-18.652,1.5-2.446,4.865-3.647,7.633-4.418,2.254-.629,4.5-1.3,6.738-1.973,2.388-.716,4.858-1.456,7.3-2.128.716-.2,1.5-.426,2.345-.672,3.981-1.161,9.433-2.752,14.107-2.752a11.371,11.371,0,0,1,6.858,1.839c4.162,3.079,5.376,8.943,6.447,14.117.2.963.394,1.9.6,2.8.126.543.257,1.094.39,1.648,1.388,5.807,2.822,11.813-.458,16.845-1.416,2.173-4.145,3.9-8.11,5.133a5.635,5.635,0,0,1-1.285.249c-1.3.12-1.352.717-1.484,2.314l-.023.277c-.212,2.53-.376,5.173-.5,8.078-.009.032-.017.062-.023.093a.251.251,0,0,1-.107.2A.385.385,0,0,1,179.732,904.712Z" transform="translate(-3.3 -3.312)" fill="#fff"/>
      <path id="Trazado_117336" data-name="Trazado 117336" d="M188.964,866.3c-1.35-5.836-2.148-13.513-7.329-17.344-6.029-4.459-17.7-.251-23.945,1.467-4.7,1.294-9.343,2.792-14.04,4.1-2.844.793-6.426,2.064-8.064,4.745-3.978,6.506.946,17.131,2.63,23.588,2.024,7.759,3.5,14.406,12.541,14.723,4.154.146,8.61-1.3,12.6-2.231,2.113-.49,3.982-1.968,5.473-.472q3.414,3.428,6.8,6.878a.907.907,0,0,0,.359.271.943.943,0,0,0,1.043-.105.967.967,0,0,0,.434-.681.924.924,0,0,0,.026-.108c0-.009.006-.015.006-.024.117-2.711.278-5.413.5-8.117.222-2.653.044-1.5,2.275-2.2,3.128-.973,6.651-2.583,8.509-5.434C192.578,879.558,190.4,872.526,188.964,866.3Zm-.609,15.355c-1.318,5.064-7.062,6.686-11.433,7.984a1.079,1.079,0,0,0-.765,1c-.293,2.606-.475,5.223-.611,7.842-2.534-3.088-5.4-6.968-9.157-6.016-5.783,1.465-16.631,5.721-21.858,1.115-2.8-2.463-3.4-7.9-4.3-11.28-1.089-4.08-2.086-8.187-3.087-12.289-.708-2.9-1.479-6.058-.227-8.919,1.686-3.855,7.468-4.588,11.027-5.633,6.832-2.007,13.623-4.192,20.64-5.475,3.433-.628,7.2-.94,10.582.059,3.328.982,4.714,4.807,5.553,7.8,1.412,5.044,2.6,10.186,3.622,15.323A18.7,18.7,0,0,1,188.355,881.655ZM173.423,858.6a6.923,6.923,0,0,1,1.449-2.088,7.793,7.793,0,0,1,2.024-1.932.189.189,0,0,1,.275.212,4.542,4.542,0,0,1-1.441,2.192,11.358,11.358,0,0,1-2.031,1.827A.189.189,0,0,1,173.423,858.6Zm3.649-.341c-.043.549-.423.782-.853,1.065a3.237,3.237,0,0,1-1.259.564.206.206,0,0,1-.229-.3,3.378,3.378,0,0,1,1.062-1.115,1.329,1.329,0,0,1,1.123-.419A.209.209,0,0,1,177.072,858.256ZM152.857,884.2a7.154,7.154,0,0,1-1.184,2.456c-.4.566-.758,1.358-1.515,1.434a.135.135,0,0,1-.133-.1c-.111-.757.566-1.287,1-1.836.545-.7,1.093-1.377,1.674-2.047C152.761,884.03,152.879,884.113,152.857,884.2Zm-2.665.3a2.24,2.24,0,0,1,1.342-1.185.215.215,0,0,1,.261.26,2.408,2.408,0,0,1-1.059,1.468A.4.4,0,0,1,150.193,884.506Zm4.376.126a1.617,1.617,0,0,1,.08,1.154,3.819,3.819,0,0,1-.348,1.254c-.157.256-.649.257-.7-.091a2.891,2.891,0,0,1,.24-1.385,2.012,2.012,0,0,1,.524-.958A.133.133,0,0,1,154.569,884.631Zm25.072-4.317a.326.326,0,0,1-.306.4c-.7.083-1.313-.725-1.768-1.165a19.844,19.844,0,0,1-1.551-1.564.09.09,0,0,1,.063-.153,3.547,3.547,0,0,1,2.087.94C178.666,879.158,179.543,879.645,179.641,880.314Zm-2.578-3.334c-.1-.042-.055-.18.027-.208.689-.241,1.84-.028,2.11.726a.13.13,0,0,1-.091.16,1.37,1.37,0,0,1-.911-.21C177.822,877.286,177.439,877.142,177.063,876.98Zm-.915,3.468a.373.373,0,0,1-.057.445c-.024.02-.049.039-.074.058a.372.372,0,0,1-.445-.058,3.309,3.309,0,0,1-.913-1.5.123.123,0,0,1,.15-.15A2.436,2.436,0,0,1,176.148,880.448Zm-27.51-16.833a2.453,2.453,0,0,1,.359.723.147.147,0,0,1-.141.186,1.707,1.707,0,0,1-.939-.263,9.522,9.522,0,0,1-.842-.659c-.518-.441-1.133-.805-1.289-1.512a.213.213,0,0,1,.148-.26c.76-.157,1.282.368,1.8.85A9.157,9.157,0,0,1,148.638,863.616Zm1.436-.1a1.22,1.22,0,0,1-.554-.256,2.23,2.23,0,0,1-.475-.638,2.63,2.63,0,0,1-.492-1.363.518.518,0,0,1,.769-.441,2.592,2.592,0,0,1,.931,1.291,3.3,3.3,0,0,1,.254.734,1.192,1.192,0,0,1-.032.367A.32.32,0,0,1,150.074,863.512Zm-3.688,9.8a2.415,2.415,0,0,1-2.731-.09.175.175,0,0,1,0-.242,2.494,2.494,0,0,1,2.731-.346A.4.4,0,0,1,146.385,873.315Zm14.156-15.873a2.938,2.938,0,0,1,.142-1.621.181.181,0,0,1,.245-.064c1.018.459,1.085,2.336.392,3.112a.129.129,0,0,1-.158.02A1.965,1.965,0,0,1,160.542,857.442Zm20.875,9.074c-.3.883-1.936,1.1-2.694.751a.18.18,0,0,1-.036-.281,3.538,3.538,0,0,1,1.158-.656,1.945,1.945,0,0,1,1.288-.315A.41.41,0,0,1,181.417,866.516Zm-11.559,20.229a.191.191,0,0,1-.256.067c-.515-.259-.578-.7-.819-1.183a5.7,5.7,0,0,1-.5-1.256.255.255,0,0,1,.37-.285C169.445,884.5,170.365,885.877,169.858,886.745Zm3.284-23.92c-4.237-4.371-10.224-.16-12.271,4.518-1.713-1.93-3.861-3.3-6.623-2.892-2.827.422-4.174,3.415-4.492,5.906-.991,7.769,8.4,12.837,14.778,13.57a.671.671,0,0,0,.68-.3C170.364,879.508,179.76,869.651,173.141,862.825Zm-21.592,10.326c-.314-.593-.541-1.841.257-2.165.094-.038.179.041.21.119a2.951,2.951,0,0,1,.122.957c.014.307.069.6.064.912A.352.352,0,0,1,151.549,873.151Zm10.592,8.094c-2.22.09-4.2-1.25-5.908-2.533a10.435,10.435,0,0,1-3.778-4.422.049.049,0,0,1,.072-.055c1.707,1.152,2.986,2.873,4.718,4.03,1.588,1.061,3.339,1.695,5,2.616A.2.2,0,0,1,162.141,881.246Zm7-17.723a.066.066,0,0,1,.016-.119c2.405-.754,6.047,3.431,4.324,5.541a.2.2,0,0,1-.307-.04c-.62-1-.6-2.221-1.33-3.2A10.237,10.237,0,0,0,169.142,863.523Zm4.279,8.152a.157.157,0,0,1-.211-.055c-.2-.3-.079-.556-.006-.882.064-.285.058-.542.3-.732a.152.152,0,0,1,.208,0A1.258,1.258,0,0,1,173.421,871.675Z" transform="translate(0 0)"/>
    </g>
    <g id="Grupo_89334" data-name="Grupo 89334" transform="translate(826.725 276.742)">
      <g id="Grupo_81065" data-name="Grupo 81065" style="mix-blend-mode: overlay;isolation: isolate">
        <path id="Trazado_115015" data-name="Trazado 115015" d="M201.459,222.3c-4.818,4.93-9.8,9.679-14.871,14.344,2.194-4.96,4.559-9.841,6.642-14.853,2.361-5.682,5.106-13.427,2.129-19.387-6.784-13.585-23.933-.255-30.244,6.583-.672.729-1.314,1.49-1.964,2.242,2.255-5.522,4.285-11.2,3.749-17.162-.737-8.2-8.257-10.171-14.731-6.359-6.952,4.092-12.536,11.173-17.2,17.6-3.96,5.462,5.1,10.662,9.03,5.278a71.032,71.032,0,0,1,7.059-8.257q-.562,1.03-1.137,2.057a153.28,153.28,0,0,0-7.1,13.831c-3.952,9.119-9.8,21.744-4.825,31.336,2.506,4.834,8.382,5.325,12.806,3.358,5.947-2.644,10.066-8.481,14.037-13.421,4.145-5.158,7.8-10.635,11.633-16.017a77.947,77.947,0,0,1,5.041-6.6c.042-.048.086-.092.128-.139l-.046.145c-1.019,3.168-2.329,6.208-3.656,9.256-2.468,5.671-5.652,11.64-6.556,17.81-.8,5.456,1.41,11.571,7.972,11.175,6.169-.372,11.113-6.314,15.237-10.282,4.994-4.806,9.9-9.707,14.8-14.6C214.523,225.134,206.52,217.128,201.459,222.3Z" fill="#3c384f"/>
        <path id="Trazado_115016" data-name="Trazado 115016" d="M178.771,256.149a7.839,7.839,0,0,1-5.971-2.478c-2.078-2.263-2.976-5.949-2.4-9.86.747-5.1,2.971-9.983,5.121-14.705.515-1.131,1.025-2.251,1.507-3.359.457-1.051.938-2.155,1.415-3.3q-.438.61-.867,1.214l-.284.4c-1,1.4-1.981,2.8-2.964,4.206-2.761,3.94-5.616,8.015-8.7,11.857-.451.561-.9,1.134-1.362,1.713-3.541,4.478-7.554,9.553-13.048,11.995-4.9,2.175-11.313,1.566-14.1-3.811-5.007-9.659.4-22.088,4.347-31.163l.448-1.032c1.161-2.681,2.463-5.3,3.844-7.9q-.48.625-.942,1.26a6.656,6.656,0,0,1-9.394,1.306,5.277,5.277,0,0,1-1.254-7.761c4.977-6.865,10.542-13.783,17.5-17.879,3.862-2.273,8.089-2.642,11.31-.987,2.836,1.457,4.585,4.34,4.924,8.119A30.627,30.627,0,0,1,165.95,206.7c5.135-5.017,14.632-12.132,22.251-11.054,3.5.5,6.209,2.621,8.052,6.312,3.032,6.07.64,13.627-2.1,20.218-1.3,3.138-2.738,6.268-4.125,9.3l-.491,1.071c4.127-3.87,7.819-7.475,11.207-10.941h0a6.009,6.009,0,0,1,5.986-1.778,7.368,7.368,0,0,1,5.1,5.061,6.063,6.063,0,0,1-1.722,6.064l-.558.556c-4.645,4.636-9.448,9.43-14.26,14.059-.593.571-1.2,1.182-1.83,1.812-3.736,3.745-8.385,8.407-14.04,8.748C179.2,256.143,178.984,256.149,178.771,256.149Zm2.869-40.361a.944.944,0,0,1,.484.129.973.973,0,0,1,.472,1.135l-.047.146c-1.068,3.322-2.461,6.523-3.69,9.347-.487,1.119-1,2.249-1.521,3.389-2.092,4.6-4.256,9.348-4.962,14.167-.479,3.272.248,6.421,1.9,8.217a6,6,0,0,0,5.024,1.815c4.9-.3,9.066-4.476,12.745-8.165.638-.639,1.257-1.26,1.859-1.84,4.8-4.617,9.6-9.4,14.235-14.034l.557-.556a4.067,4.067,0,0,0,1.205-4.124,5.383,5.383,0,0,0-3.671-3.649A4.007,4.007,0,0,0,202.175,223h0c-4.377,4.477-9.254,9.181-14.911,14.38a1,1,0,0,1-1.591-1.141c.829-1.875,1.683-3.738,2.537-5.6,1.379-3.012,2.806-6.126,4.1-9.231,2.567-6.174,4.83-13.207,2.158-18.556-1.553-3.112-3.694-4.821-6.545-5.225-7.1-1.006-17.092,6.646-22.069,12.04-.531.574-1.042,1.17-1.554,1.766l-.387.451a1,1,0,0,1-1.683-1.031c2.147-5.26,4.2-10.882,3.678-16.7-.28-3.115-1.61-5.369-3.846-6.518-2.608-1.34-6.115-.991-9.382.931-6.642,3.911-12.046,10.64-16.9,17.33a3.316,3.316,0,0,0,.811,4.97,4.627,4.627,0,0,0,6.6-.868,72.419,72.419,0,0,1,7.158-8.374,1,1,0,0,1,1.587,1.185q-.565,1.035-1.143,2.066a152.988,152.988,0,0,0-7.053,13.74l-.449,1.034c-3.788,8.707-8.974,20.632-4.406,29.445,2.219,4.281,7.471,4.7,11.512,2.9,5.043-2.241,8.728-6.9,12.291-11.408.461-.582.918-1.16,1.373-1.725,3.046-3.791,5.881-7.838,8.624-11.752q1.479-2.112,2.973-4.219l.284-.4a74.4,74.4,0,0,1,4.824-6.284l.089-.1A1.092,1.092,0,0,1,181.64,215.788Zm19.82,6.517h0Z" fill="#3c384f"/>
        <path id="Trazado_115017" data-name="Trazado 115017" d="M142.792,223.274c-3.684,7.4-5.763,16.084-2.526,24.042.478,1.177,2.413.662,1.928-.532-3.038-7.472-1.14-15.537,2.325-22.5C145.091,223.135,143.366,222.12,142.792,223.274Z" fill="#3c384f"/>
        <path id="Trazado_115018" data-name="Trazado 115018" d="M145.829,244.381c-.017,0-.033-.007-.049-.01-.028-.054-.053-.113-.062-.129l-.005-.006c0-.008,0,0,0-.014-.129-.447-.221-.9-.319-1.354q-.339-1.582-.679-3.165a1.007,1.007,0,0,0-1.23-.7,1.023,1.023,0,0,0-.7,1.23q.384,1.789.769,3.58c.213.993.554,2.3,1.744,2.495a1.024,1.024,0,0,0,1.23-.7A1.011,1.011,0,0,0,145.829,244.381Z" fill="#3c384f"/>
        <path id="Trazado_115019" data-name="Trazado 115019" d="M189.856,201.723c-1.135-.606-2.146,1.12-1.009,1.727,1.57.838,2.049,2.544,2.111,4.22a28.922,28.922,0,0,1-.451,5.733,38.049,38.049,0,0,1-3.471,10.742c-.571,1.149,1.153,2.163,1.727,1.009a40.021,40.021,0,0,0,3.882-12.651C193.116,208.9,193.68,203.764,189.856,201.723Z" fill="#3c384f"/>
      </g>
      <g id="Grupo_81068" data-name="Grupo 81068">
        <g id="Grupo_81067" data-name="Grupo 81067">
          <g id="Grupo_81066" data-name="Grupo 81066">
            <path id="Trazado_115020" data-name="Trazado 115020" d="M199.088,219.934c-4.818,4.93-9.8,9.679-14.872,14.343,2.194-4.959,4.56-9.841,6.643-14.852,2.361-5.682,5.105-13.427,2.129-19.387-6.784-13.585-23.933-.256-30.244,6.583-.673.728-1.314,1.489-1.964,2.242,2.254-5.522,4.284-11.2,3.749-17.162-.737-8.2-8.257-10.171-14.731-6.36-6.953,4.093-12.536,11.174-17.2,17.6-3.96,5.462,5.1,10.662,9.031,5.278a71.117,71.117,0,0,1,7.058-8.258q-.562,1.03-1.136,2.058a153.4,153.4,0,0,0-7.1,13.83c-3.953,9.12-9.8,21.744-4.825,31.337,2.506,4.834,8.381,5.325,12.806,3.358,5.947-2.644,10.066-8.481,14.037-13.421,4.145-5.158,7.8-10.635,11.632-16.017a78.554,78.554,0,0,1,5.041-6.6c.042-.047.087-.091.129-.139l-.046.146c-1.019,3.168-2.33,6.208-3.656,9.256-2.469,5.67-5.652,11.639-6.556,17.81-.8,5.456,1.41,11.571,7.972,11.175,6.168-.372,11.112-6.314,15.236-10.282,4.995-4.806,9.9-9.708,14.806-14.6C212.151,222.763,204.148,214.757,199.088,219.934Z" fill="#6b8dff"/>
            <path id="Trazado_115021" data-name="Trazado 115021" d="M176.4,253.777a7.836,7.836,0,0,1-5.97-2.477c-2.078-2.263-2.976-5.949-2.4-9.861.746-5.1,2.97-9.982,5.121-14.705.514-1.131,1.024-2.25,1.507-3.358.457-1.051.938-2.155,1.415-3.3-.292.406-.581.812-.867,1.214l-.284.4c-1,1.4-1.981,2.8-2.965,4.206-2.76,3.941-5.615,8.016-8.7,11.857q-.677.843-1.362,1.714c-3.541,4.477-7.554,9.552-13.048,11.995-4.9,2.175-11.313,1.565-14.1-3.812-5.007-9.658.4-22.087,4.346-31.163l.449-1.031c1.161-2.681,2.463-5.3,3.843-7.9q-.479.625-.942,1.259a6.654,6.654,0,0,1-9.393,1.307,5.277,5.277,0,0,1-1.254-7.761c4.977-6.865,10.542-13.783,17.5-17.88,3.863-2.272,8.089-2.641,11.311-.986,2.836,1.457,4.584,4.339,4.924,8.118a30.609,30.609,0,0,1-1.947,12.721c5.136-5.016,14.632-12.131,22.251-11.053,3.5.5,6.21,2.621,8.053,6.312,3.031,6.07.639,13.626-2.1,20.218-1.3,3.137-2.738,6.268-4.125,9.295l-.491,1.071c4.127-3.869,7.819-7.474,11.207-10.94h0a6.008,6.008,0,0,1,5.986-1.777,7.365,7.365,0,0,1,5.1,5.061,6.058,6.058,0,0,1-1.721,6.063l-.558.557c-4.645,4.636-9.448,9.429-14.26,14.059-.593.571-1.2,1.182-1.831,1.812-3.735,3.745-8.384,8.407-14.039,8.748C176.828,253.771,176.613,253.777,176.4,253.777Zm2.869-40.361a.943.943,0,0,1,.484.13.972.972,0,0,1,.473,1.135l-.047.146c-1.068,3.321-2.461,6.523-3.69,9.347-.487,1.118-1,2.248-1.521,3.389-2.093,4.6-4.257,9.348-4.963,14.166-.479,3.272.248,6.421,1.9,8.218a6.005,6.005,0,0,0,5.024,1.815c4.9-.3,9.066-4.476,12.744-8.165.638-.64,1.258-1.261,1.86-1.84,4.8-4.617,9.6-9.4,14.235-14.034l.557-.557a4.065,4.065,0,0,0,1.2-4.124,5.38,5.38,0,0,0-3.671-3.648,4.005,4.005,0,0,0-4.051,1.239h0c-4.377,4.477-9.254,9.181-14.911,14.381a1,1,0,0,1-1.591-1.141c.829-1.875,1.683-3.738,2.536-5.6,1.38-3.011,2.806-6.125,4.1-9.23,2.566-6.174,4.83-13.207,2.158-18.557-1.554-3.111-3.7-4.82-6.545-5.225-7.1-1.005-17.093,6.647-22.07,12.04-.53.575-1.041,1.171-1.553,1.766l-.388.452a1,1,0,0,1-1.683-1.032c2.148-5.259,4.2-10.882,3.679-16.7-.28-3.116-1.61-5.37-3.846-6.519-2.609-1.339-6.115-.99-9.382.932-6.643,3.91-12.046,10.64-16.9,17.33a3.314,3.314,0,0,0,.811,4.969,4.626,4.626,0,0,0,6.6-.867,72.237,72.237,0,0,1,7.158-8.374,1,1,0,0,1,1.586,1.184q-.565,1.036-1.142,2.067a153,153,0,0,0-7.054,13.74l-.449,1.034c-3.787,8.707-8.973,20.632-4.4,29.444,2.219,4.282,7.471,4.7,11.512,2.9,5.043-2.241,8.728-6.9,12.291-11.408q.691-.875,1.372-1.726c3.047-3.79,5.882-7.837,8.625-11.751.986-1.408,1.973-2.817,2.973-4.22l.284-.4a74.44,74.44,0,0,1,4.823-6.284l.09-.1A1.091,1.091,0,0,1,179.268,213.416Zm19.82,6.518h0Z"/>
          </g>
          <path id="Trazado_115022" data-name="Trazado 115022" d="M140.421,220.9c-3.685,7.4-5.763,16.083-2.527,24.042.479,1.176,2.414.662,1.929-.532-3.039-7.473-1.141-15.537,2.325-22.5C142.719,220.763,140.995,219.749,140.421,220.9Z"/>
          <path id="Trazado_115023" data-name="Trazado 115023" d="M143.458,242.01c-.017,0-.033-.007-.049-.01-.028-.055-.054-.113-.063-.129l0-.006c0-.008,0,0,0-.015-.129-.446-.222-.9-.319-1.353q-.34-1.582-.679-3.165a1.008,1.008,0,0,0-1.231-.7,1.023,1.023,0,0,0-.7,1.23l.768,3.579c.214.994.555,2.3,1.745,2.5a1.025,1.025,0,0,0,1.23-.7A1.012,1.012,0,0,0,143.458,242.01Z"/>
          <path id="Trazado_115024" data-name="Trazado 115024" d="M187.485,199.352c-1.135-.606-2.147,1.12-1.009,1.727,1.57.838,2.048,2.544,2.111,4.219a28.932,28.932,0,0,1-.451,5.734,38.049,38.049,0,0,1-3.471,10.742c-.572,1.149,1.153,2.163,1.727,1.009a40.062,40.062,0,0,0,3.882-12.651C190.745,206.527,191.309,201.392,187.485,199.352Z"/>
        </g>
      </g>
    </g>
    <g id="Grupo_89335" data-name="Grupo 89335" transform="translate(866.814 115.9)">
      <g id="Grupo_81077" data-name="Grupo 81077" transform="translate(121.783 276.33)">
        <g id="Grupo_81074" data-name="Grupo 81074" transform="translate(1.405 1.405)" style="mix-blend-mode: overlay;isolation: isolate">
          <path id="Trazado_115029" data-name="Trazado 115029" d="M147.856,307.878a1.236,1.236,0,0,1-.442-.082c-3.682-1.434-7.316-3.005-10.8-4.671l-.363-.174.465-6.922.384-.123c2.409-.77,4.979-1.621,7.445-2.63a15.472,15.472,0,0,0,5.254-3.111,2.408,2.408,0,0,0,.89-1.858,1.82,1.82,0,0,0-1.192-1.237,3.739,3.739,0,0,0-1.4-.254,5.511,5.511,0,0,0-1.539.233,11.329,11.329,0,0,0-2.081.89,1.239,1.239,0,0,1-.573.142,1.226,1.226,0,0,1-1.1-.68l-1.41-2.871a1.206,1.206,0,0,1,.063-1.193,7.764,7.764,0,0,1,3.556-2.938,9.4,9.4,0,0,1,3.637-.7,11.253,11.253,0,0,1,1.8.149,9.609,9.609,0,0,1,4.936,2.289,7.01,7.01,0,0,1,2.356,4.97,7.744,7.744,0,0,1-1.617,4.642,16.464,16.464,0,0,1-3.455,3.295,41.292,41.292,0,0,1-7.226,4.331l-.2.636.2-.559,4.707,1.683a1.229,1.229,0,0,1,.711,1.648l-1.877,4.345A1.226,1.226,0,0,1,147.856,307.878Z" transform="translate(-135.63 -279.108)" fill="#3c384f"/>
          <path id="Trazado_115030" data-name="Trazado 115030" d="M148.222,279.886a10.563,10.563,0,0,1,1.708.141,9.067,9.067,0,0,1,4.632,2.141,6.463,6.463,0,0,1,2.163,4.544,7.143,7.143,0,0,1-1.5,4.281,15.886,15.886,0,0,1-3.333,3.171,40.624,40.624,0,0,1-7.121,4.267.634.634,0,0,0,.054,1.173q2.355.84,4.707,1.684a.636.636,0,0,1,.367.853l-1.878,4.345a.637.637,0,0,1-.815.348q-5.465-2.127-10.762-4.652c.2-2.975.21-3.145.41-6.119,2.526-.807,5.036-1.642,7.489-2.645a15.977,15.977,0,0,0,5.45-3.241,2.907,2.907,0,0,0,1.054-2.375,2.378,2.378,0,0,0-1.558-1.689,4.316,4.316,0,0,0-1.617-.3,6.137,6.137,0,0,0-1.705.257,11.755,11.755,0,0,0-2.19.934.641.641,0,0,1-.869-.28q-.7-1.428-1.407-2.867a.616.616,0,0,1,.027-.607,7.181,7.181,0,0,1,3.288-2.715,8.854,8.854,0,0,1,3.41-.652m0-1.185h0a9.987,9.987,0,0,0-3.866.744,8.373,8.373,0,0,0-3.833,3.173,1.8,1.8,0,0,0-.086,1.776l1.4,2.858a1.825,1.825,0,0,0,2.482.807,10.828,10.828,0,0,1,1.971-.846,4.941,4.941,0,0,1,1.376-.21,3.131,3.131,0,0,1,1.175.21,1.26,1.26,0,0,1,.831.784c.056.335-.209.824-.726,1.346a14.962,14.962,0,0,1-5.053,2.977c-2.449,1-5.005,1.848-7.4,2.614l-.767.245-.055.8-.205,3.062-.205,3.057-.054.8.726.347c3.5,1.672,7.148,3.249,10.843,4.687a1.8,1.8,0,0,0,.657.123,1.819,1.819,0,0,0,1.681-1.117l1-2.316.872-2.018a1.822,1.822,0,0,0-1.05-2.438l-2.361-.844-1.12-.4a41.916,41.916,0,0,0,6.145-3.815,17.015,17.015,0,0,0,3.578-3.418,8.333,8.333,0,0,0,1.733-5,7.605,7.605,0,0,0-2.548-5.4,10.185,10.185,0,0,0-5.237-2.435,11.76,11.76,0,0,0-1.9-.158Z" transform="translate(-135.205 -278.701)" fill="#3c384f"/>
        </g>
        <g id="Grupo_81076" data-name="Grupo 81076" transform="translate(0)">
          <g id="Grupo_81075" data-name="Grupo 81075">
            <path id="Trazado_115031" data-name="Trazado 115031" d="M145.485,305.507a1.219,1.219,0,0,1-.441-.082c-3.682-1.434-7.317-3-10.8-4.671l-.363-.174.465-6.921.383-.123c2.41-.77,4.979-1.622,7.445-2.63a15.477,15.477,0,0,0,5.254-3.111,2.411,2.411,0,0,0,.89-1.859,1.821,1.821,0,0,0-1.192-1.236,3.724,3.724,0,0,0-1.4-.254,5.535,5.535,0,0,0-1.539.232,11.345,11.345,0,0,0-2.08.89,1.23,1.23,0,0,1-1.674-.538l-1.41-2.872a1.2,1.2,0,0,1,.063-1.192,7.761,7.761,0,0,1,3.556-2.938,9.4,9.4,0,0,1,3.636-.7,11.258,11.258,0,0,1,1.805.149,9.612,9.612,0,0,1,4.936,2.288,7.01,7.01,0,0,1,2.356,4.971,7.75,7.75,0,0,1-1.617,4.642,16.47,16.47,0,0,1-3.455,3.294,41.281,41.281,0,0,1-7.226,4.33l-.2.637.2-.559,4.707,1.683a1.23,1.23,0,0,1,.711,1.648l-1.877,4.344A1.226,1.226,0,0,1,145.485,305.507Z" transform="translate(-133.259 -276.737)" fill="#ff5f65"/>
            <path id="Trazado_115032" data-name="Trazado 115032" d="M145.851,277.515a10.578,10.578,0,0,1,1.708.141,9.067,9.067,0,0,1,4.632,2.141,6.464,6.464,0,0,1,2.163,4.544,7.143,7.143,0,0,1-1.5,4.281,15.874,15.874,0,0,1-3.334,3.171,40.632,40.632,0,0,1-7.12,4.267.634.634,0,0,0,.054,1.173q2.355.84,4.707,1.683a.636.636,0,0,1,.367.853l-1.878,4.345a.639.639,0,0,1-.589.391.626.626,0,0,1-.228-.043c-3.643-1.418-7.239-2.969-10.762-4.652.2-2.974.21-3.144.411-6.118,2.526-.808,5.036-1.642,7.489-2.645a15.987,15.987,0,0,0,5.449-3.241,2.906,2.906,0,0,0,1.054-2.375,2.381,2.381,0,0,0-1.558-1.69,4.329,4.329,0,0,0-1.618-.3,6.136,6.136,0,0,0-1.7.256,11.8,11.8,0,0,0-2.19.934.64.64,0,0,1-.869-.279l-1.408-2.867a.617.617,0,0,1,.027-.608,7.183,7.183,0,0,1,3.288-2.715,8.852,8.852,0,0,1,3.41-.653m0-1.185h0a9.99,9.99,0,0,0-3.866.744,8.368,8.368,0,0,0-3.832,3.173,1.8,1.8,0,0,0-.086,1.776l1.4,2.858a1.825,1.825,0,0,0,2.482.808,10.765,10.765,0,0,1,1.971-.846,4.915,4.915,0,0,1,1.375-.21,3.136,3.136,0,0,1,1.175.21,1.259,1.259,0,0,1,.831.784c.056.335-.209.824-.726,1.345a14.953,14.953,0,0,1-5.053,2.977c-2.449,1-5.005,1.848-7.4,2.614l-.767.245-.055.8-.205,3.062-.205,3.057-.054.8.725.347c3.5,1.672,7.149,3.249,10.844,4.687a1.822,1.822,0,0,0,2.339-.994l1-2.316.872-2.018a1.823,1.823,0,0,0-1.05-2.438l-2.361-.845-1.12-.4a41.9,41.9,0,0,0,6.145-3.815,17.025,17.025,0,0,0,3.578-3.418,8.334,8.334,0,0,0,1.733-5.005,7.6,7.6,0,0,0-2.549-5.4,10.182,10.182,0,0,0-5.236-2.435,11.759,11.759,0,0,0-1.9-.158Z" transform="translate(-132.834 -276.33)"/>
          </g>
        </g>
      </g>
      <g id="Grupo_81081" data-name="Grupo 81081" transform="translate(105.705 301.187)">
        <g id="Grupo_81078" data-name="Grupo 81078" transform="translate(1.406 1.405)" style="mix-blend-mode: overlay;isolation: isolate">
          <path id="Trazado_115033" data-name="Trazado 115033" d="M122.4,349.112a1.228,1.228,0,0,1-1.091-.668l-1.291-2.524a1.224,1.224,0,0,1,.51-1.639,11.092,11.092,0,0,0,3.3-2.4,4.131,4.131,0,0,0,.912-4.225,2.256,2.256,0,0,0-1.527-1.288,1.74,1.74,0,0,0-.328-.03,2.808,2.808,0,0,0-1.914.91,6.183,6.183,0,0,0-1.016,1.46,1.232,1.232,0,0,1-1.88.356l-1.566-1.331a1.238,1.238,0,0,1-.231-1.607,12.147,12.147,0,0,0,2.369-5.825,3.151,3.151,0,0,0-.186-1.36,1.375,1.375,0,0,0-.775-.792,1.08,1.08,0,0,0-.346-.055,2.073,2.073,0,0,0-.994.308,4.444,4.444,0,0,0-1.693,1.992,8.492,8.492,0,0,0-.526,1.6,1.221,1.221,0,0,1-1.547.9l-2.614-.763a1.239,1.239,0,0,1-.874-1.363c.391-2.51,1-5.083,2.778-6.927a7.266,7.266,0,0,1,5.225-2.2,6.954,6.954,0,0,1,1.032.076,7.182,7.182,0,0,1,5.819,9.142l.034.052a6.667,6.667,0,0,1,1.472-.164,6.966,6.966,0,0,1,3.761,1.111,7.994,7.994,0,0,1,3.44,5.646,9.809,9.809,0,0,1-1.5,6.417,11.393,11.393,0,0,1-8.657,5.183Z" transform="translate(-108.483 -321.052)" fill="#3c384f"/>
          <path id="Trazado_115034" data-name="Trazado 115034" d="M116.683,321.829a6.309,6.309,0,0,1,.945.071,6.59,6.59,0,0,1,5.337,8.393.631.631,0,0,0,.6.807.663.663,0,0,0,.143-.016,5.954,5.954,0,0,1,1.329-.148,6.346,6.346,0,0,1,3.438,1.015,7.4,7.4,0,0,1,3.175,5.227,9.262,9.262,0,0,1-1.419,6.025,10.792,10.792,0,0,1-8.2,4.908h-.043a.641.641,0,0,1-.565-.349l-1.288-2.521a.633.633,0,0,1,.264-.848,11.805,11.805,0,0,0,3.463-2.535,4.688,4.688,0,0,0,1-4.861,2.849,2.849,0,0,0-1.95-1.621,2.384,2.384,0,0,0-.443-.041,3.4,3.4,0,0,0-2.337,1.088,6.9,6.9,0,0,0-1.115,1.6.633.633,0,0,1-.561.334.641.641,0,0,1-.415-.152c-.518-.44-1.042-.882-1.563-1.328a.637.637,0,0,1-.119-.833,12.583,12.583,0,0,0,2.464-6.121,3.739,3.739,0,0,0-.231-1.615,1.958,1.958,0,0,0-1.132-1.124,1.651,1.651,0,0,0-.535-.086,2.65,2.65,0,0,0-1.29.386,5,5,0,0,0-1.934,2.257,9.109,9.109,0,0,0-.565,1.714.628.628,0,0,1-.8.473c-.869-.255-1.743-.508-2.618-.765a.641.641,0,0,1-.455-.706c.376-2.408.946-4.869,2.618-6.6a6.723,6.723,0,0,1,4.8-2.023m0-1.185a7.861,7.861,0,0,0-5.653,2.388c-1.891,1.959-2.528,4.637-2.934,7.239a1.838,1.838,0,0,0,1.29,2.026l1.2.35,1.421.415a1.814,1.814,0,0,0,2.289-1.348,7.844,7.844,0,0,1,.488-1.486,3.856,3.856,0,0,1,1.455-1.726,1.494,1.494,0,0,1,.691-.224.473.473,0,0,1,.152.023.8.8,0,0,1,.421.459,2.6,2.6,0,0,1,.14,1.106,11.67,11.67,0,0,1-2.273,5.528,1.83,1.83,0,0,0,.34,2.377c.309.264.616.524.922.784l.645.548a1.841,1.841,0,0,0,1.184.434,1.819,1.819,0,0,0,1.6-.957,5.674,5.674,0,0,1,.919-1.33,2.244,2.244,0,0,1,1.489-.73,1.194,1.194,0,0,1,.222.02,1.681,1.681,0,0,1,1.1.959,3.541,3.541,0,0,1-.824,3.585,10.593,10.593,0,0,1-3.129,2.266,1.812,1.812,0,0,0-.759,2.429l.631,1.234.658,1.288a1.823,1.823,0,0,0,1.621,1c.041,0,.083,0,.125,0a12,12,0,0,0,9.12-5.459,10.4,10.4,0,0,0,1.592-6.808,8.6,8.6,0,0,0-3.7-6.069,7.566,7.566,0,0,0-4.085-1.206,7.256,7.256,0,0,0-.746.039,7.761,7.761,0,0,0-6.488-9.061,7.541,7.541,0,0,0-1.123-.084Z" transform="translate(-108.077 -320.644)" fill="#3c384f"/>
        </g>
        <g id="Grupo_81080" data-name="Grupo 81080">
          <g id="Grupo_81079" data-name="Grupo 81079">
            <path id="Trazado_115035" data-name="Trazado 115035" d="M120.027,346.74a1.228,1.228,0,0,1-1.09-.668l-1.291-2.525a1.223,1.223,0,0,1,.509-1.639,11.087,11.087,0,0,0,3.3-2.4,4.13,4.13,0,0,0,.911-4.225,2.253,2.253,0,0,0-1.526-1.289,1.788,1.788,0,0,0-.329-.03,2.809,2.809,0,0,0-1.913.91,6.179,6.179,0,0,0-1.016,1.46,1.23,1.23,0,0,1-1.084.648,1.243,1.243,0,0,1-.8-.291l-1.566-1.331a1.238,1.238,0,0,1-.231-1.607,12.15,12.15,0,0,0,2.369-5.825,3.151,3.151,0,0,0-.186-1.36,1.375,1.375,0,0,0-.775-.792,1.069,1.069,0,0,0-.347-.055,2.073,2.073,0,0,0-.993.308,4.441,4.441,0,0,0-1.693,1.992,8.486,8.486,0,0,0-.526,1.6,1.223,1.223,0,0,1-1.547.906l-2.614-.763a1.24,1.24,0,0,1-.875-1.363c.392-2.51,1-5.083,2.778-6.927a7.266,7.266,0,0,1,5.224-2.2,6.956,6.956,0,0,1,1.033.076,7.182,7.182,0,0,1,5.819,9.143l.034.052a6.626,6.626,0,0,1,1.471-.164,6.966,6.966,0,0,1,3.762,1.111,7.993,7.993,0,0,1,3.44,5.646,9.809,9.809,0,0,1-1.5,6.417,11.393,11.393,0,0,1-8.657,5.183Z" transform="translate(-106.112 -318.68)" fill="#3c3fa7"/>
            <path id="Trazado_115036" data-name="Trazado 115036" d="M114.312,319.458a6.309,6.309,0,0,1,.945.07,6.589,6.589,0,0,1,5.337,8.393.631.631,0,0,0,.6.807.665.665,0,0,0,.143-.016,5.949,5.949,0,0,1,1.329-.148,6.348,6.348,0,0,1,3.438,1.015,7.4,7.4,0,0,1,3.175,5.226,9.264,9.264,0,0,1-1.419,6.026,10.794,10.794,0,0,1-8.2,4.908h-.043a.643.643,0,0,1-.566-.349l-1.288-2.521a.634.634,0,0,1,.264-.848,11.81,11.81,0,0,0,3.464-2.535,4.687,4.687,0,0,0,1-4.861,2.846,2.846,0,0,0-1.949-1.621,2.391,2.391,0,0,0-.444-.041,3.4,3.4,0,0,0-2.337,1.088,6.9,6.9,0,0,0-1.114,1.6.633.633,0,0,1-.561.334.643.643,0,0,1-.415-.152c-.518-.441-1.042-.883-1.563-1.328a.638.638,0,0,1-.119-.833,12.6,12.6,0,0,0,2.464-6.121,3.744,3.744,0,0,0-.231-1.616,1.961,1.961,0,0,0-1.132-1.123,1.635,1.635,0,0,0-.535-.086,2.641,2.641,0,0,0-1.29.386,4.99,4.99,0,0,0-1.934,2.257,9.1,9.1,0,0,0-.565,1.715.628.628,0,0,1-.8.473c-.869-.255-1.743-.509-2.619-.765a.643.643,0,0,1-.455-.707c.376-2.408.946-4.869,2.619-6.6a6.72,6.72,0,0,1,4.8-2.023m0-1.185a7.859,7.859,0,0,0-5.653,2.387c-1.892,1.96-2.528,4.638-2.935,7.24a1.839,1.839,0,0,0,1.29,2.026l1.2.35q.712.207,1.421.415a1.814,1.814,0,0,0,2.289-1.348,7.887,7.887,0,0,1,.487-1.486,3.857,3.857,0,0,1,1.455-1.726,1.491,1.491,0,0,1,.692-.224.475.475,0,0,1,.152.022.808.808,0,0,1,.421.459,2.605,2.605,0,0,1,.14,1.106A11.665,11.665,0,0,1,113,333.024a1.831,1.831,0,0,0,.341,2.377c.308.264.615.524.922.783l.645.548a1.825,1.825,0,0,0,2.788-.523,5.663,5.663,0,0,1,.919-1.329,2.244,2.244,0,0,1,1.488-.731,1.2,1.2,0,0,1,.223.021,1.679,1.679,0,0,1,1.1.959,3.54,3.54,0,0,1-.824,3.584,10.588,10.588,0,0,1-3.129,2.266,1.813,1.813,0,0,0-.758,2.429l.631,1.234.658,1.288a1.824,1.824,0,0,0,1.621,1c.041,0,.083,0,.125,0a12,12,0,0,0,9.12-5.459,10.4,10.4,0,0,0,1.592-6.808,8.592,8.592,0,0,0-3.705-6.069,7.563,7.563,0,0,0-4.084-1.206,7.423,7.423,0,0,0-.746.038,7.762,7.762,0,0,0-6.488-9.061,7.629,7.629,0,0,0-1.123-.084Z" transform="translate(-105.705 -318.273)"/>
          </g>
        </g>
      </g>
    </g>
    <g id="Grupo_89337" data-name="Grupo 89337" transform="translate(1667.771 -245.413)">
      <path id="Trazado_121549" data-name="Trazado 121549" d="M-413.489,451.681c-7.988-.822-21.225.292-27.361-6.12-5.035-5.26,3.332-15.881,5.544-20.8a1.037,1.037,0,0,0-1.255-1.615c-6.584,3.376-12.893,7.265-19.605,10.389-3.385,1.574-7.156,3.089-10.945,3.06-5.7-.044-2.825-8.88-2.014-11.881,0,0,0-.009,0-.014a.775.775,0,0,0-.016-.557.937.937,0,0,0-.744-.636.9.9,0,0,0-.923.232c-2.545,2.666-5.6,5.847-9.625,4.855-3.315-.815-5.5-4.644-7.016-7.379-3.09-5.6-4.419-11.912-5.977-18.045a.97.97,0,0,0-.329-.512.992.992,0,0,0-1.932-.1c-1.587,6.488-3.462,14.688-10.692,16.931-10.366,3.215-22.5-9.079-29.73-14.418a.9.9,0,0,0-.468-.175.986.986,0,0,0-1.25,1.4c3.421,5.986,9.415,13.934,7.35,21.274-1.487,5.284-9.674,6.672-14.091,7.988a1.013,1.013,0,0,0,.492,1.961.881.881,0,0,0,.134.1c5.788,2.562,11.836,7.738,6.424,13.96-2.235,2.57-6.364,4.191-9.378,5.605-4.81,2.253-10.037,3.551-15.159,4.876-.017,0-.028.017-.044.022a.742.742,0,0,0-.229.114.7.7,0,0,0-.1.067.907.907,0,0,0-.1.119c-.5.62-.205,1.831.752,1.715l.021,0c7.233,1.317,17.649,2.415,22.161,9.006,3.9,5.69-1.909,12.928-4.438,17.824-.009.017-.008.035-.017.053a.814.814,0,0,0-.005.816.962.962,0,0,0,1.62.365l.013-.015c4.754-2.941,10.973-8.217,16.9-6.513,7.132,2.046,9.695,14.593,12.367,20.162.476.992,1.837.463,1.945-.453,2.216-4.419,5.113-15.034,10.787-15.52,4.421-.379,6.985,11.567,7.608,14.666a1,1,0,0,0,1.765.323c5.528-4.328,10.564-10.146,18.25-8.782,9.145,1.623,17.689,9.549,25.24,14.407a.913.913,0,0,0,.683.128.989.989,0,0,0,1.244-.952c-.77-7.855-6.969-14.87-4.711-23.169,1.772-6.513,11.612-5.115,16.559-5.073,1.24.01,1.556-1.95.3-2.2l-.043-.008c-3.634-2.032-12.175-5.226-11.282-10.468.67-3.939,6.465-6.367,9.6-7.825,6.893-3.2,14.336-4.536,21.466-7.007l.253-.006A1.088,1.088,0,0,0-413.489,451.681Z" transform="translate(0 0)" fill="#fff"/>
      <g id="Grupo_89336" data-name="Grupo 89336" transform="translate(-562.772 401.828)">
        <path id="Trazado_121550" data-name="Trazado 121550" d="M-457.57,484.236a1.935,1.935,0,0,0-2.308,1.15q-2.188,7.67-9.794,34.947c.027,1.192.465,1.9,1.309,2.131a1.938,1.938,0,0,0,2.308-1.15l9.795-34.949Q-456.3,484.578-457.57,484.236Z" transform="translate(506.199 -451.856)"/>
        <path id="Trazado_121551" data-name="Trazado 121551" d="M-430.806,506.988l.35-3.342a12.616,12.616,0,0,0-.531-3.36,5.508,5.508,0,0,0-.672-2.844q-.315-3.746-.833-3.887a8.756,8.756,0,0,0-3.48-2.715q-3.7-1.283-4.331-1.617l-.206-.057a2.022,2.022,0,0,0-2.241,1.723l-.028.1q-.467,4.588-.564,4.951l-3.441,12.71a21.2,21.2,0,0,1-.446,2.874l-.057.206q-.292,1.085-1,3.28-.594-.165-2.926,7.528l-.335,1.239q-.811,3,1.565,3.638l1.033.282q2.367.474,7.068-1.527a6.284,6.284,0,0,0,2.777-1.246q4.425-3.235,5.209-6.13l2.8-10.335A6.129,6.129,0,0,0-430.806,506.988Zm-4.016.909-2.463,9.094q-1.037,2.6-1.45,2.491a8.947,8.947,0,0,1-3.038,2.615,30.832,30.832,0,0,1-5.828,1.862l-.1-.029q.455-1.68,1.905-5.807a17.289,17.289,0,0,0,2.019-5l.084-.31a25.237,25.237,0,0,0,.725-3.908l3.47-12.814a19.8,19.8,0,0,0,.2-2.383l.931.251a8.1,8.1,0,0,1,2.491,1.449,11.859,11.859,0,0,1,.588,3.155A3.366,3.366,0,0,1-434.9,500,15.372,15.372,0,0,1-434.823,507.9Z" transform="translate(495.31 -454.895)"/>
        <path id="Trazado_121552" data-name="Trazado 121552" d="M-391.943,539.706a1.939,1.939,0,0,0-1.15-2.308q-.387-.1-2.978-.474l-5.374-1.451,3.862-14.263,1.135.309q1.525.412,4.106,1.221,1.343.364,2.233-1.28a1.778,1.778,0,0,0-.256-1.512q.167-.621-4.585-1.906l-1.653-.45,3.217-11.883.036-.542a23,23,0,0,1,2.846.547l3.411.923a9.241,9.241,0,0,1,1.672.785c1.306.095,2.083-.321,2.336-1.253a2.519,2.519,0,0,0,.019-.882,3.179,3.179,0,0,0-2.325-2.07l-5.374-1.454c-1.035-.135-1.571-.2-1.605-.214q-3.783-.775-4.28,1.059a40.308,40.308,0,0,1-1.024,4.6l-7.778,28.727a1.988,1.988,0,0,0,1.583,2.76l7.647,2.068c.1.031.672.107,1.709.242Q-392.351,541.2-391.943,539.706Z" transform="translate(467.252 -462.283)"/>
        <path id="Trazado_121553" data-name="Trazado 121553" d="M-345.477,524.253a11.026,11.026,0,0,0-.13-4.027q.341-3.011-1.387-3.482a2.248,2.248,0,0,0-2.413,1.122q-1.767,4.483-3.973,9.35a35.223,35.223,0,0,0-2.589,5.065,13.909,13.909,0,0,0-1.208,2q-1.588,4.23-1.9,4.144a38.28,38.28,0,0,1-3.2,6.9,13.56,13.56,0,0,0-2.162,4.293l-.029.1q-.326,2.129,1.2,2.541a2.14,2.14,0,0,0,2.065-.661q1.1-3.138,1.384-3.063a.835.835,0,0,1,.282.19q1.193.1,7.627,1.732a6.594,6.594,0,0,0,.986.045,13.034,13.034,0,0,0-.155,2.62q-.724,2.688,1.259,3.553c1.3.1,2.083-.322,2.333-1.252q.022-.076.173-2.283a19.529,19.529,0,0,0,.164-4.279q.309-3.912-.029-4a13.5,13.5,0,0,0-.035-3.557l.9-7.41a11.767,11.767,0,0,0,.4-3.111l.2-.721a3.075,3.075,0,0,0,.083-1.533A11.618,11.618,0,0,0-345.477,524.253Zm-5.106,12.7q-.079,1.948-.366,4.226a19.282,19.282,0,0,1,.025,2.778,20.215,20.215,0,0,1,.051,2.678,1.234,1.234,0,0,0-.676.038q-3.98-.964-5.4-1.35a5.306,5.306,0,0,0-.854-.123c.99-2.279,1.543-3.648,1.666-4.1a16.61,16.61,0,0,0,2.169-4.736,23.058,23.058,0,0,0,2.159-4.293,22.533,22.533,0,0,0,2.267-4.268l.206.058Q-349.595,531.262-350.583,536.956Z" transform="translate(442.305 -471.616)"/>
        <path id="Trazado_121554" data-name="Trazado 121554" d="M-298.123,527.462a1.939,1.939,0,0,0-2.307,1.151q-.712,3.249-.352,3.344-1.119,4.546-1.713,6.742l-2.772,10.234a21.347,21.347,0,0,1-1.587,4.227l-.085.312c-.219,1.42.18,2.263,1.2,2.542a3.435,3.435,0,0,0,1.353-.079q1.219-.721,2.545-5.3l2.8-10.334q.81-3,2.135-8.3a4.9,4.9,0,0,0-.19-.938l.2-.724A2.2,2.2,0,0,0-298.123,527.462Z" transform="translate(407.35 -478.124)"/>
        <path id="Trazado_121555" data-name="Trazado 121555" d="M-310.829,608.637l-.1-.029a2.294,2.294,0,0,0-2.637,1.951c-.464,1.72.092,2.8,1.68,3.226l.206.056a2.081,2.081,0,0,0,2.888-1.66Q-308.157,609.834-310.829,608.637Z" transform="translate(411.438 -527.469)"/>
        <path id="Trazado_121556" data-name="Trazado 121556" d="M-413.489,451.681c-7.987-.822-21.224.292-27.36-6.12-5.035-5.26,3.332-15.881,5.544-20.8a1.037,1.037,0,0,0-1.255-1.615c-6.584,3.376-12.893,7.265-19.605,10.389-3.385,1.574-7.156,3.089-10.945,3.06-5.7-.044-2.825-8.88-2.014-11.881,0,0,0-.009,0-.014a.775.775,0,0,0-.016-.557.937.937,0,0,0-.744-.636.9.9,0,0,0-.923.232c-2.545,2.666-5.6,5.847-9.625,4.855-3.315-.815-5.5-4.644-7.016-7.379-3.09-5.6-4.419-11.912-5.977-18.045a.97.97,0,0,0-.329-.512.992.992,0,0,0-1.932-.1c-1.587,6.488-3.462,14.688-10.692,16.931-10.366,3.215-22.5-9.079-29.73-14.418a.9.9,0,0,0-.468-.175.986.986,0,0,0-1.25,1.4c3.421,5.986,9.415,13.934,7.35,21.274-1.487,5.284-9.674,6.672-14.091,7.988a1.013,1.013,0,0,0,.492,1.961.881.881,0,0,0,.134.1c5.788,2.562,11.836,7.738,6.424,13.96-2.235,2.57-6.364,4.191-9.379,5.605-4.81,2.253-10.037,3.551-15.158,4.876-.017,0-.028.017-.044.022a.742.742,0,0,0-.229.114.7.7,0,0,0-.1.067.907.907,0,0,0-.1.119c-.5.62-.205,1.831.752,1.715l.021,0c7.233,1.317,17.649,2.415,22.161,9.006,3.9,5.69-1.909,12.928-4.438,17.824-.009.017-.008.035-.016.053a.814.814,0,0,0-.005.816.962.962,0,0,0,1.62.365l.013-.015c4.754-2.941,10.973-8.217,16.9-6.513,7.132,2.046,9.7,14.593,12.367,20.162.476.992,1.837.463,1.945-.453,2.216-4.419,5.113-15.034,10.787-15.52,4.421-.379,6.985,11.567,7.608,14.666a1,1,0,0,0,1.765.323c5.528-4.328,10.564-10.146,18.25-8.782,9.145,1.623,17.689,9.549,25.24,14.407a.915.915,0,0,0,.683.128.989.989,0,0,0,1.244-.952c-.77-7.855-6.969-14.87-4.711-23.169,1.772-6.513,11.612-5.115,16.559-5.073,1.24.01,1.556-1.95.3-2.2l-.043-.008c-3.634-2.032-12.175-5.226-11.282-10.468.67-3.939,6.465-6.367,9.6-7.825,6.893-3.2,14.336-4.536,21.466-7.007l.253-.006A1.088,1.088,0,0,0-413.489,451.681Zm-28.034,9.619c-2.99,1.853-6.548,5-5.908,8.928.574,3.526,3.584,6.245,6.95,8.2-4.524-.02-9.188,1.013-11.52,4.66-4.307,6.736-.661,15.925,2.673,23.1-6.941-5.752-15.575-12.473-24.306-13.277-7.113-.658-12.836,3.743-17.348,8.825-.635-5.518-3.291-12.875-8.421-14.484-5.912-1.853-10.65,8.044-12.754,14.26-2.106-7.105-5.957-15.735-12.668-18.405-4.334-1.725-9.418.738-13.664,3.616,2.422-4.266,3.864-9.366,1.909-13.6-3.067-6.647-11.214-9.151-18.606-10.3A64.1,64.1,0,0,0-544,458.64c3.759-1.791,7.851-3.938,9.93-7.7,3.5-6.333-.955-11.472-6.429-14.062,4.9-1.066,10.331-3.126,12.2-7.8,2.143-5.371-.076-11.486-3.112-16.778,7.321,6.132,16.775,11.708,25.7,9.6,5.88-1.388,9.046-7.237,10.719-12.991a40.059,40.059,0,0,0,7.881,17.752c4.7,5.618,10.258,5.47,14.871,1.556-1.23,5.917-.172,11.788,7.822,10.724,8.582-1.141,17-6.4,24.537-11.215-3.6,5.577-6.772,13.065-3.824,18.505,3.171,5.855,12.553,7.359,20.632,7.661A66.052,66.052,0,0,0-441.523,461.3Z" transform="translate(562.772 -401.828)"/>
        <path id="Trazado_121557" data-name="Trazado 121557" d="M-424.621,454.713a.191.191,0,0,0-.185-.317c-1.83.485-3.515,1.281-5.383,1.662-2.187.445-4.435.11-6.637.308-.09.008-.151.141-.052.189C-433.256,458.244-427.39,457.8-424.621,454.713Z" transform="translate(486.303 -433.767)"/>
        <path id="Trazado_121558" data-name="Trazado 121558" d="M-403.289,450.906a1.393,1.393,0,0,0,.981-1.118.18.18,0,0,0-.224-.171,2.01,2.01,0,0,0-1.137.908C-403.851,450.781-403.514,451-403.289,450.906Z" transform="translate(466.124 -430.865)"/>
        <path id="Trazado_121559" data-name="Trazado 121559" d="M-261.257,513.074c-2.553-1.083-4.752-1.214-6.577-3.635-1.811-2.4-1.761-5.415-1.946-8.266a.3.3,0,0,0-.6-.081c-1.294,3.142-.294,6.86,1.7,9.487,1.558,2.05,4.866,3.883,7.415,2.7A.12.12,0,0,0-261.257,513.074Z" transform="translate(385.45 -462.017)"/>
        <path id="Trazado_121560" data-name="Trazado 121560" d="M-360.076,628.528c-4.773-.957-12.341,1.317-14.22,6.3-.027.076.076.123.128.074a22.647,22.647,0,0,1,7.091-4.489c2.222-.9,4.69-.978,7-1.51A.2.2,0,0,0-360.076,628.528Z" transform="translate(448.247 -539.453)"/>
        <path id="Trazado_121561" data-name="Trazado 121561" d="M-502.371,565.9c-.119-.043-.18.133-.083.2a12.8,12.8,0,0,1,5.124,5.945c1.018,2.462.384,4.6-.16,7.043-.053.237.251.46.434.253C-493.074,574.776-497.652,567.624-502.371,565.9Z" transform="translate(526.148 -501.521)"/>
      </g>
    </g>
    <g id="Grupo_89339" data-name="Grupo 89339" transform="translate(1762.715 -415.775)">
      <path id="Trazado_121562" data-name="Trazado 121562" d="M-526.1,932.516a.818.818,0,0,0-.6-.9q-20.321-6.152-40.87-11.575a.832.832,0,0,0-1.03.951c-1.873,4.748-2.943,9.947-4.335,14.845-1.29,4.538-3.04,9.184-3.854,13.836,0,.027,0,.048,0,.074a.9.9,0,0,0,.556,1.293c6.445,1.845,12.928,3.558,19.415,5.254q-1.108,4.049-2.252,8.085a.738.738,0,0,0-.23.357,87.576,87.576,0,0,0-9.065,7.22c-.753.736.28,2.158,1.149,1.49,2.417-1.853,4.8-3.762,7.18-5.665q-.922,3.237-1.84,6.476a.9.9,0,0,0,1.735.479c.632-2.182,1.286-4.352,1.941-6.52,1.041,2.822,2.078,5.646,3.149,8.455a.95.95,0,0,0,1.83-.5,95.572,95.572,0,0,0-4.009-10.874.825.825,0,0,0,0-.3c.813-2.716,1.6-5.442,2.332-8.19,6.523,1.7,13.048,3.4,19.543,5.207a1.085,1.085,0,0,0,1.727-.542c3.031-9.178,5.212-18.761,7.618-28.12A1.085,1.085,0,0,0-526.1,932.516Z" fill="#fff"/>
      <g id="Grupo_89338" data-name="Grupo 89338" transform="translate(-576.882 920.009)">
        <path id="Trazado_121563" data-name="Trazado 121563" d="M-526.1,932.516a.818.818,0,0,0-.6-.9q-20.321-6.152-40.87-11.575a.832.832,0,0,0-1.03.951c-1.873,4.748-2.943,9.947-4.335,14.845-1.29,4.538-3.04,9.184-3.854,13.836,0,.027,0,.048,0,.074a.9.9,0,0,0,.556,1.293c6.445,1.845,12.928,3.558,19.415,5.254q-1.108,4.049-2.252,8.085a.738.738,0,0,0-.23.357,87.6,87.6,0,0,0-9.065,7.22c-.753.736.28,2.158,1.15,1.491,2.417-1.854,4.8-3.762,7.18-5.665q-.922,3.237-1.84,6.477a.9.9,0,0,0,1.735.478c.632-2.182,1.286-4.352,1.941-6.52,1.041,2.822,2.078,5.646,3.149,8.455a.95.95,0,0,0,1.83-.5,95.572,95.572,0,0,0-4.009-10.874.825.825,0,0,0,0-.3c.813-2.716,1.6-5.442,2.332-8.19,6.523,1.7,13.048,3.4,19.543,5.207a1.085,1.085,0,0,0,1.727-.542c3.031-9.178,5.212-18.761,7.618-28.12A1.085,1.085,0,0,0-526.1,932.516Zm-9.446,27.4q-19.564-5.438-39.256-10.449c1.556-4.219,2.448-8.829,3.636-13.146,1.306-4.748,3.013-9.581,3.9-14.445q19.483,5.57,38.977,11.1C-530.73,941.9-533.64,950.857-535.545,959.918Z" transform="translate(576.882 -920.009)"/>
        <path id="Trazado_121564" data-name="Trazado 121564" d="M-562.025,958.712a.712.712,0,0,0,.528.48c11.792,3,23.617,5.922,35.341,9.174a.74.74,0,0,0,.783-.222.665.665,0,0,0,.079-.08c.009-.012.013-.027.02-.04a.786.786,0,0,0,.125-.243q3.313-11.844,6.64-23.683a.755.755,0,0,0-.065-.59c0-.009-.005-.017-.01-.026a.645.645,0,0,0-.069-.09.757.757,0,0,0-.436-.316q-17.578-4.919-35.161-9.818a.748.748,0,0,0-.469.021.742.742,0,0,0-.548.545q-3.41,12.179-6.8,24.365A.745.745,0,0,0-562.025,958.712Zm8.138-23.658q16.779,4.694,33.555,9.4-3.091,11.048-6.166,22.1c-11.206-3.1-22.5-5.872-33.771-8.733Q-557.083,946.436-553.887,935.055Z" transform="translate(565.607 -930.091)"/>
        <path id="Trazado_121565" data-name="Trazado 121565" d="M-509.967,984.4c-4.753,2.787-9.148,6.188-13.605,9.416-1.492,1.08-2.984,2.162-4.505,3.2-.4.273-.421-1.476-.856-2.454-1.166-2.622-2.306-5.248-3.345-7.923a.955.955,0,0,0-1.388-.565c-3.555,2.607-7.264,5.044-10.547,8-.5.452.161,1.319.724.938,3.292-2.233,6.632-4.38,9.88-6.676,1.433,3.5,2.982,6.942,4.5,10.4a.933.933,0,0,0,1.276.335,165.63,165.63,0,0,0,18.728-13.563C-508.475,984.987-509.289,984-509.967,984.4Z" transform="translate(552.107 -969.036)"/>
      </g>
    </g>
    <g id="Grupo_89341" data-name="Grupo 89341" transform="matrix(0.809, -0.588, 0.588, 0.809, 480.292, -918.55)">
      <path id="Trazado_121566" data-name="Trazado 121566" d="M-314.34,1266.28c-3.224-2.886-9.42-2.535-13.429-2.634-5.18-.128-11.837-.866-16.663,1.273-1.654.733-3.523,1.733-3.727,3.751-.22,2.174-.2,4.741,1.954,5.776-.668,8.018,2.087,13.873,8.536,18.48,4.272,3.051-.134,6.248-2.626,8.22a19.264,19.264,0,0,0-3.525,3.866,15.764,15.764,0,0,0-2.522,11.884c-2.849,2.511-3.241,7.545.623,9.208,4.15,1.786,9.439,1.673,13.834,1.752,4.634.083,12.05.728,16.022-2.222,2.36-1.752,1.537-6.126-.414-8.045a19.366,19.366,0,0,0-1.706-11.941,16.244,16.244,0,0,0-3.316-4.427c-2.272-2.232-7.094-4.975-2.652-8.295,6.24-4.664,9.083-10.089,8.571-17.95C-312.241,1273.824-311.842,1268.517-314.34,1266.28Z" transform="translate(0 -0.405)" fill="#fff"/>
      <g id="Grupo_89340" data-name="Grupo 89340" transform="translate(-348.549 1262.914)">
        <path id="Trazado_121567" data-name="Trazado 121567" d="M-327.769,1263.646c-5.18-.128-11.837-.866-16.663,1.273-1.654.733-3.523,1.733-3.727,3.751-.22,2.174-.2,4.741,1.954,5.776-.668,8.018,2.087,13.873,8.536,18.48,4.272,3.051-.134,6.248-2.626,8.22a19.271,19.271,0,0,0-3.525,3.866,15.764,15.764,0,0,0-2.522,11.884c-2.849,2.511-3.241,7.545.623,9.208,4.15,1.786,9.439,1.673,13.834,1.752,4.634.083,12.05.728,16.022-2.222,2.36-1.752,1.537-6.126-.414-8.045a19.366,19.366,0,0,0-1.706-11.941,16.247,16.247,0,0,0-3.316-4.427c-2.272-2.232-7.094-4.975-2.652-8.295,6.24-4.664,9.083-10.089,8.571-17.95,3.14-1.153,3.539-6.459,1.04-8.7C-317.564,1263.394-323.76,1263.745-327.769,1263.646Zm10.369,60.973c-1.226.91-3.886.995-5.315,1.159a78.621,78.621,0,0,1-10.174.338,59.825,59.825,0,0,1-8-.514c-1.086-.165-2.173-.474-3.245-.713-1.8-.4-2.524-1.352-2.672-2.5l.367.13a5.661,5.661,0,0,0,1.891.4.14.14,0,0,0,.07-.258,5.52,5.52,0,0,0-1.554-.742c-.264-.09-.53-.2-.8-.3a5.772,5.772,0,0,1,.148-.921,10.167,10.167,0,0,0,6.081,1.506.158.158,0,0,0,.042-.309c-1.117-.339-2.276-.492-3.4-.787-.883-.23-1.7-.7-2.557-.986.108-.339.238-.674.38-1,2.987,2.329,8.289,2.708,11.738,2.32.141-.016.2-.247.036-.272-4.112-.607-7.8-.808-11.536-2.569q.13-.272.266-.531c8.383,3.631,19.244,2.494,28.032.626C-316,1319.963-315.685,1323.345-317.4,1324.619Zm-10.372-29.83c-1.327,3.3,3.287,6.032,5.206,7.7,4.21,3.653,5.191,9.449,4.657,14.713-9.144,1.188-17.646,2.041-26.737-.052a15.815,15.815,0,0,1,5.062-14.257c2.514-2.351,6.043-3.9,5.766-7.863-.206-2.938-4.855-4.94-6.681-6.71-3.818-3.7-3.708-9.04-4.244-13.949,3.921-.157,7.864-.795,11.792-.949,4.883-.193,11.457-.852,16.03,1.343-.481,4.644-.518,9.268-3.7,13.021C-322.816,1290.371-326.463,1291.535-327.772,1294.789Zm11.808-21.42a.858.858,0,0,0-.132.086c-4.35-2.172-10.245-1.748-14.927-1.671-4.19.068-10.466-.363-14.5,1.519a4.671,4.671,0,0,1-.417-.487,21.028,21.028,0,0,1,4.973-1.754c2.057-.4,4.155-.332,6.227-.563.182-.02.26-.31.047-.347-3.311-.581-8.752-.233-11.535,2.232a3.449,3.449,0,0,1-.321-.821,8.46,8.46,0,0,1,3.273-1.846c1.241-.367,2.537-.435,3.787-.739a.146.146,0,0,0,0-.279c-1.954-.435-5.482.213-7.17,1.927a3.767,3.767,0,0,1,.311-1.347c2.246-1.418,5.267-1.841,7.778-2.111.152-.016.217-.261.039-.29a11.585,11.585,0,0,0-7.336,1.541,6.27,6.27,0,0,1,3.065-2.289,22.035,22.035,0,0,1,6.3-.743c2.6-.075,5.219-.092,7.823-.066a57.084,57.084,0,0,1,9.2.757,12.072,12.072,0,0,1,3.25,1C-314.463,1267.935-314.017,1272.583-315.964,1273.369Z" transform="translate(348.549 -1263.319)"/>
        <path id="Trazado_121568" data-name="Trazado 121568" d="M-301.317,1352.338c-3-.909-6.434-.872-9.531-.836-2.405.026-6.416-.141-8.411,1.53-3.118,2.613,2.809,6.293,5.527,8.238a6.735,6.735,0,0,1,2.5,3.363c.97,3.377-1.816,5.9-4.181,7.684a16.4,16.4,0,0,0-6.4,10.213,4.719,4.719,0,0,0,.775,3.565c1.153,1.254,2.975,1.28,4.569,1.435a81.69,81.69,0,0,0,12.77.049c2.83-.17,5.3-.2,5.826-3.553.669-4.3-2.385-8.716-5.58-11.172-2.836-2.18-5.063-5.05-3.355-8.793.938-2.058,3.532-3.349,5.116-4.883C-299.615,1357.171-297.294,1353.557-301.317,1352.338Zm-.626,5.886c-2.737,2.9-6.878,4.609-6.236,9.326a7.775,7.775,0,0,0,3.219,5.262c2.579,2.064,4.385,3.692,5.554,6.881.739,2.015,1.6,6.137-1.414,6.65a45.756,45.756,0,0,1-5.192.437,60.012,60.012,0,0,1-12.9-.314c-3.47-.576-1.967-5.295-1.029-7.3a17.121,17.121,0,0,1,4.541-5.859c2.684-2.222,4.928-3.9,5.025-7.638a5.363,5.363,0,0,0-2.174-4.22c-1.8-2.087-4.5-3.234-6.153-5.519-2.541-3.517,7.255-3.5,8.93-3.523a41.543,41.543,0,0,1,6.4.366,14.243,14.243,0,0,1,2.121.467C-298.175,1354.179-300.9,1357.124-301.942,1358.225Z" transform="translate(327.188 -1333.821)"/>
        <path id="Trazado_121569" data-name="Trazado 121569" d="M-273.531,1552.8a.158.158,0,0,0,0,.271.766.766,0,0,0,.767-.025.131.131,0,0,0,0-.222A.768.768,0,0,0-273.531,1552.8Z" transform="translate(288.555 -1494.909)"/>
        <path id="Trazado_121570" data-name="Trazado 121570" d="M-304.791,1557.4a.2.2,0,0,0,0,.4.686.686,0,0,0,.431-.067.1.1,0,0,0,.035-.133C-304.44,1557.409-304.574,1557.4-304.791,1557.4Z" transform="translate(313.673 -1498.663)"/>
        <path id="Trazado_121571" data-name="Trazado 121571" d="M-274.3,1297.4a.181.181,0,0,0,0,.347,1.145,1.145,0,0,0,.794,0,.152.152,0,0,0,.031-.237A.809.809,0,0,0-274.3,1297.4Z" transform="translate(289.211 -1290.479)"/>
        <path id="Trazado_121572" data-name="Trazado 121572" d="M-172.894,1265.21c-.5-1.177-1.939-3.021-3.375-2a.123.123,0,0,0,0,.21,11.958,11.958,0,0,1,1.445.645,3.657,3.657,0,0,1,1.223,2.026,24.329,24.329,0,0,1,.414,3.646.174.174,0,0,0,.29.077C-171.949,1268.664-172.362,1266.457-172.894,1265.21Z" transform="translate(210.679 -1262.914)"/>
        <path id="Trazado_121573" data-name="Trazado 121573" d="M-335.619,1445.046a19.834,19.834,0,0,1,2.305-3.838c.92-1.086,2.2-1.587,3.207-2.516a.159.159,0,0,0-.112-.27c-1.423-.085-2.765,1.258-3.663,2.219a6.964,6.964,0,0,0-2.068,4.316A.178.178,0,0,0-335.619,1445.046Z" transform="translate(338.462 -1403.414)"/>
        <path id="Trazado_121574" data-name="Trazado 121574" d="M-192.551,1455a.255.255,0,0,0-.308.4,12.732,12.732,0,0,1,2.773,4.974,20.954,20.954,0,0,1,.334,5.851.158.158,0,0,0,.31.042C-188.285,1462.776-188.948,1456.93-192.551,1455Z" transform="translate(223.962 -1416.661)"/>
      </g>
    </g>
    <g id="Grupo_89343" data-name="Grupo 89343" transform="translate(1069.083 -1787.416) rotate(60)">
      <path id="Trazado_121575" data-name="Trazado 121575" d="M2099.519,815.969c-.3-.581-.6-1.158-.9-1.735.3-.009.6-.012.9-.026.01,0,.017-.005.026-.006a.662.662,0,0,0,.656-.873,273.686,273.686,0,0,0-14.122-29.056,1.387,1.387,0,0,0-.121-.177.72.72,0,0,0-.291-.432,18.659,18.659,0,0,0-18.106-2,22.833,22.833,0,0,0-3.336,1.362c-3.467,1.755-7.906,6.678-7.716,10.979-11.054-1.773-23.661,3.936-26.411,15.431a.746.746,0,0,0,.348.792c.2.39.405.778.607,1.168a16.1,16.1,0,0,0-1.234,2.487.667.667,0,0,0-.164.809c5.12,10.593,11.531,20.541,16.645,31.13l0,0,.011.014a.534.534,0,0,0,.825.192.663.663,0,0,0,.323-.363c3.734-9.654,15.6-17.521,26.139-14.742a.771.771,0,0,0,.971-.894c3.2-10.276,15.275-13.8,24.775-11.474a.7.7,0,0,0,.776-1.057A5.909,5.909,0,0,0,2099.519,815.969Z" transform="translate(0)" fill="#fff"/>
      <g id="Grupo_89342" data-name="Grupo 89342" transform="translate(2029.58 780.191)">
        <path id="Trazado_121576" data-name="Trazado 121576" d="M2055.674,867.277c2.835-7.628,9.036-9.576,16.594-8.979.731.058.875-1.1.172-1.268-8.1-1.881-15.3,2.11-17.947,9.921C2054.237,867.707,2055.4,868.007,2055.674,867.277Z" transform="translate(-2048.026 -836.825)"/>
        <path id="Trazado_121577" data-name="Trazado 121577" d="M2068.513,884.987a.63.63,0,0,0,1.086.635c3.2-5.147,10.008-8.382,15.85-8.688.719-.037.957-1.177.178-1.317C2079.59,874.536,2071.213,879.594,2068.513,884.987Z" transform="translate(-2058.392 -850.841)"/>
        <path id="Trazado_121578" data-name="Trazado 121578" d="M2079.039,904.758c-.347.735.73,1.383,1.1.643,2.97-5.923,9.846-7.736,15.94-7.933.7-.022.917-1.148.172-1.268C2089.8,895.159,2081.893,898.715,2079.039,904.758Z" transform="translate(-2066.203 -866.078)"/>
        <path id="Trazado_121579" data-name="Trazado 121579" d="M2087.582,923.151a.675.675,0,0,0,1.165.681c3.364-5.79,8.9-7.512,15.178-8.313a.659.659,0,0,0,0-1.317A17.472,17.472,0,0,0,2087.582,923.151Z" transform="translate(-2072.521 -879.524)"/>
        <path id="Trazado_121580" data-name="Trazado 121580" d="M2119.123,935.461a34.337,34.337,0,0,1,8.656-4.426.638.638,0,0,0-.338-1.229c-3.323.461-6.347,2.582-8.954,4.569C2117.857,934.855,2118.457,935.94,2119.123,935.461Z" transform="translate(-2095.307 -891.124)"/>
        <path id="Trazado_121581" data-name="Trazado 121581" d="M2155.064,812.679c2.574-7.718,10.946-9.392,17.935-7.422a.665.665,0,0,0,.51-1.211c-6.972-4.472-17.607.932-19.729,8.279A.667.667,0,0,0,2155.064,812.679Z" transform="translate(-2121.651 -796.673)"/>
        <path id="Trazado_121582" data-name="Trazado 121582" d="M2165.507,831.823c-.451.736.669,1.366,1.144.668,3.6-5.294,9.638-6.714,15.672-6.144.814.077.913-1.151.186-1.374C2176.218,823.045,2168.854,826.352,2165.507,831.823Z" transform="translate(-2130.292 -812.987)"/>
        <path id="Trazado_121583" data-name="Trazado 121583" d="M2176.18,853.11c-.539.748.684,1.43,1.223.714,3.552-4.72,9.756-6.519,15.42-6.091.751.057.844-1.062.172-1.269C2187.047,844.636,2179.657,848.274,2176.18,853.11Z" transform="translate(-2138.184 -828.976)"/>
        <path id="Trazado_121584" data-name="Trazado 121584" d="M2185.513,872.234c-.54.681.4,1.659.972.971,4.008-4.8,10.37-6.185,16.284-6.838a.68.68,0,0,0,0-1.358C2196.712,864.445,2189.3,867.45,2185.513,872.234Z" transform="translate(-2145.084 -843.033)"/>
        <path id="Trazado_121585" data-name="Trazado 121585" d="M2193.571,890.064a.671.671,0,0,0,1.158.677c3.159-5.457,10.269-7.091,16.067-7.244.726-.019.93-1.145.176-1.3C2204.88,880.935,2196.54,884.494,2193.571,890.064Z" transform="translate(-2151.115 -855.639)"/>
        <path id="Trazado_121586" data-name="Trazado 121586" d="M2099.519,815.969c-.3-.581-.6-1.158-.9-1.735.3-.009.6-.012.9-.026.01,0,.017-.005.026-.006a.662.662,0,0,0,.656-.873,273.686,273.686,0,0,0-14.122-29.056,1.387,1.387,0,0,0-.121-.177.72.72,0,0,0-.291-.432,18.659,18.659,0,0,0-18.106-2,22.833,22.833,0,0,0-3.336,1.362c-3.467,1.755-7.906,6.678-7.716,10.979-11.054-1.773-23.661,3.936-26.411,15.431a.746.746,0,0,0,.348.792c.2.39.405.778.607,1.168a16.1,16.1,0,0,0-1.234,2.487.667.667,0,0,0-.164.809c5.119,10.593,11.531,20.541,16.645,31.13l0,0,.011.014a.534.534,0,0,0,.825.192.664.664,0,0,0,.323-.363c3.734-9.654,15.6-17.521,26.139-14.742a.771.771,0,0,0,.971-.894c3.2-10.276,15.275-13.8,24.774-11.474a.7.7,0,0,0,.776-1.057A5.909,5.909,0,0,0,2099.519,815.969ZM2065.3,784.864c5.633-3.583,12.671-2.287,18.407.245a1.35,1.35,0,0,0,.15.462c4.832,8.944,9.433,18.011,14.308,26.929-10.1-2.028-22.652,1.156-26.021,11.423-4.76-9.557-9.131-19.3-13.888-28.862,0-.009,0-.016,0-.025C2058.048,790.833,2062.03,786.941,2065.3,784.864Zm-8.865,11.438c4.519,9.776,9.075,19.555,13.925,29.173-9-2.547-20.061,2.812-23.436,11.539-4.86-9.368-9.652-18.781-14.777-28.007a.993.993,0,0,0-.145-.171C2036.692,799.2,2045.99,795.455,2056.432,796.3Zm16.885,32.856c-9.981-2.907-23.058,5.063-26.58,14.583-4.549-10.04-10.584-19.491-15.686-29.254a10.4,10.4,0,0,0,.891-1.371c4.556,8.794,9.155,17.565,13.727,26.351a.986.986,0,0,0,.607.522.627.627,0,0,0,1.1.007c5.675-9.823,13.28-13.85,24.562-11.947a1.07,1.07,0,0,0,1.2-1.118c2.479-5.171,5.184-9.2,10.9-11.266,4.153-1.5,8.5-1.352,12.825-1.393.372.784.747,1.563,1.151,2.331l.022.042C2088.874,814.354,2075.493,819.272,2073.318,829.157Z" transform="translate(-2029.579 -780.191)"/>
      </g>
    </g>
  </g>
</svg>
