<svg xmlns="http://www.w3.org/2000/svg" xmlns:xlink="http://www.w3.org/1999/xlink" width="100" height="99" viewBox="0 0 100 99">
  <defs>
    <clipPath id="clip-path">
      <rect id="Rectángulo_35164" data-name="Rectángulo 35164" width="90" height="99" transform="translate(867 4304)" fill="#fff"/>
    </clipPath>
  </defs>
  <g id="_20" data-name="20" transform="translate(-867 -5033)">
    <circle id="Elipse_4851" data-name="Elipse 4851" cx="36" cy="36" r="36" transform="translate(895 5033)" fill="#ffd947"/>
    <g id="Enmascarar_grupo_113" data-name="Enmascarar grupo 113" transform="translate(0 729)" clip-path="url(#clip-path)">
      <g id="car_store" data-name="car store" transform="translate(864 4305.5)">
        <path id="Trazado_121407" data-name="Trazado 121407" d="M42,15H73.5a18,18,0,0,1,18,18v3H42Z" fill="#ffde55"/>
        <circle id="Elipse_4858" data-name="Elipse 4858" cx="7.5" cy="7.5" r="7.5" transform="translate(64.5 28.5)" fill="#c6c5ca"/>
        <path id="Trazado_121408" data-name="Trazado 121408" d="M69,15H42V4.5C56.91,4.5,69,15,69,15Z" fill="#57a4ff"/>
        <path id="Trazado_121409" data-name="Trazado 121409" d="M42,15h4.5v6H42Z" fill="#ff7956"/>
        <path id="Trazado_121410" data-name="Trazado 121410" d="M42,15V36H10.5l-6-9V18a3.009,3.009,0,0,1,3-3Z" fill="#ffde55"/>
        <path id="Trazado_121411" data-name="Trazado 121411" d="M91.5,33v3h-6V33a18,18,0,0,0-18-18h6A18,18,0,0,1,91.5,33Z" fill="#ebbf00"/>
        <path id="Trazado_121412" data-name="Trazado 121412" d="M87.6,22.5H78L73.5,18H83.91a16.651,16.651,0,0,1,1.455,1.455A17.1,17.1,0,0,1,87.6,22.5Z" fill="#ff7956"/>
        <path id="Trazado_121413" data-name="Trazado 121413" d="M87.6,22.5H82.125A18,18,0,0,0,77.46,18h6a16.386,16.386,0,0,1,1.9,1.455A17.1,17.1,0,0,1,87.6,22.5Z" fill="#ff5023"/>
        <path id="Trazado_121414" data-name="Trazado 121414" d="M36,15h6V36H36Z" fill="#ebbf00"/>
        <path id="Trazado_121415" data-name="Trazado 121415" d="M42,4.5V15H15S27.09,4.5,42,4.5Z" fill="#2488ff"/>
        <circle id="Elipse_4859" data-name="Elipse 4859" cx="7.5" cy="7.5" r="7.5" transform="translate(18 28.5)" fill="#c6c5ca"/>
        <path id="Trazado_121416" data-name="Trazado 121416" d="M79.5,36A7.5,7.5,0,0,1,72,43.5a7.659,7.659,0,0,1-3-.615,7.516,7.516,0,0,0,0-13.77,7.659,7.659,0,0,1,3-.615A7.5,7.5,0,0,1,79.5,36Z" fill="#898890"/>
        <path id="Trazado_121417" data-name="Trazado 121417" d="M33,36a7.5,7.5,0,0,1-7.5,7.5,7.659,7.659,0,0,1-3-.615,7.516,7.516,0,0,0,0-13.77,7.659,7.659,0,0,1,3-.615A7.5,7.5,0,0,1,33,36Z" fill="#898890"/>
        <path id="Trazado_121418" data-name="Trazado 121418" d="M12,18l-1.5,4.5h-6V18Z" fill="#ff7956"/>
        <path id="Trazado_121419" data-name="Trazado 121419" d="M72,46.5H91.5a5.992,5.992,0,0,1-6,6h-75a6,6,0,0,1-6-6Z" fill="#57a4ff"/>
        <path id="Trazado_121420" data-name="Trazado 121420" d="M41.76,75H55.5l19.995-4.56,5.295-1.56a3.6,3.6,0,0,1,1.035-.15,3.677,3.677,0,0,1,1.23,7.14l-1.185.36h-.045a3.6,3.6,0,0,0-1.035.15L60,82.5H48L34.5,75Z" fill="#ffc477"/>
        <path id="Trazado_121421" data-name="Trazado 121421" d="M85.5,79.9a3.672,3.672,0,0,1-2.445,3.465L60,91.5H37.5l-18-6h-6V66L21,63h9l13.575,2.715L52.5,67.5l1.98,1.98L55.5,70.5V75h-21L48,82.5H60l20.79-6.12a3.6,3.6,0,0,1,1.035-.15h.045A3.681,3.681,0,0,1,85.5,79.9Z" fill="#ffdaaa"/>
        <g id="Grupo_89293" data-name="Grupo 89293">
          <path id="Trazado_121422" data-name="Trazado 121422" d="M85.5,79.9a3.672,3.672,0,0,1-2.445,3.465L60,91.5H37.5l-18-6h-6V81h6l18,6H60l23.055-8.13a3.388,3.388,0,0,0,1.665-1.23A3.662,3.662,0,0,1,85.5,79.9Z" fill="#ffc477"/>
          <path id="Trazado_121423" data-name="Trazado 121423" d="M76.5,67.9a3.69,3.69,0,0,1-1,2.535L55.5,75V70.5l-1.02-1.02,7.695-2.265L71.79,64.38a3.6,3.6,0,0,1,1.035-.15A3.681,3.681,0,0,1,76.5,67.9Z" fill="#ffc477"/>
          <path id="Trazado_121424" data-name="Trazado 121424" d="M63,64.9a3.624,3.624,0,0,1-.825,2.31l-7.7,2.265L52.5,67.5l-8.925-1.785L58.29,61.38a3.6,3.6,0,0,1,1.035-.15A3.681,3.681,0,0,1,63,64.9Z" fill="#ffc477"/>
        </g>
        <path id="Trazado_121425" data-name="Trazado 121425" d="M13.5,85.5v3l-9,3v-33l9,3v24Z" fill="#00d7df"/>
        <path id="Trazado_121426" data-name="Trazado 121426" d="M73.5,13.5H69.54C67.245,11.625,55.935,3,42,3S16.77,11.625,14.46,13.5H7.5A4.513,4.513,0,0,0,3,18v9a1.451,1.451,0,0,0,.255.825l6,9A1.5,1.5,0,0,0,10.5,37.5h6.135a8.989,8.989,0,0,0,17.73,0h28.77a8.99,8.99,0,0,0,17.73,0H91.5A1.5,1.5,0,0,0,93,36V33A19.518,19.518,0,0,0,73.5,13.5Zm0,3A16.473,16.473,0,0,1,84.795,21h-7.68l-4.5-4.5ZM6,18a1.5,1.5,0,0,1,1.5-1.5h3.78L9.48,21H6ZM25.5,42a6,6,0,1,1,6-6A6,6,0,0,1,25.5,42Zm15-7.5H34.365a8.989,8.989,0,0,0-17.73,0H11.31L6,26.55V24h4.5a1.5,1.5,0,0,0,1.395-.945L14.52,16.5H40.5Zm-20.91-21C24.135,10.5,32.52,6,42,6s17.865,4.5,22.41,7.5Zm29.91,3V18A1.5,1.5,0,0,1,48,19.5H43.5v-3ZM72,42a6,6,0,1,1,6-6A6,6,0,0,1,72,42Zm18-7.5H80.865a8.989,8.989,0,0,0-17.73,0H43.5v-12H48A4.514,4.514,0,0,0,52.5,18V16.5H68.385l7.05,7.065A1.55,1.55,0,0,0,76.5,24H87.315A16.406,16.406,0,0,1,90,33Z"/>
        <path id="Trazado_121427" data-name="Trazado 121427" d="M87,72.4a5.172,5.172,0,0,0-6.63-4.965l-2.4.705A1.312,1.312,0,0,0,78,67.9a5.172,5.172,0,0,0-6.63-4.965L64.5,64.965V64.9a5.172,5.172,0,0,0-6.63-4.965L43.5,64.17,30.3,61.53a2.032,2.032,0,0,0-.3-.03H21a1.405,1.405,0,0,0-.555.1L15,63.78V61.5a1.521,1.521,0,0,0-1.02-1.425l-9-3a1.5,1.5,0,0,0-1.35.21A1.475,1.475,0,0,0,3,58.5v33a1.474,1.474,0,0,0,.63,1.215A1.408,1.408,0,0,0,4.5,93a1.777,1.777,0,0,0,.48-.075l9-3A1.521,1.521,0,0,0,15,88.5V87h4.26l17.76,5.925A1.777,1.777,0,0,0,37.5,93H60a1.378,1.378,0,0,0,.495-.09L83.55,84.78A5.173,5.173,0,0,0,87,79.9a5.11,5.11,0,0,0-1.65-3.735A5.184,5.184,0,0,0,87,72.4ZM12,87.42l-6,2V60.585l6,2Zm60.225-21.6a1.935,1.935,0,0,1,.6-.09,2.127,2.127,0,0,1,1.77,3.375L57,73.125V70.5c0-.06-.03-.12-.03-.195Zm-13.5-3a1.935,1.935,0,0,1,.6-.09A2.176,2.176,0,0,1,61.5,64.9a2.123,2.123,0,0,1-.3,1.035l-6.285,1.845-1.35-1.35a1.521,1.521,0,0,0-.765-.405l-2.97-.6ZM82.56,81.945,59.745,90h-22L19.98,84.075A1.777,1.777,0,0,0,19.5,84H15V67.02l6.285-2.52H29.85l21.915,4.38L54,71.115V73.5H34.5a1.5,1.5,0,0,0-.735,2.8l13.5,7.5A1.42,1.42,0,0,0,48,84H60a1.3,1.3,0,0,0,.42-.06l20.8-6.12a2.169,2.169,0,0,1,1.335,4.125Zm.06-7.515-1,.315a5.011,5.011,0,0,0-1.245.195L59.79,81H48.39l-7.425-4.125,1.05-.375H55.5a2.153,2.153,0,0,0,.33-.06v.03l20.085-4.59,5.31-1.56a1.935,1.935,0,0,1,.6-.09A2.176,2.176,0,0,1,84,72.4a2.132,2.132,0,0,1-1.38,2.025Z"/>
        <path id="Trazado_121428" data-name="Trazado 121428" d="M91.5,45H4.5A1.5,1.5,0,0,0,3,46.5,7.5,7.5,0,0,0,10.5,54h75A7.5,7.5,0,0,0,93,46.5,1.5,1.5,0,0,0,91.5,45Zm-6,6h-75a4.521,4.521,0,0,1-4.245-3h83.49A4.521,4.521,0,0,1,85.5,51Z"/>
      </g>
    </g>
  </g>
</svg>
