<svg xmlns="http://www.w3.org/2000/svg" xmlns:xlink="http://www.w3.org/1999/xlink" width="100" height="99" viewBox="0 0 100 99">
  <defs>
    <clipPath id="clip-path">
      <rect id="Rectángulo_35167" data-name="Rectángulo 35167" width="90" height="99" transform="translate(867 4769)" fill="#fff"/>
    </clipPath>
  </defs>
  <g id="_22" data-name="22" transform="translate(-867 -5498)">
    <circle id="Elipse_4853" data-name="Elipse 4853" cx="36" cy="36" r="36" transform="translate(895 5498)" fill="#ffd947"/>
    <g id="Enmascarar_grupo_115" data-name="Enmascarar grupo 115" transform="translate(0 729)" clip-path="url(#clip-path)">
      <g id="limpiar" transform="translate(867 4772.094)">
        <g id="Grupo_89295" data-name="Grupo 89295">
          <circle id="Elipse_4862" data-name="Elipse 4862" cx="2.812" cy="2.812" r="2.812" transform="translate(75.937 80.156)" fill="#c1ebf7"/>
          <path id="Trazado_121451" data-name="Trazado 121451" d="M36.014,32.442a4.592,4.592,0,0,1,1.9.422,3.576,3.576,0,0,1,.394.225,4.482,4.482,0,0,1,2.053,5.062L36.042,53.873a31.459,31.459,0,0,1-1.181,3.642A25.831,25.831,0,0,1,30.614,64.8a25.367,25.367,0,0,1-5.639,4.823,17.325,17.325,0,0,1-3.684,1.8L18.281,90H0V70.312L4.275,55.5a24.864,24.864,0,0,1,2.152-5.217L19.715,26.1a25.316,25.316,0,0,1,4.655-6.061L40.781,4.219s7.031,2.812,1.758,10.1l-1.125,1.912A8.83,8.83,0,0,0,35.367,19.1,48.1,48.1,0,0,0,23.048,50.062c4.275-3.544,5.077-6.469,5.077-6.469l3.769-8.466a4.5,4.5,0,0,1,4.12-2.686Z" fill="#ffcdc0"/>
          <path id="Trazado_121452" data-name="Trazado 121452" d="M0,84.374V90H18.281L21.29,71.423S16.875,84.374,0,84.374Z" fill="#f7b1a4"/>
          <path id="Trazado_121453" data-name="Trazado 121453" d="M67.5,43.593v7.031a5.846,5.846,0,0,1-2.616,4.866c-5.231,3.473-12.262,4.922-19.519,4.978-.127-8.086,1-19.308,5.3-33.44a41.543,41.543,0,0,1,5.048.858A28.135,28.135,0,0,1,64.884,31.7,5.846,5.846,0,0,1,67.5,36.562Z" fill="#b7855f"/>
          <path id="Trazado_121454" data-name="Trazado 121454" d="M64.884,55.49A5.846,5.846,0,0,0,67.5,50.625V43.593a5.846,5.846,0,0,1-2.616,4.866C59.706,51.9,52.75,53.35,45.569,53.423c-.174,2.555-.236,4.911-.2,7.037C52.619,60.412,59.657,58.961,64.884,55.49Z" fill="#9b6d4e"/>
          <path id="Trazado_121455" data-name="Trazado 121455" d="M55.715,47.752a35.536,35.536,0,0,0,9.169-2.677A3.993,3.993,0,0,0,67.5,41.656v-.887c0,.712-.984,1.378-2.616,1.772a62.427,62.427,0,0,1-9.169,1.388c-2.876.249-5.958.375-9.086.411q-.348,2.181-.591,4.216a65.032,65.032,0,0,0,9.676-.8Z" fill="#a57758"/>
          <path id="Trazado_121456" data-name="Trazado 121456" d="M88.593,16.875V70.312a5.623,5.623,0,0,1-5.625-5.625V22.5A5.623,5.623,0,0,1,88.593,16.875Z" fill="#b3b3b3"/>
          <path id="Trazado_121457" data-name="Trazado 121457" d="M75.937,36.562V50.625H67.5V36.562Z" fill="#b3b3b3"/>
          <path id="Trazado_121458" data-name="Trazado 121458" d="M82.968,25.312V61.875l-7.031-11.25V36.562Z" fill="#ccc"/>
          <path id="Trazado_121459" data-name="Trazado 121459" d="M41.414,16.228a8.773,8.773,0,0,1,3.487.478c3.445.816,6.047,4.7,6.047,8.339a7.187,7.187,0,0,1-.281,1.983c-4.3,14.133-5.428,25.355-5.3,33.44a54.2,54.2,0,0,0,1.322,11.925,4.354,4.354,0,0,1-7.861,3.417l-2.869-4.289a111.392,111.392,0,0,1-1.1-14.006,31.459,31.459,0,0,0,1.181-3.642l4.317-15.722a4.482,4.482,0,0,0-2.053-5.062,3.577,3.577,0,0,0-.394-.225,4.592,4.592,0,0,0-1.9-.422,4.5,4.5,0,0,0-4.12,2.686l-3.769,8.466s-.8,2.925-5.077,6.469A48.1,48.1,0,0,1,35.367,19.1a8.83,8.83,0,0,1,6.047-2.869Z" fill="#eae8e1"/>
          <path id="Trazado_121460" data-name="Trazado 121460" d="M82.968,22.5v7.031a5.623,5.623,0,0,1,5.625-5.625V16.875A5.623,5.623,0,0,0,82.968,22.5Z" fill="#ccc"/>
          <path id="Trazado_121461" data-name="Trazado 121461" d="M82.968,64.687V57.656a5.623,5.623,0,0,0,5.625,5.625v7.031A5.623,5.623,0,0,1,82.968,64.687Z" fill="#999"/>
          <path id="Trazado_121462" data-name="Trazado 121462" d="M75.937,45v5.625l7.031,11.25V47.812Z" fill="#b3b3b3"/>
          <path id="Trazado_121463" data-name="Trazado 121463" d="M67.5,45h8.437v5.625H67.5Z" fill="#999"/>
          <circle id="Elipse_4863" data-name="Elipse 4863" cx="2.812" cy="2.812" r="2.812" transform="translate(77.343 5.625)" fill="#c1ebf7"/>
          <circle id="Elipse_4864" data-name="Elipse 4864" cx="2.812" cy="2.812" r="2.812" transform="translate(8.437 18.281)" fill="#c1ebf7"/>
          <path id="Trazado_121464" data-name="Trazado 121464" d="M63.281,5.625c0,4.665,3.144,8.437,7.031,8.437a6.467,6.467,0,0,0-4.972,2.471A9.3,9.3,0,0,0,63.281,22.5a9.3,9.3,0,0,0-2.059-5.967,6.462,6.462,0,0,0-4.972-2.471,6.467,6.467,0,0,0,4.972-2.471A9.3,9.3,0,0,0,63.281,5.625Z" fill="#83caed"/>
          <path id="Trazado_121465" data-name="Trazado 121465" d="M61.875,63.281c0,5.442,3.773,9.844,8.437,9.844a7.838,7.838,0,0,0-5.967,2.883,10.666,10.666,0,0,0-2.471,6.961A10.666,10.666,0,0,0,59.4,76.007a7.838,7.838,0,0,0-5.967-2.883A7.838,7.838,0,0,0,59.4,70.242,10.666,10.666,0,0,0,61.875,63.281Z" fill="#83caed"/>
          <path id="Trazado_121466" data-name="Trazado 121466" d="M6.687,69.181a1.318,1.318,0,0,1-.284-.03,1.405,1.405,0,0,1-1.094-1.661c.053-.259,1.313-6.366,2.791-10.926a44.793,44.793,0,0,1,2.26-5.417,1.406,1.406,0,0,1,2.534,1.221,42.676,42.676,0,0,0-2.118,5.062c-1.429,4.41-2.7,10.564-2.711,10.626a1.411,1.411,0,0,1-1.378,1.125Z" fill="#ffe0dc"/>
          <path id="Trazado_121467" data-name="Trazado 121467" d="M35.958,71.521c.211,1.364.45,2.756.731,4.12a4.427,4.427,0,0,1-3.516,5.231,4.26,4.26,0,0,1-.83.084A4.452,4.452,0,0,1,28.209,78.1l-3.234-8.48A25.367,25.367,0,0,0,30.614,64.8a25.831,25.831,0,0,0,4.247-7.284A111.392,111.392,0,0,0,35.958,71.521Z" fill="#e6e6e6"/>
        </g>
        <g id="Grupo_89296" data-name="Grupo 89296">
          <path id="Trazado_121468" data-name="Trazado 121468" d="M88.593,15.469A7.039,7.039,0,0,0,81.562,22.5v2.409l-6.4,10.247h-6.4a7.224,7.224,0,0,0-3.091-4.629,29.543,29.543,0,0,0-9.63-4.011c-1.25-.291-2.5-.5-3.735-.682.024-.263.056-.525.056-.789,0-4.4-3.16-8.726-7.059-9.69a10.614,10.614,0,0,0-1.509-.377c1.889-2.673,2.524-5.169,1.873-7.418A7.858,7.858,0,0,0,41.3,2.914a1.406,1.406,0,0,0-1.5.294L23.4,19.021a26.671,26.671,0,0,0-4.916,6.4L5.2,49.6a26.268,26.268,0,0,0-2.274,5.51L.055,65.05a1.406,1.406,0,0,0,.962,1.741,1.451,1.451,0,0,0,.391.056,1.406,1.406,0,0,0,1.35-1.017l2.87-9.938A23.487,23.487,0,0,1,7.66,50.964L20.947,26.78a23.868,23.868,0,0,1,4.4-5.73L41.017,5.944A4.5,4.5,0,0,1,42.962,8.36c.4,1.416-.124,3.143-1.637,5.244l-.765,1.3a10.181,10.181,0,0,0-6.238,3.248A49.842,49.842,0,0,0,21.641,50.017a1.407,1.407,0,0,0,2.3,1.128c4.113-3.41,5.278-6.4,5.5-7.051l3.739-8.4a3.091,3.091,0,0,1,4.106-1.572,2.857,2.857,0,0,1,.314.181A3.088,3.088,0,0,1,39,37.78l-4.33,15.767a30.046,30.046,0,0,1-1.119,3.447,24,24,0,0,1-4,6.881,23.9,23.9,0,0,1-5.324,4.555,16.308,16.308,0,0,1-3.35,1.65A1.407,1.407,0,0,0,19.9,71.2L17.118,88.37a1.406,1.406,0,0,0,1.163,1.613A1.615,1.615,0,0,0,18.51,90,1.406,1.406,0,0,0,19.9,88.818l2.651-16.363c.43-.176,1.018-.446,1.7-.8L26.9,78.613a5.823,5.823,0,0,0,5.445,3.749,5.584,5.584,0,0,0,1.086-.108A5.754,5.754,0,0,0,38.12,77.19a5.744,5.744,0,0,0,4.32,1.966,5.648,5.648,0,0,0,2.137-.411,5.755,5.755,0,0,0,3.475-6.688,50.486,50.486,0,0,1-1.245-10.235c7.606-.253,14.112-2.014,18.853-5.164a7.227,7.227,0,0,0,3.092-4.631h6.4l6.405,10.25v2.409a7.039,7.039,0,0,0,7.031,7.031A1.407,1.407,0,0,0,90,70.312V16.875a1.407,1.407,0,0,0-1.406-1.406ZM34.854,78.214a2.994,2.994,0,0,1-1.957,1.28A2.959,2.959,0,0,1,29.524,77.6l-2.838-7.44a26.924,26.924,0,0,0,4.989-4.437,21.93,21.93,0,0,0,2-2.751c.165,2.649.436,5.649.9,8.764.243,1.571.487,2.94.742,4.186A3,3,0,0,1,34.854,78.214Zm8.675-2.074a3.033,3.033,0,0,1-3.534-1.111L37.308,71.01a111.2,111.2,0,0,1-1.035-13.255A32.5,32.5,0,0,0,37.4,54.246l4.319-15.729a5.925,5.925,0,0,0-1.806-6,18.787,18.787,0,0,1,2.611-6.051,1.406,1.406,0,0,0-2.275-1.654,20.921,20.921,0,0,0-2.9,6.39,5.786,5.786,0,0,0-1.335-.163,5.911,5.911,0,0,0-5.4,3.52L26.84,43.021a1.548,1.548,0,0,0-.068.186A10.491,10.491,0,0,1,24.7,46.493a46.912,46.912,0,0,1,11.7-26.45,7.571,7.571,0,0,1,8.035-2.008c.045.015.09.028.135.039,2.692.637,4.964,3.829,4.964,6.971a5.794,5.794,0,0,1-.221,1.574C45.6,38.833,43.8,50.23,43.956,60.487A55,55,0,0,0,45.32,72.732a2.935,2.935,0,0,1-1.792,3.407ZM64.106,54.319c-4.281,2.842-10.236,4.442-17.323,4.693a109.318,109.318,0,0,1,4.9-30.424c1.229.169,2.469.378,3.711.667a26.755,26.755,0,0,1,8.714,3.614,4.426,4.426,0,0,1,1.987,3.694V50.625A4.426,4.426,0,0,1,64.106,54.319Zm10.424-5.1H68.906V37.969h5.625Zm2.812,1V36.966l4.219-6.75V56.971Zm9.844,18.444a4.227,4.227,0,0,1-2.812-3.978V22.5a4.227,4.227,0,0,1,2.812-3.978Z" fill="#252525"/>
          <path id="Trazado_121469" data-name="Trazado 121469" d="M80.156,7.031a1.407,1.407,0,0,0,1.406-1.406V4.219a1.406,1.406,0,0,0-2.812,0V5.625A1.407,1.407,0,0,0,80.156,7.031Z" fill="#252525"/>
          <path id="Trazado_121470" data-name="Trazado 121470" d="M75.937,9.844h1.406a1.406,1.406,0,0,0,0-2.812H75.937a1.406,1.406,0,1,0,0,2.812Z" fill="#252525"/>
          <path id="Trazado_121471" data-name="Trazado 121471" d="M82.968,9.844h1.406a1.406,1.406,0,1,0,0-2.812H82.968a1.406,1.406,0,1,0,0,2.812Z" fill="#252525"/>
          <path id="Trazado_121472" data-name="Trazado 121472" d="M80.156,9.844a1.407,1.407,0,0,0-1.406,1.406v1.406a1.406,1.406,0,0,0,2.812,0V11.25A1.407,1.407,0,0,0,80.156,9.844Z" fill="#252525"/>
          <path id="Trazado_121473" data-name="Trazado 121473" d="M78.749,81.562a1.407,1.407,0,0,0,1.406-1.406V78.749a1.406,1.406,0,0,0-2.812,0v1.406A1.407,1.407,0,0,0,78.749,81.562Z" fill="#252525"/>
          <path id="Trazado_121474" data-name="Trazado 121474" d="M75.937,81.562H74.531a1.406,1.406,0,0,0,0,2.812h1.406a1.406,1.406,0,0,0,0-2.812Z" fill="#252525"/>
          <path id="Trazado_121475" data-name="Trazado 121475" d="M82.968,81.562H81.562a1.406,1.406,0,0,0,0,2.812h1.406a1.406,1.406,0,0,0,0-2.812Z" fill="#252525"/>
          <path id="Trazado_121476" data-name="Trazado 121476" d="M78.749,84.374a1.407,1.407,0,0,0-1.406,1.406v1.406a1.406,1.406,0,1,0,2.812,0V85.781A1.407,1.407,0,0,0,78.749,84.374Z" fill="#252525"/>
          <path id="Trazado_121477" data-name="Trazado 121477" d="M11.25,19.687a1.407,1.407,0,0,0,1.406-1.406V16.875a1.406,1.406,0,0,0-2.812,0v1.406A1.407,1.407,0,0,0,11.25,19.687Z" fill="#252525"/>
          <path id="Trazado_121478" data-name="Trazado 121478" d="M7.031,22.5H8.437a1.406,1.406,0,0,0,0-2.812H7.031a1.406,1.406,0,0,0,0,2.812Z" fill="#252525"/>
          <path id="Trazado_121479" data-name="Trazado 121479" d="M14.062,22.5h1.406a1.406,1.406,0,1,0,0-2.812H14.062a1.406,1.406,0,0,0,0,2.812Z" fill="#252525"/>
          <path id="Trazado_121480" data-name="Trazado 121480" d="M11.25,22.5a1.407,1.407,0,0,0-1.406,1.406v1.406a1.406,1.406,0,0,0,2.812,0V23.906A1.407,1.407,0,0,0,11.25,22.5Z" fill="#252525"/>
          <path id="Trazado_121481" data-name="Trazado 121481" d="M56.25,15.469a5.075,5.075,0,0,1,3.892,1.965A7.9,7.9,0,0,1,61.875,22.5a1.406,1.406,0,1,0,2.812,0,7.892,7.892,0,0,1,1.732-5.067,5.075,5.075,0,0,1,3.892-1.965,1.406,1.406,0,1,0,0-2.812c-3.1,0-5.625-3.154-5.625-7.031a1.406,1.406,0,1,0-2.812,0,7.9,7.9,0,0,1-1.732,5.067,5.075,5.075,0,0,1-3.892,1.965,1.406,1.406,0,0,0,0,2.812ZM62.3,12.492a9.765,9.765,0,0,0,.984-1.422,9.266,9.266,0,0,0,2.675,2.985,8.831,8.831,0,0,0-1.7,1.578,9.713,9.713,0,0,0-.979,1.412,9.747,9.747,0,0,0-.979-1.412,8.823,8.823,0,0,0-1.69-1.571A8.949,8.949,0,0,0,62.3,12.492Z" fill="#252525"/>
          <path id="Trazado_121482" data-name="Trazado 121482" d="M70.312,71.718c-3.877,0-7.031-3.784-7.031-8.437a1.406,1.406,0,0,0-2.812,0,9.252,9.252,0,0,1-2.133,6.045,6.439,6.439,0,0,1-4.9,2.392,1.406,1.406,0,0,0,0,2.812,6.439,6.439,0,0,1,4.9,2.392,9.253,9.253,0,0,1,2.133,6.045,1.406,1.406,0,0,0,2.812,0,9.252,9.252,0,0,1,2.133-6.045,6.439,6.439,0,0,1,4.9-2.392,1.406,1.406,0,0,0,0-2.812Zm-7.034,3.374a11.158,11.158,0,0,0-1.4,2.069,11.2,11.2,0,0,0-1.4-2.069,10.17,10.17,0,0,0-2.251-1.967,10.1,10.1,0,0,0,2.251-1.967,11.252,11.252,0,0,0,1.408-2.078,10.679,10.679,0,0,0,3.66,4.039,10.147,10.147,0,0,0-2.261,1.974Z" fill="#252525"/>
        </g>
      </g>
    </g>
  </g>
</svg>
