<svg xmlns="http://www.w3.org/2000/svg" xmlns:xlink="http://www.w3.org/1999/xlink" width="100" height="99" viewBox="0 0 100 99">
  <defs>
    <clipPath id="clip-path">
      <rect id="Rectángulo_35169" data-name="Rectángulo 35169" width="90" height="99" transform="translate(867 5234)" fill="#fff"/>
    </clipPath>
  </defs>
  <g id="_24" data-name="24" transform="translate(-867 -5963)">
    <circle id="Elipse_4855" data-name="Elipse 4855" cx="36" cy="36" r="36" transform="translate(895 5963)" fill="#ffd947"/>
    <g id="Enmascarar_grupo_117" data-name="Enmascarar grupo 117" transform="translate(0 729)" clip-path="url(#clip-path)">
      <g id="llamada-telefonica" transform="translate(866.999 5238.499)">
        <path id="Trazado_121515" data-name="Trazado 121515" d="M38.905,67.857,22.146,51.1a3.516,3.516,0,0,1-.416-4.471l5.878-8.6a3.516,3.516,0,0,0-.416-4.471L13.722,20.091a3.516,3.516,0,0,0-4.972,0h0a23.909,23.909,0,0,0,0,33.813L36.1,81.253a23.909,23.909,0,0,0,33.813,0h0a3.516,3.516,0,0,0,0-4.972L56.443,62.811a3.516,3.516,0,0,0-4.471-.416l-8.6,5.878A3.515,3.515,0,0,1,38.905,67.857Z" fill="#78d2fa"/>
        <g id="Grupo_89299" data-name="Grupo 89299">
          <path id="Trazado_121516" data-name="Trazado 121516" d="M69.912,76.28,56.443,62.812a3.516,3.516,0,0,0-4.471-.416l-6.615,4.523L64.015,85.576a23.893,23.893,0,0,0,5.9-4.323h0A3.516,3.516,0,0,0,69.912,76.28Z" fill="#c8f5ff"/>
          <path id="Trazado_121517" data-name="Trazado 121517" d="M23.085,44.646l4.523-6.615a3.516,3.516,0,0,0-.416-4.471L13.722,20.091a3.516,3.516,0,0,0-4.972,0h0a23.894,23.894,0,0,0-4.323,5.9Z" fill="#c8f5ff"/>
        </g>
        <path id="Trazado_121518" data-name="Trazado 121518" d="M80.6,15.692H57.565a7.648,7.648,0,0,0-7.648,7.648V47.2a7.648,7.648,0,0,0,7.648,7.648h10.6v6.813l6.856-6.813H80.6A7.648,7.648,0,0,0,88.243,47.2V23.339A7.647,7.647,0,0,0,80.6,15.692Z" fill="#91e696"/>
        <path id="Trazado_121519" data-name="Trazado 121519" d="M77.837,41.627l-3.316-.618-10.157,0-3.3.616a5.693,5.693,0,0,0-4.649,5.6v7.53H68.037v6.911l7.569-6.911h6.148c.247,0,.491-.013.733-.034v-7.5A5.693,5.693,0,0,0,77.837,41.627Z" fill="#7d9bff"/>
        <path id="Trazado_121520" data-name="Trazado 121520" d="M69.449,26.973h0a6.209,6.209,0,0,0-6.208,6.208v4.04a6.209,6.209,0,0,0,6.208,6.208h0a6.209,6.209,0,0,0,6.208-6.208v-4.04A6.209,6.209,0,0,0,69.449,26.973Z" fill="#ffcdac"/>
        <path id="Trazado_121521" data-name="Trazado 121521" d="M22.683,3.516a18.269,18.269,0,0,1,18.01,18.478,1.758,1.758,0,0,0,3.516,0A21.788,21.788,0,0,0,22.683,0a1.758,1.758,0,1,0,0,3.516Z"/>
        <path id="Trazado_121522" data-name="Trazado 121522" d="M22.677,11.857a10.014,10.014,0,0,1,9.862,10.137,1.758,1.758,0,0,0,3.516,0A13.533,13.533,0,0,0,22.677,8.34a1.758,1.758,0,0,0,0,3.516Z"/>
        <path id="Trazado_121523" data-name="Trazado 121523" d="M20.953,17.782a1.758,1.758,0,0,0,1.758,1.758,2.356,2.356,0,0,1,2.3,2.4,1.758,1.758,0,0,0,3.516,0,5.875,5.875,0,0,0-5.82-5.916A1.758,1.758,0,0,0,20.953,17.782Z"/>
        <path id="Trazado_121524" data-name="Trazado 121524" d="M80.6,13.934H76.7a1.758,1.758,0,1,0,0,3.516h3.9a5.9,5.9,0,0,1,5.889,5.889V47.2a5.881,5.881,0,0,1-2.24,4.617v-4.6A7.454,7.454,0,0,0,78.16,39.9l-1.136-.212a7.932,7.932,0,0,0,.392-2.465v-4.04a7.966,7.966,0,1,0-15.933,0v4.04a7.938,7.938,0,0,0,.392,2.465l-1.136.212a7.453,7.453,0,0,0-6.085,7.325v5.1A5.892,5.892,0,0,1,51.676,47.2V23.339a5.9,5.9,0,0,1,5.889-5.889h4.19a1.758,1.758,0,1,0,0-3.516h-4.19a9.416,9.416,0,0,0-9.406,9.406V47.2a9.416,9.416,0,0,0,9.406,9.406h8.847v5.055a1.758,1.758,0,0,0,3,1.247l6.342-6.3H80.6A9.416,9.416,0,0,0,90,47.2V23.339A9.416,9.416,0,0,0,80.6,13.934ZM65,33.181a4.45,4.45,0,1,1,8.9,0v4.04a4.45,4.45,0,1,1-8.9,0ZM75.026,53.093a1.759,1.759,0,0,0-1.239.511l-3.859,3.835V54.851a1.758,1.758,0,0,0-1.758-1.758h-10v-5.87a3.937,3.937,0,0,1,3.214-3.868l2.478-.462a7.95,7.95,0,0,0,11.175,0l2.479.462a3.936,3.936,0,0,1,3.214,3.868v5.866c-.044,0-.089,0-.133,0H75.026Z"/>
        <path id="Trazado_121525" data-name="Trazado 121525" d="M68.377,17.45a1.758,1.758,0,1,0-1.243-.515A1.771,1.771,0,0,0,68.377,17.45Z"/>
        <path id="Trazado_121526" data-name="Trazado 121526" d="M31.432,58.626a1.758,1.758,0,1,0,1.243.515A1.771,1.771,0,0,0,31.432,58.626Z"/>
        <path id="Trazado_121527" data-name="Trazado 121527" d="M57.686,61.569a5.277,5.277,0,0,0-6.706-.624l-8.6,5.878a1.759,1.759,0,0,1-2.235-.208l-2.843-2.843a1.758,1.758,0,0,0-2.486,2.486L37.662,69.1a5.277,5.277,0,0,0,6.706.624l8.6-5.878a1.759,1.759,0,0,1,2.235.208L68.668,77.524a1.76,1.76,0,0,1,0,2.486,22.176,22.176,0,0,1-31.326,0L9.993,52.661a22.152,22.152,0,0,1,0-31.327,1.758,1.758,0,0,1,2.486,0L25.948,34.8a1.759,1.759,0,0,1,.208,2.235l-5.878,8.6a5.277,5.277,0,0,0,.624,6.706l4.273,4.273a1.758,1.758,0,0,0,2.486-2.486l-4.273-4.273a1.759,1.759,0,0,1-.208-2.235l5.878-8.6a5.277,5.277,0,0,0-.624-6.706L14.966,18.848a5.281,5.281,0,0,0-7.459,0,25.7,25.7,0,0,0,0,36.3L34.856,82.5a25.7,25.7,0,0,0,36.3,0,5.281,5.281,0,0,0,0-7.459Z"/>
        <path id="Trazado_121528" data-name="Trazado 121528" d="M22.44,46.23a1.753,1.753,0,0,1-1.243-.515L10.539,35.058a1.758,1.758,0,0,1,2.486-2.486L23.683,43.229a1.758,1.758,0,0,1-1.243,3Z"/>
        <path id="Trazado_121529" data-name="Trazado 121529" d="M63.228,87.018a1.753,1.753,0,0,1-1.243-.515L50.771,75.29A1.758,1.758,0,0,1,53.258,72.8L64.471,84.017a1.758,1.758,0,0,1-1.243,3Z"/>
      </g>
    </g>
  </g>
</svg>
