<svg xmlns="http://www.w3.org/2000/svg" xmlns:xlink="http://www.w3.org/1999/xlink" width="304" height="236" viewBox="0 0 304 236">
  <defs>
    <clipPath id="clip-path">
      <rect id="Rectángulo_35445" data-name="Rectángulo 35445" width="304" height="236" transform="translate(180.167 5327.929)" fill="#01ac57" stroke="#707070" stroke-width="1"/>
    </clipPath>
  </defs>
  <g id="Enmascarar_grupo_120" data-name="Enmascarar grupo 120" transform="translate(-180.167 -5327.929)" clip-path="url(#clip-path)">
    <g id="risa" transform="translate(219.61 5328)">
      <circle id="Elipse_4868" data-name="Elipse 4868" cx="15.557" cy="15.557" r="15.557" transform="translate(3.457 165.301)" fill="#f5a871"/>
      <circle id="Elipse_4869" data-name="Elipse 4869" cx="15.557" cy="15.557" r="15.557" transform="translate(94.844 139.814)" fill="#f5a871"/>
      <path id="Trazado_121590" data-name="Trazado 121590" d="M119.444,246.123a44.672,44.672,0,0,1-81.95-9.941L26.26,195.909l-5.421-19.436,86.074-24.006L117.2,189.358l6.363,22.818a44.5,44.5,0,0,1-4.123,33.947Z" transform="translate(-10.356 -36.464)" fill="#fdd1a7"/>
      <path id="Trazado_121591" data-name="Trazado 121591" d="M117.2,189.359l-35.759,9.973a30.892,30.892,0,0,1-27.1-5.216,14.678,14.678,0,0,0-8.826-3.072,13.29,13.29,0,0,0-3.564.487l-15.7,4.379-5.421-19.436,86.074-24.006Z" transform="translate(-10.355 -36.464)" fill="#ffbc8a"/>
      <path id="Trazado_121592" data-name="Trazado 121592" d="M86.4,123.887,50.452,133.914a11.14,11.14,0,0,0-7.737,13.723,26.855,26.855,0,0,0-11.425.5l-2.744.765A13.456,13.456,0,0,0,19.2,165.479l4.957,17.774,15.7-4.38a20.068,20.068,0,0,1,17.565,3.582,24.986,24.986,0,0,0,21.92,4.221L115.1,176.7,102.98,133.232A13.457,13.457,0,0,0,86.4,123.887Z" transform="translate(-9.845 -29.51)" fill="#fddd45"/>
      <path id="Trazado_121593" data-name="Trazado 121593" d="M120.966,133.235,133.09,176.7l-10.5,2.928-12.124-43.469a13.449,13.449,0,0,0-16.574-9.345l10.493-2.927A13.456,13.456,0,0,1,120.966,133.235Z" transform="translate(-27.827 -29.511)" fill="#f8c52d"/>
      <path id="Trazado_121594" data-name="Trazado 121594" d="M118.9,245.026a15.969,15.969,0,0,1-30.765,8.58Z" transform="translate(-26.45 -58.601)" fill="#fc7cb6"/>
      <circle id="Elipse_4870" data-name="Elipse 4870" cx="15.178" cy="15.178" r="15.178" transform="translate(102.259 43.077)" fill="#c47a4a"/>
      <circle id="Elipse_4871" data-name="Elipse 4871" cx="15.178" cy="15.178" r="15.178" transform="translate(191.301 68.363)" fill="#c47a4a"/>
      <path id="Trazado_121595" data-name="Trazado 121595" d="M164.326,59.5,157.16,84.737a43.592,43.592,0,0,0,83.869,23.817l7.166-25.233A43.592,43.592,0,0,0,164.326,59.5Z" transform="translate(-42.56 -6.651)" fill="#e89a5e"/>
      <path id="Trazado_121596" data-name="Trazado 121596" d="M254.732,56.925a43.6,43.6,0,0,1-68.478-19.447,43.59,43.59,0,0,1,68.478,19.447Z" transform="translate(-49.917 -6.651)" fill="#688d97"/>
      <path id="Trazado_121597" data-name="Trazado 121597" d="M257.249,63.474a43.6,43.6,0,0,1-60.474-5.58,48.9,48.9,0,0,0,13.018,5.849,48.884,48.884,0,0,0,43.51-8.552A43.468,43.468,0,0,1,257.249,63.474Z" transform="translate(-52.433 -13.2)" fill="#557983"/>
      <path id="Trazado_121598" data-name="Trazado 121598" d="M216.587,126.214a15.58,15.58,0,0,1-29.975-8.512Z" transform="translate(-49.86 -28.15)" fill="#fc7cb6"/>
      <path id="Trazado_121599" data-name="Trazado 121599" d="M199.956,239.947l1.568-5.459a3.911,3.911,0,0,1,4.324-2.79l26.811,3.919a3.91,3.91,0,0,1,3.193,4.949l-3.574,12.444a3.91,3.91,0,0,1-5.332,2.5l-24.8-10.9A3.909,3.909,0,0,1,199.956,239.947Z" transform="translate(-53.158 -55.404)" fill="#fc7cb6"/>
      <path id="Trazado_121600" data-name="Trazado 121600" d="M243.042,241.586l-3.573,12.445a3.912,3.912,0,0,1-5.335,2.5l-4.27-1.875a3.878,3.878,0,0,0,2.39-2.581l3.578-12.445a3.908,3.908,0,0,0-.865-3.705l4.879.715a3.912,3.912,0,0,1,3.2,4.948Z" transform="translate(-60.347 -56.424)" fill="#fb5fa7"/>
      <path id="Trazado_121601" data-name="Trazado 121601" d="M196.483,203.508l-.394-5.666a3.91,3.91,0,0,1,3.109-4.1l26.534-5.487a3.911,3.911,0,0,1,4.693,3.558l.9,12.916a3.911,3.911,0,0,1-4.155,4.173l-27.038-1.763a3.911,3.911,0,0,1-3.647-3.631Z" transform="translate(-52.267 -45.004)" fill="#fc7cb6"/>
      <path id="Trazado_121602" data-name="Trazado 121602" d="M234.652,208.9l-5.558-.364a3.867,3.867,0,0,0,1.133-3.036l-.9-12.913a3.893,3.893,0,0,0-1.962-3.122l5.845-1.211a3.911,3.911,0,0,1,4.693,3.56l.9,12.918A3.908,3.908,0,0,1,234.652,208.9Z" transform="translate(-59.751 -45.004)" fill="#fb5fa7"/>
      <path id="Trazado_121603" data-name="Trazado 121603" d="M178.056,267.149l3.34-4.593a3.91,3.91,0,0,1,5.017-1.142l23.854,12.852a3.911,3.911,0,0,1,1.308,5.742l-7.614,10.472a3.91,3.91,0,0,1-5.866.526l-19.579-18.73a3.91,3.91,0,0,1-.46-5.125Z" transform="translate(-47.778 -62.409)" fill="#fc7cb6"/>
      <path id="Trazado_121604" data-name="Trazado 121604" d="M216.9,283.535l-7.615,10.473a3.9,3.9,0,0,1-5.863.523l-3.837-3.669a3.9,3.9,0,0,0,3.855-1.547l7.615-10.469a3.9,3.9,0,0,0,.656-3.145l3.883,2.094a3.909,3.909,0,0,1,1.306,5.74Z" transform="translate(-53.106 -65.938)" fill="#fb5fa7"/>
      <path id="Trazado_121605" data-name="Trazado 121605" d="M94.515,55.135l-3,4.82a3.91,3.91,0,0,1-4.923,1.5L61.877,50.338A3.91,3.91,0,0,1,60.163,44.7L67.01,33.715a3.91,3.91,0,0,1,5.813-.943L93.69,50.055A3.91,3.91,0,0,1,94.515,55.135Z" transform="translate(-19.619 -7.623)" fill="#64e0c4"/>
      <path id="Trazado_121606" data-name="Trazado 121606" d="M74.044,32.771,94.908,50.055a3.909,3.909,0,0,1,.825,5.08l-3,4.819a3.359,3.359,0,0,1-.312.428,3.9,3.9,0,0,0-1.071-4.611L70.482,38.49a3.908,3.908,0,0,0-5.813.944l3.563-5.718a3.911,3.911,0,0,1,5.812-.944Z" transform="translate(-20.838 -7.623)" fill="#27d1b3"/>
      <path id="Trazado_121607" data-name="Trazado 121607" d="M91.361,92.152l-1.174,5.557a3.91,3.91,0,0,1-4.113,3.092L59.052,98.807A3.91,3.91,0,0,1,55.513,94.1l2.676-12.668a3.911,3.911,0,0,1,5.14-2.875l25.52,9.1a3.911,3.911,0,0,1,2.512,4.491Z" transform="translate(-18.628 -18.733)" fill="#64e0c4"/>
      <path id="Trazado_121608" data-name="Trazado 121608" d="M63.761,78.555l25.517,9.106a3.908,3.908,0,0,1,2.513,4.491l-1.173,5.555a3.406,3.406,0,0,1-.147.509,3.9,3.9,0,0,0-2.583-3.967l-25.518-9.1a3.908,3.908,0,0,0-5.139,2.875l1.392-6.592a3.913,3.913,0,0,1,5.14-2.875Z" transform="translate(-19.059 -18.733)" fill="#27d1b3"/>
      <path id="Trazado_121609" data-name="Trazado 121609" d="M126.273,34.909l-4.471,3.5a3.91,3.91,0,0,1-5.138-.276l-19.42-18.9a3.91,3.91,0,0,1,.316-5.88l10.192-7.984a3.91,3.91,0,0,1,5.785,1.1l13.7,23.378a3.91,3.91,0,0,1-.962,5.055Z" transform="translate(-28.346 -1.086)" fill="#64e0c4"/>
      <path id="Trazado_121610" data-name="Trazado 121610" d="M115.548,6.475l13.694,23.378a3.908,3.908,0,0,1-.962,5.055l-4.469,3.5a3.374,3.374,0,0,1-.439.295,3.9,3.9,0,0,0,.571-4.7l-13.7-23.375a3.908,3.908,0,0,0-5.785-1.1l5.3-4.155A3.913,3.913,0,0,1,115.548,6.475Z" transform="translate(-30.355 -1.086)" fill="#27d1b3"/>
      <path id="Trazado_121611" data-name="Trazado 121611" d="M134.022,193.133a19.007,19.007,0,0,0-20.99-27.822l-9.508-34.092a16.931,16.931,0,0,0-20.832-11.746l-13.318,3.714a3.455,3.455,0,1,0,1.856,6.656l13.318-3.714a10.013,10.013,0,0,1,12.319,6.946l11.2,40.143-32.43,9.045a21.419,21.419,0,0,1-18.9-3.64,23.387,23.387,0,0,0-20.589-4.163l-12.375,3.451-4.029-14.445a10.012,10.012,0,0,1,6.946-12.319l2.744-.765a23.636,23.636,0,0,1,9.789-.448,3.455,3.455,0,0,0,4.036-4.31,7.693,7.693,0,0,1,5.337-9.467L56.32,134a3.455,3.455,0,1,0-1.856-6.656L46.74,129.5a14.621,14.621,0,0,0-10.651,13.218,29.452,29.452,0,0,0-8.512,1.007l-2.744.765a16.93,16.93,0,0,0-11.746,20.832l7.21,25.853a19,19,0,0,0,10.2,36.586l.365,1.311A48.137,48.137,0,1,0,123.6,203.21l-.364-1.3a18.883,18.883,0,0,0,10.784-8.773Zm-119.6,19.4a12.117,12.117,0,0,1,7.738-14.7l6.49,23.272a12.116,12.116,0,0,1-14.228-8.573ZM88.31,255.85a41.274,41.274,0,0,1-50.786-28.636L25.629,184.567,38,181.115a16.538,16.538,0,0,1,14.542,3,28.293,28.293,0,0,0,17.219,5.867,28.718,28.718,0,0,0,7.725-1.065l32.43-9.045,7.025,25.19A41.273,41.273,0,0,1,88.31,255.85ZM128,189.739a12.013,12.013,0,0,1-6.623,5.5l-6.49-23.272A12.1,12.1,0,0,1,128,189.739Z" transform="translate(-7.06 -28.425)"/>
      <path id="Trazado_121612" data-name="Trazado 121612" d="M116.885,240.612l-30.765,8.58a3.455,3.455,0,0,0-2.4,4.257,19.425,19.425,0,0,0,37.421-10.437,3.455,3.455,0,0,0-4.256-2.4Zm-3.553,13.765a12.516,12.516,0,0,1-21.56.413l23.178-6.465A12.448,12.448,0,0,1,113.332,254.377Z" transform="translate(-25.364 -57.515)"/>
      <path id="Trazado_121613" data-name="Trazado 121613" d="M81.184,233.955a9.821,9.821,0,0,0-18.92,5.277,3.455,3.455,0,0,0,6.657-1.856,2.911,2.911,0,1,1,5.607-1.564,3.455,3.455,0,1,0,6.656-1.857Z" transform="translate(-20.177 -54.236)"/>
      <path id="Trazado_121614" data-name="Trazado 121614" d="M122.281,212.3a9.833,9.833,0,0,0-6.822,12.1,3.455,3.455,0,1,0,6.657-1.856,2.911,2.911,0,1,1,5.607-1.564,3.455,3.455,0,0,0,6.656-1.857,9.832,9.832,0,0,0-12.1-6.821Z" transform="translate(-32.899 -50.687)"/>
      <path id="Trazado_121615" data-name="Trazado 121615" d="M249.687,71.181c-.268-.076-.538-.144-.809-.208A47.058,47.058,0,0,0,161.46,46.147c-.269-.09-.541-.175-.814-.252a18.631,18.631,0,0,0-10.912,35.62l-.339,1.192a47.056,47.056,0,0,0,56.048,58.651,3.455,3.455,0,0,0-1.59-6.725,40.142,40.142,0,0,1-47.811-50.038l3.395-11.954a3.455,3.455,0,1,0-6.647-1.888l-1.166,4.107a11.72,11.72,0,0,1,6.7-22.43c-.446,1.089-.865,2.191-1.232,3.32a3.455,3.455,0,1,0,6.571,2.137A40.114,40.114,0,0,1,173.133,42.2a47.171,47.171,0,0,0,42.509,26.769,46.765,46.765,0,0,0,22.844-5.981c.848-.473,1.678-.98,2.5-1.5a39.916,39.916,0,0,1-.553,19.807l-7.166,25.233A40.131,40.131,0,0,1,216.844,129a3.455,3.455,0,1,0,3.818,5.76,47.049,47.049,0,0,0,19.247-26.35l.34-1.2a18.627,18.627,0,0,0,9.437-36.032ZM235.119,56.954a39.852,39.852,0,0,1-30.511,3.558,40.329,40.329,0,0,1-26-22.984,40.2,40.2,0,0,1,58.268,13.25,40.939,40.939,0,0,1,1.893,3.873,40.481,40.481,0,0,1-3.647,2.3Zm20.754,35.353a11.719,11.719,0,0,1-13.734,8.258l4.937-17.386a47.8,47.8,0,0,0,1.168-5.212A11.735,11.735,0,0,1,255.874,92.307Z" transform="translate(-38.118 -5.564)"/>
      <path id="Trazado_121616" data-name="Trazado 121616" d="M195.311,139.182a19.026,19.026,0,0,0,23.511-13.111,3.456,3.456,0,0,0-2.38-4.268l-29.975-8.513a3.456,3.456,0,0,0-4.268,2.38,19.035,19.035,0,0,0,13.111,23.512Zm15.438-11.812a12.132,12.132,0,0,1-22.367-6.352Z" transform="translate(-48.772 -27.063)"/>
      <path id="Trazado_121617" data-name="Trazado 121617" d="M187.227,97.828a3.451,3.451,0,0,0,4.267-2.38,9.666,9.666,0,1,0-18.6-5.281,3.455,3.455,0,1,0,6.647,1.887,2.756,2.756,0,0,1,5.3,1.506,3.455,3.455,0,0,0,2.38,4.268Z" transform="translate(-46.691 -19.883)"/>
      <path id="Trazado_121618" data-name="Trazado 121618" d="M239.056,112.548a3.452,3.452,0,0,0,4.268-2.38,9.666,9.666,0,1,0-18.6-5.282,3.455,3.455,0,1,0,6.647,1.888,2.755,2.755,0,0,1,5.3,1.505A3.455,3.455,0,0,0,239.056,112.548Z" transform="translate(-59.087 -23.404)"/>
      <path id="Trazado_121619" data-name="Trazado 121619" d="M232.073,231.112l-26.811-3.919a7.391,7.391,0,0,0-8.145,5.255l-1.568,5.459a7.392,7.392,0,0,0,4.115,8.776l24.8,10.9a7.366,7.366,0,0,0,10.044-4.71l3.574-12.444a7.366,7.366,0,0,0-6.015-9.321Zm-.628,7.414-3.574,12.444a.455.455,0,0,1-.62.291l-24.8-10.9a.456.456,0,0,1-.254-.542l1.568-5.459a.457.457,0,0,1,.438-.33.39.39,0,0,1,.065.005l26.811,3.919a.455.455,0,0,1,.372.576Z" transform="translate(-52.072 -54.318)"/>
      <path id="Trazado_121620" data-name="Trazado 121620" d="M191.556,197l.393,5.665a7.391,7.391,0,0,0,6.868,6.839l27.038,1.763c.161.011.32.016.48.016a7.366,7.366,0,0,0,7.347-7.876l-.9-12.916a7.366,7.366,0,0,0-8.839-6.7l-26.534,5.487A7.391,7.391,0,0,0,191.556,197Zm7.255-.957,26.534-5.487a.493.493,0,0,1,.1-.011.458.458,0,0,1,.448.425l.9,12.916a.456.456,0,0,1-.484.486l-27.038-1.763a.456.456,0,0,1-.424-.422h0l-.393-5.665A.456.456,0,0,1,198.811,196.039Z" transform="translate(-51.181 -43.918)"/>
      <path id="Trazado_121621" data-name="Trazado 121621" d="M210.823,270.14l-23.854-12.852a7.389,7.389,0,0,0-9.45,2.152l-3.34,4.593h0a7.392,7.392,0,0,0,.866,9.654l19.579,18.731a7.365,7.365,0,0,0,5.09,2.043q.329,0,.659-.029a7.365,7.365,0,0,0,5.3-3l7.615-10.472a7.367,7.367,0,0,0-2.464-10.816Zm-3.125,6.752-7.614,10.472a.456.456,0,0,1-.683.061l-19.579-18.73a.457.457,0,0,1-.053-.6l3.341-4.594a.456.456,0,0,1,.584-.133l23.853,12.852a.456.456,0,0,1,.152.669Z" transform="translate(-46.694 -61.325)"/>
      <path id="Trazado_121622" data-name="Trazado 121622" d="M59.375,52.4,84.086,63.519a7.307,7.307,0,0,0,3,.643A7.392,7.392,0,0,0,93.358,60.7l3-4.82h0a7.392,7.392,0,0,0-1.553-9.567L73.941,29.025A7.366,7.366,0,0,0,62.992,30.8L56.145,41.791A7.365,7.365,0,0,0,59.375,52.4Zm2.635-6.958,6.847-10.989a.439.439,0,0,1,.314-.209.526.526,0,0,1,.08-.006.435.435,0,0,1,.284.105L90.4,51.631a.457.457,0,0,1,.1.591l-3,4.82a.456.456,0,0,1-.574.175L62.209,46.1a.455.455,0,0,1-.2-.656Z" transform="translate(-18.533 -6.537)"/>
      <path id="Trazado_121623" data-name="Trazado 121623" d="M57.712,101.167l27.022,1.993q.272.02.539.02a7.394,7.394,0,0,0,7.209-5.844l1.174-5.557a7.391,7.391,0,0,0-4.732-8.459l-25.52-9.1a7.365,7.365,0,0,0-9.681,5.415L51.047,92.3a7.367,7.367,0,0,0,6.665,8.868Zm.1-7.439,2.676-12.668a.438.438,0,0,1,.223-.3.445.445,0,0,1,.219-.059.472.472,0,0,1,.156.028l25.52,9.1a.458.458,0,0,1,.293.523L85.722,95.91a.459.459,0,0,1-.479.36L58.22,94.277a.456.456,0,0,1-.412-.549Z" transform="translate(-17.542 -17.647)"/>
      <path id="Trazado_121624" data-name="Trazado 121624" d="M113.168,39.525a7.391,7.391,0,0,0,9.679.52l4.471-3.5h0a7.391,7.391,0,0,0,1.812-9.521l-13.7-23.378a7.365,7.365,0,0,0-10.9-2.075L94.343,9.552a7.366,7.366,0,0,0-.595,11.077ZM98.6,14.992,108.8,7.007a.435.435,0,0,1,.274-.1.452.452,0,0,1,.092.009.439.439,0,0,1,.308.217l13.7,23.378a.457.457,0,0,1-.112.589l-4.47,3.5a.456.456,0,0,1-.6-.032l-19.419-18.9a.455.455,0,0,1,.037-.685Z" transform="translate(-27.26 0)"/>
    </g>
  </g>
</svg>
