<svg xmlns="http://www.w3.org/2000/svg" width="111.167" height="118.95" viewBox="0 0 111.167 118.95">
  <g id="redaccion" transform="translate(-16.75)">
    <g id="Grupo_88009" data-name="Grupo 88009" transform="translate(18.492 1.742)">
      <path id="Trazado_119944" data-name="Trazado 119944" d="M104.073,7.5a2.323,2.323,0,0,0-2.323,2.323v1.859L104.8,16.7l-3.049,86.056a2.323,2.323,0,0,0,2.323,2.323l61.367-2.153,4.148,2.153h1.859a2.323,2.323,0,0,0,2.323-2.323V9.823A2.323,2.323,0,0,0,171.447,7.5Z" transform="translate(-83.745 -7.5)" fill="#dfeef4"/>
      <path id="Trazado_119945" data-name="Trazado 119945" d="M169.589,32.47v86.424H104.073a2.324,2.324,0,0,1-2.323-2.323V25.5h60.869A6.978,6.978,0,0,1,169.589,32.47Z" transform="translate(-83.745 -21.318)" fill="#cfe2e8"/>
      <path id="Trazado_119946" data-name="Trazado 119946" d="M133.947,49.628H66.573a2.323,2.323,0,0,0-2.323,2.323v.465l2.095,2.672L64.25,144.881a2.323,2.323,0,0,0,2.323,2.323l64.011-1.342,2.085,1.342h1.278a2.323,2.323,0,0,0,2.323-2.323V51.951A2.323,2.323,0,0,0,133.947,49.628Z" transform="translate(-54.957 -39.841)" fill="#dfeef4"/>
      <path id="Trazado_119947" data-name="Trazado 119947" d="M132.669,82.8v73.614h-66.1a2.324,2.324,0,0,1-2.323-2.323V61.628H111.5a6.264,6.264,0,0,1,4.433,1.835l14.9,14.9a6.271,6.271,0,0,1,1.838,4.435Z" transform="translate(-54.957 -49.053)" fill="#cfe2e8"/>
      <path id="Trazado_119948" data-name="Trazado 119948" d="M99.982,101.724v78.028a2.324,2.324,0,0,1-2.323,2.323H33.305l-1.9-1.149a2.324,2.324,0,0,1-2.323-2.323l.03-90.9a2.324,2.324,0,0,1,2.323-2.323l1.867-.877H82.758a2.311,2.311,0,0,1,.962.209l16.054,16.054A2.311,2.311,0,0,1,99.982,101.724Z" transform="translate(-27.962 -66.611)" fill="#f2fbff"/>
      <path id="Trazado_119949" data-name="Trazado 119949" d="M29.593,84.5v97.576h-3.02a2.324,2.324,0,0,1-2.323-2.323V86.823A2.324,2.324,0,0,1,26.573,84.5Z" transform="translate(-24.25 -66.611)" fill="#dfeef4"/>
      <path id="Trazado_119950" data-name="Trazado 119950" d="M280.3,101.454h-13.73a2.324,2.324,0,0,1-2.323-2.323V85.4a2.31,2.31,0,0,1,.681.472l14.9,14.9A2.311,2.311,0,0,1,280.3,101.454Z" transform="translate(-208.492 -67.302)" fill="#dfeef4"/>
      <g id="Grupo_88008" data-name="Grupo 88008" transform="translate(47.37 20.481)">
        <path id="Trazado_119951" data-name="Trazado 119951" d="M245.282,292.517l-1.72,7.327a4.672,4.672,0,0,1-.534.332l-6.529,3.457-4.5,1.952c-.606.321-.766-.313-.445-.919L237.2,293.9c.116-.216-.071-.632-.071-.632l7.224-1.691A.928.928,0,0,1,245.282,292.517Z" transform="translate(-230.635 -246.06)" fill="#87807f"/>
        <path id="Trazado_119952" data-name="Trazado 119952" d="M304.862,123.585l-41.754,41.752a4.484,4.484,0,0,1-.578.49l.072-5.636a.929.929,0,0,0-.929-.941H256.1l23.278-19.732L298.278,117l4.995,2.148Z" transform="translate(-249.603 -112.043)" fill="#ffe177"/>
        <path id="Trazado_119953" data-name="Trazado 119953" d="M444.981,102.207l1.843.229,1.7,1.7a2.327,2.327,0,0,1,0,3.291l-4.277,4.277-6.582-6.582,4.025-2.915A2.327,2.327,0,0,1,444.981,102.207Z" transform="translate(-388.989 -100.162)" fill="#fe99a0"/>
        <path id="Trazado_119954" data-name="Trazado 119954" d="M240.819,293.491l-2.567,2.567a4.821,4.821,0,0,0-.43.495,4.877,4.877,0,0,0-.393.618l-3.42,6.461-4.837,2.56a.7.7,0,0,1-.943-.943l6.017-11.365a4.876,4.876,0,0,1,.393-.618l5.707-1.691C240.576,291.575,240.819,293.491,240.819,293.491Z" transform="translate(-228.145 -246.059)" fill="#766e6e"/>
        <path id="Trazado_119955" data-name="Trazado 119955" d="M301.515,120.237l-39.238,39.238a.915.915,0,0,0-.6-.225H256.1a4.826,4.826,0,0,1,.43-.495L298.278,117l3.236.331Z" transform="translate(-249.603 -112.043)" fill="#ffd15b"/>
        <path id="Trazado_119956" data-name="Trazado 119956" d="M446.821,97.931l-5.924,5.922-3.236-3.236,4.279-4.277a2.326,2.326,0,0,1,3.29,0Z" transform="translate(-388.985 -95.658)" fill="#fd8087"/>
      </g>
    </g>
    <g id="Grupo_88010" data-name="Grupo 88010" transform="translate(16.75)">
      <path id="Trazado_119957" data-name="Trazado 119957" d="M153.149,124.485a1.742,1.742,0,1,0,0-3.485H135.492a1.742,1.742,0,1,0,0,3.485Z" transform="translate(-106.568 -92.889)"/>
      <path id="Trazado_119958" data-name="Trazado 119958" d="M56.75,184.742a1.742,1.742,0,0,0,1.742,1.742h53.434a1.742,1.742,0,1,0,0-3.485H58.492A1.742,1.742,0,0,0,56.75,184.742Z" transform="translate(-47.457 -140.485)"/>
      <path id="Trazado_119959" data-name="Trazado 119959" d="M58.492,220.235h53.434a1.742,1.742,0,1,0,0-3.485H58.492a1.742,1.742,0,1,0,0,3.485Z" transform="translate(-47.457 -166.394)"/>
      <path id="Trazado_119960" data-name="Trazado 119960" d="M58.492,321.485H84.187a1.742,1.742,0,0,0,0-3.485H58.492a1.742,1.742,0,0,0,0,3.485Z" transform="translate(-47.457 -244.121)"/>
      <path id="Trazado_119961" data-name="Trazado 119961" d="M200.018,388.985a1.742,1.742,0,1,0,0-3.485H173.242a1.742,1.742,0,0,0,0,3.485Z" transform="translate(-135.548 -295.939)"/>
      <path id="Trazado_119962" data-name="Trazado 119962" d="M58.492,388.985H77.02a1.742,1.742,0,0,0,0-3.485H58.492a1.742,1.742,0,0,0,0,3.485Z" transform="translate(-47.457 -295.939)"/>
      <path id="Trazado_119963" data-name="Trazado 119963" d="M58.492,422.735h53.434a1.742,1.742,0,1,0,0-3.485H58.492a1.742,1.742,0,0,0,0,3.485Z" transform="translate(-47.457 -321.848)"/>
      <path id="Trazado_119964" data-name="Trazado 119964" d="M58.492,456.485H95.548a1.742,1.742,0,1,0,0-3.485H58.492a1.742,1.742,0,1,0,0,3.485Z" transform="translate(-47.457 -347.757)"/>
      <path id="Trazado_119965" data-name="Trazado 119965" d="M126.725,24.869l-3.291-3.291a4.075,4.075,0,0,0-5.755,0L110.26,29V4.066A4.07,4.07,0,0,0,106.195,0H38.821a4.07,4.07,0,0,0-4.066,4.066V8.828H29.992a4.07,4.07,0,0,0-4.066,4.066v4.995H20.816a4.07,4.07,0,0,0-4.066,4.066V47.537a1.742,1.742,0,0,0,3.485,0V21.955a.581.581,0,0,1,.581-.581H72.508v12.2a4.07,4.07,0,0,0,4.066,4.066h12.2v12.85L81.06,58.2H27.785a1.742,1.742,0,0,0,0,3.485h49.79l-4.356,4.356H27.785a1.742,1.742,0,1,0,0,3.485H70.249l-6.457,12.2H27.785a1.742,1.742,0,1,0,0,3.485H81.22a1.742,1.742,0,1,0,0-3.485H71.857l7.168-3.8a6.388,6.388,0,0,0,1.53-1.13l8.216-8.216v46.3a.581.581,0,0,1-.581.581H20.816a.581.581,0,0,1-.581-.581V55.669a1.742,1.742,0,1,0-3.485,0v59.215a4.07,4.07,0,0,0,4.066,4.066H88.19a4.07,4.07,0,0,0,4.066-4.066v-4.995h5.111a4.07,4.07,0,0,0,4.066-4.066v-4.763h4.763A4.07,4.07,0,0,0,110.26,97V71.383a1.742,1.742,0,0,0-3.485,0V97a.581.581,0,0,1-.581.581h-4.763V55.918l5.343-5.343V63.251a1.742,1.742,0,0,0,3.485,0V47.089l16.465-16.465a4.069,4.069,0,0,0,0-5.755Zm-50.733,8.7V23.838L86.306,34.152H76.573A.581.581,0,0,1,75.993,33.571Zm15.072.411-14.9-14.9a4.039,4.039,0,0,0-2.875-1.191H29.412V12.894a.581.581,0,0,1,.581-.581h23.7a1.742,1.742,0,0,0,0-3.485H38.24V4.066a.581.581,0,0,1,.581-.581h67.374a.581.581,0,0,1,.581.581V32.482l-5.343,5.343V12.894a4.07,4.07,0,0,0-4.066-4.066H61.821a1.742,1.742,0,0,0,0,3.485H97.366a.581.581,0,0,1,.581.581V41.31L92.255,47V36.857A4.039,4.039,0,0,0,91.065,33.982ZM73.257,71.289l3.805-.048-.048,3.805-7.984,4.227Zm24.69,34.535a.581.581,0,0,1-.581.581H92.255V65.094L97.947,59.4ZM80.54,71.881l.03-2.384a1.744,1.744,0,0,0-.51-1.254,1.694,1.694,0,0,0-1.254-.51l-2.384.03,38.212-38.212,4.118,4.118ZM124.261,28.16l-3.045,3.045L117.1,27.088l3.045-3.045a.585.585,0,0,1,.827,0l3.291,3.291a.584.584,0,0,1,0,.826Z" transform="translate(-16.75)"/>
    </g>
  </g>
</svg>
