<svg xmlns="http://www.w3.org/2000/svg" width="63" height="63" viewBox="0 0 63 63">
  <g id="alerta" transform="translate(-11.05 -11.05)">
    <g id="Grupo_80778" data-name="Grupo 80778" transform="translate(21.385 25.812)">
      <path id="Trazado_114329" data-name="Trazado 114329" d="M53.527,35.865A15.379,15.379,0,0,0,38.148,51.244v23.3H68.9v-23.3A15.379,15.379,0,0,0,53.527,35.865Z" transform="translate(-32.362 -35.865)" fill="#e5384f"/>
      <path id="Trazado_114330" data-name="Trazado 114330" d="M50.667,68.05,58.6,62.108l-7.932-5.941Z" transform="translate(-37.433 -44.089)" fill="#fdbe00"/>
      <path id="Trazado_114331" data-name="Trazado 114331" d="M64,62.108l7.932,5.941V56.167Z" transform="translate(-42.835 -44.089)" fill="#fdbe00"/>
      <path id="Trazado_114332" data-name="Trazado 114332" d="M31.294,96.442,28.422,107.6H70.753L67.881,96.442Z" transform="translate(-28.422 -60.405)" fill="#223b59"/>
    </g>
    <g id="Grupo_80779" data-name="Grupo 80779" transform="translate(11.05 11.05)">
      <path id="Trazado_114333" data-name="Trazado 114333" d="M33.5,52.324a1.042,1.042,0,0,0-1.041,1.041V70.183H30.584a1.041,1.041,0,0,0-1.008.779L26.7,82.123a1.042,1.042,0,0,0,1.011,1.3H54.85a1.041,1.041,0,1,0,0-2.082h-25.8l2.337-9.078H66.364L68.7,81.342H66.4a1.041,1.041,0,1,0,0,2.082h3.641a1.042,1.042,0,0,0,1.011-1.3L68.179,70.962a1.041,1.041,0,0,0-1.008-.779H65.3V50.569A16.419,16.419,0,0,0,32.528,49.1a1.041,1.041,0,1,0,2.072.182,14.337,14.337,0,0,1,28.615,1.283V70.183h-13.3v-14.9l6.267,4.694a1.041,1.041,0,0,0,1.666-.833V47.266a1.041,1.041,0,0,0-1.666-.833l-7.308,5.473L41.57,46.433a1.041,1.041,0,0,0-1.666.833V59.148a1.041,1.041,0,0,0,1.666.833l6.267-4.694v14.9h-13.3V53.365A1.042,1.042,0,0,0,33.5,52.324Zm22.269-2.978v7.722l-5.154-3.861ZM41.987,57.068V49.346l5.154,3.861Z" transform="translate(-17.378 -20.426)"/>
      <path id="Trazado_114334" data-name="Trazado 114334" d="M83.559,115.532a1.041,1.041,0,0,0,0-2.082H80.311a1.041,1.041,0,0,0,0,2.082Z" transform="translate(-38.686 -52.532)"/>
      <path id="Trazado_114335" data-name="Trazado 114335" d="M64.332,20.341V12.091a1.041,1.041,0,0,0-2.082,0v8.249a1.041,1.041,0,1,0,2.082,0Z" transform="translate(-31.791 -11.05)"/>
      <path id="Trazado_114336" data-name="Trazado 114336" d="M90.428,33.658l5.833-5.83a1.041,1.041,0,1,0-1.472-1.472l-5.83,5.83a1.041,1.041,0,0,0,1.472,1.472Z" transform="translate(-42.488 -17.127)"/>
      <path id="Trazado_114337" data-name="Trazado 114337" d="M32.921,33.963a1.041,1.041,0,0,0,.736-1.777l-5.83-5.83a1.041,1.041,0,0,0-1.472,1.472l5.83,5.833A1.037,1.037,0,0,0,32.921,33.963Z" transform="translate(-17.127 -17.127)"/>
      <path id="Trazado_114338" data-name="Trazado 114338" d="M20.341,64.332a1.041,1.041,0,1,0,0-2.082H12.091a1.041,1.041,0,0,0,0,2.082Z" transform="translate(-11.05 -31.791)"/>
      <path id="Trazado_114339" data-name="Trazado 114339" d="M108.874,64.332a1.041,1.041,0,0,0,0-2.082h-8.249a1.041,1.041,0,0,0,0,2.082Z" transform="translate(-46.915 -31.791)"/>
    </g>
  </g>
</svg>
